Banana-Singleline-Light.ufo
<glyph name="exclam" format="2">
  <advance width="186"/>
  <unicode hex="0021"/>
  <outline>
    <contour>
      <point x="61" y="214" type="move"/>
      <point x="59" y="190"/>
      <point x="79" y="170"/>
      <point x="103" y="172" type="curve" smooth="yes"/>
      <point x="129" y="174"/>
      <point x="145" y="200"/>
      <point x="145" y="228" type="curve" smooth="yes"/>
      <point x="145" y="406"/>
      <point x="61" y="466"/>
      <point x="61" y="644" type="curve" smooth="yes"/>
      <point x="61" y="672"/>
      <point x="77" y="698"/>
      <point x="103" y="700" type="curve" smooth="yes"/>
      <point x="127" y="702"/>
      <point x="147" y="682"/>
      <point x="145" y="658" type="curve"/>
    </contour>
    <contour>
      <point x="104" y="97" type="curve" smooth="yes"/>
      <point x="127" y="97"/>
      <point x="138" y="72"/>
      <point x="138" y="46" type="curve" smooth="yes"/>
      <point x="138" y="21"/>
      <point x="127" y="-5"/>
      <point x="104" y="-5" type="curve" smooth="yes"/>
      <point x="82" y="-5"/>
      <point x="70" y="21"/>
      <point x="70" y="46" type="curve" smooth="yes"/>
      <point x="70" y="72"/>
      <point x="82" y="97"/>
    </contour>
  </outline>
</glyph>
<glyph name="dollar" format="2">
  <advance width="572"/>
  <unicode hex="0024"/>
  <outline>
    <component base="S"/>
    <contour>
      <point x="290.755" y="-70" type="move"/>
      <point x="293.822" y="777.324" type="line"/>
    </contour>
  </outline>
</glyph>
<glyph name="percent" format="2">
  <advance width="661"/>
  <unicode hex="0025"/>
  <outline>
    <contour>
      <point x="497" y="1" type="move"/>
      <point x="435" y="21"/>
      <point x="386" y="75"/>
      <point x="385" y="141" type="curve" smooth="yes"/>
      <point x="384" y="215"/>
      <point x="428" y="282"/>
      <point x="497" y="281" type="curve" smooth="yes"/>
      <point x="564" y="279"/>
      <point x="608" y="213"/>
      <point x="609" y="141" type="curve" smooth="yes"/>
      <point x="609" y="68"/>
      <point x="565" y="1"/>
      <point x="497" y="1" type="curve" smooth="yes"/>
      <point x="398" y="2"/>
      <point x="276" y="127"/>
      <point x="246" y="1" type="curve"/>
      <point x="413" y="700" type="line"/>
      <point x="384" y="578"/>
      <point x="261" y="700"/>
      <point x="162" y="700" type="curve" smooth="yes"/>
      <point x="94" y="700"/>
      <point x="50" y="633"/>
      <point x="50" y="560" type="curve" smooth="yes"/>
      <point x="50" y="488"/>
      <point x="94" y="422"/>
      <point x="162" y="421" type="curve" smooth="yes"/>
      <point x="231" y="419"/>
      <point x="274" y="487"/>
      <point x="274" y="560" type="curve" smooth="yes"/>
      <point x="274" y="624"/>
      <point x="224" y="681"/>
      <point x="162" y="700" type="curve"/>
    </contour>
  </outline>
</glyph>
<glyph name="ampersand" format="2">
  <advance width="689"/>
  <unicode hex="0026"/>
  <outline>
    <contour>
      <point x="639" y="0" type="move"/>
      <point x="186" y="513" type="line"/>
      <point x="117.052" y="581.948"/>
      <point x="174.669" y="699.944"/>
      <point x="270" y="708" type="curve" smooth="yes"/>
      <point x="350" y="715"/>
      <point x="416" y="648"/>
      <point x="409" y="568" type="curve" smooth="yes"/>
      <point x="394" y="399"/>
      <point x="146" y="421"/>
      <point x="74" y="289" type="curve" smooth="yes"/>
      <point x="-14" y="126"/>
      <point x="162" y="-66"/>
      <point x="353" y="10" type="curve" smooth="yes"/>
      <point x="479" y="60"/>
      <point x="521.173" y="204.447"/>
      <point x="521.173" y="343.447" type="curve"/>
    </contour>
    <contour>
      <point x="437" y="317" type="move"/>
      <point x="426" y="346"/>
      <point x="448" y="376"/>
      <point x="479" y="373" type="curve" smooth="yes"/>
      <point x="514" y="370"/>
      <point x="524.627" y="320.139"/>
      <point x="563" y="317" type="curve" smooth="yes"/>
      <point x="593.049" y="314.542"/>
      <point x="616" y="345"/>
      <point x="605" y="373" type="curve"/>
    </contour>
  </outline>
</glyph>
<glyph name="quotesingle" format="2">
  <advance width="229"/>
  <unicode hex="0027"/>
  <outline>
    <contour>
      <point x="81.1099" y="689.438" type="curve" smooth="yes"/>
      <point x="81.1099" y="664.046"/>
      <point x="92.2826" y="638.653"/>
      <point x="114.628" y="638.653" type="curve" smooth="yes"/>
      <point x="136.973" y="638.653"/>
      <point x="148.146" y="664.046"/>
      <point x="148.146" y="689.438" type="curve" smooth="yes"/>
      <point x="148.146" y="714.831"/>
      <point x="136.973" y="740.223"/>
      <point x="114.628" y="740.223" type="curve" smooth="yes"/>
      <point x="92.2826" y="740.223"/>
      <point x="81.1099" y="714.831"/>
    </contour>
    <contour>
      <point x="148.146" y="689.438" type="move"/>
      <point x="148.146" y="611.229"/>
      <point x="124.785" y="534.036"/>
      <point x="81.1099" y="469.031" type="curve"/>
    </contour>
  </outline>
</glyph>
<glyph name="parenright" format="2">
  <advance width="142"/>
  <unicode hex="0029"/>
  <outline>
    <contour>
      <point x="52" y="1" type="move"/>
      <point x="98" y="112"/>
      <point x="122" y="231"/>
      <point x="122" y="351" type="curve" smooth="yes"/>
      <point x="122" y="471"/>
      <point x="98" y="589"/>
      <point x="52" y="700" type="curve"/>
    </contour>
  </outline>
</glyph>
<glyph name="plus" format="2">
  <advance width="572"/>
  <unicode hex="002B"/>
  <outline>
    <contour>
      <point x="279" y="0.3754" type="move"/>
      <point x="279" y="500.186" type="line"/>
    </contour>
    <contour>
      <point x="529.625" y="249" type="move"/>
      <point x="29.8141" y="249" type="line"/>
    </contour>
  </outline>
</glyph>
<glyph name="comma" format="2">
  <advance width="268"/>
  <unicode hex="002C"/>
  <outline>
    <contour>
      <point x="109.11" y="44.4383" type="curve" smooth="yes"/>
      <point x="109.11" y="19.0458"/>
      <point x="120.283" y="-6.3467"/>
      <point x="142.628" y="-6.3467" type="curve" smooth="yes"/>
      <point x="164.973" y="-6.3467"/>
      <point x="176.146" y="19.0458"/>
      <point x="176.146" y="44.4383" type="curve" smooth="yes"/>
      <point x="176.146" y="69.8308"/>
      <point x="164.973" y="95.2233"/>
      <point x="142.628" y="95.2233" type="curve" smooth="yes"/>
      <point x="120.283" y="95.2233"/>
      <point x="109.11" y="69.8308"/>
    </contour>
    <contour>
      <point x="176.146" y="44.4383" type="move"/>
      <point x="176.146" y="-33.7706"/>
      <point x="152.785" y="-110.964"/>
      <point x="109.11" y="-175.969" type="curve"/>
    </contour>
  </outline>
</glyph>
<glyph name="hyphen" format="2">
  <advance width="366"/>
  <unicode hex="002D"/>
  <outline>
    <contour>
      <point x="70" y="270" type="move"/>
      <point x="306" y="270" type="line"/>
    </contour>
  </outline>
</glyph>
<glyph name="period" format="2">
  <advance width="268"/>
  <unicode hex="002E"/>
  <outline>
    <contour>
      <point x="145" y="97" type="curve" smooth="yes"/>
      <point x="168" y="97"/>
      <point x="179" y="72"/>
      <point x="179" y="46" type="curve" smooth="yes"/>
      <point x="179" y="21"/>
      <point x="168" y="-5"/>
      <point x="145" y="-5" type="curve" smooth="yes"/>
      <point x="123" y="-5"/>
      <point x="111" y="21"/>
      <point x="111" y="46" type="curve" smooth="yes"/>
      <point x="111" y="72"/>
      <point x="123" y="97"/>
    </contour>
  </outline>
</glyph>
<glyph name="zero" format="2">
  <advance width="563"/>
  <unicode hex="0030"/>
  <outline>
    <contour>
      <point x="40" y="351" type="curve" smooth="yes"/>
      <point x="40" y="169"/>
      <point x="135" y="1"/>
      <point x="281" y="1" type="curve" smooth="yes"/>
      <point x="427" y="1"/>
      <point x="523" y="169"/>
      <point x="523" y="351" type="curve" smooth="yes"/>
      <point x="523" y="532"/>
      <point x="427" y="700"/>
      <point x="281" y="700" type="curve" smooth="yes"/>
      <point x="135" y="700"/>
      <point x="40" y="532"/>
    </contour>
  </outline>
</glyph>
<glyph name="one" format="2">
  <advance width="311"/>
  <unicode hex="0031"/>
  <outline>
    <contour>
      <point x="62" y="395" type="move"/>
      <point x="28" y="421"/>
      <point x="17" y="461"/>
      <point x="34" y="500" type="curve" smooth="yes"/>
      <point x="68" y="578"/>
      <point x="209" y="566"/>
      <point x="209" y="660" type="curve" smooth="yes"/>
      <point x="209" y="681"/>
      <point x="219" y="702"/>
      <point x="237" y="702" type="curve" smooth="yes"/>
      <point x="256" y="702"/>
      <point x="265" y="681"/>
      <point x="265" y="660" type="curve" smooth="yes"/>
      <point x="265" y="-1" type="line"/>
    </contour>
  </outline>
</glyph>
<glyph name="two" format="2">
  <advance width="626"/>
  <unicode hex="0032"/>
  <outline>
    <contour>
      <point x="120" y="395" type="move"/>
      <point x="37" y="544"/>
      <point x="158" y="724"/>
      <point x="328" y="706" type="curve" smooth="yes"/>
      <point x="441" y="694"/>
      <point x="521" y="586"/>
      <point x="491" y="480" type="curve" smooth="yes"/>
      <point x="485" y="459"/>
      <point x="476" y="440"/>
      <point x="462" y="423" type="curve"/>
      <point x="21" y="43" type="line"/>
      <point x="16" y="18"/>
      <point x="38" y="-4"/>
      <point x="63" y="0" type="curve"/>
      <point x="84" y="4"/>
      <point x="95" y="25"/>
      <point x="106" y="43" type="curve" smooth="yes"/>
      <point x="202" y="194"/>
      <point x="424" y="194"/>
      <point x="519" y="43" type="curve"/>
      <point x="531" y="25"/>
      <point x="541" y="4"/>
      <point x="562" y="0" type="curve"/>
      <point x="571.423" y="-1.5077"/>
      <point x="580.562" y="0.6784"/>
      <point x="588.024" y="5.32667" type="curve" smooth="yes"/>
      <point x="600.36" y="13.0106"/>
      <point x="608.115" y="27.423"/>
      <point x="605" y="43" type="curve"/>
    </contour>
  </outline>
</glyph>
<glyph name="three" format="2">
  <advance width="507"/>
  <unicode hex="0033"/>
  <outline>
    <contour>
      <point x="30" y="701" type="move"/>
      <point x="370" y="701" type="line"/>
      <point x="390" y="707"/>
      <point x="411" y="694"/>
      <point x="412" y="673" type="curve"/>
      <point x="413" y="661"/>
      <point x="408" y="650"/>
      <point x="398" y="644" type="curve" smooth="yes"/>
      <point x="72" y="446" type="line" smooth="yes"/>
      <point x="49" y="432"/>
      <point x="31" y="409"/>
      <point x="44" y="389" type="curve"/>
      <point x="54" y="375"/>
      <point x="75" y="376"/>
      <point x="87" y="389" type="curve"/>
      <point x="210" y="537"/>
      <point x="463" y="435"/>
      <point x="455" y="219" type="curve" smooth="yes"/>
      <point x="451" y="99"/>
      <point x="350" y="6"/>
      <point x="228" y="-7" type="curve" smooth="yes"/>
      <point x="157" y="-15"/>
      <point x="86" y="5"/>
      <point x="30" y="49" type="curve"/>
    </contour>
  </outline>
</glyph>
<glyph name="four" format="2">
  <advance width="620"/>
  <unicode hex="0034"/>
  <outline>
    <contour>
      <point x="325" y="693" type="move"/>
      <point x="330" y="703"/>
      <point x="341" y="708"/>
      <point x="353" y="707" type="curve" smooth="yes"/>
      <point x="362.306" y="706.069"/>
      <point x="370.314" y="701.241"/>
      <point x="375.611" y="694.329" type="curve" smooth="yes"/>
      <point x="381.699" y="686.387"/>
      <point x="384.208" y="675.694"/>
      <point x="381" y="665" type="curve"/>
      <point x="0" y="171" type="line"/>
      <point x="-5" y="146"/>
      <point x="17" y="124"/>
      <point x="42" y="129" type="curve"/>
      <point x="63" y="132"/>
      <point x="73" y="153"/>
      <point x="85" y="171" type="curve"/>
      <point x="179" y="322"/>
      <point x="399" y="322"/>
      <point x="494" y="171" type="curve" smooth="yes"/>
      <point x="505" y="153"/>
      <point x="516" y="132"/>
      <point x="536" y="129" type="curve"/>
      <point x="547.006" y="126.799"/>
      <point x="557.43" y="129.83"/>
      <point x="565.226" y="136.047" type="curve" smooth="yes"/>
      <point x="575.138" y="143.952"/>
      <point x="580.799" y="157.006"/>
      <point x="578" y="171" type="curve"/>
    </contour>
    <contour>
      <point x="325" y="425" type="move"/>
      <point x="325" y="2" type="line"/>
    </contour>
  </outline>
</glyph>
<glyph name="five" format="2">
  <advance width="507"/>
  <unicode hex="0035"/>
  <outline>
    <contour>
      <point x="422" y="700" type="move"/>
      <point x="40" y="700" type="line"/>
      <point x="40" y="389" type="line"/>
      <point x="51" y="376"/>
      <point x="71" y="376"/>
      <point x="82" y="389" type="curve" smooth="yes"/>
      <point x="209" y="539"/>
      <point x="466" y="439"/>
      <point x="464" y="219" type="curve" smooth="yes"/>
      <point x="463" y="95"/>
      <point x="363" y="-5"/>
      <point x="238" y="-7" type="curve" smooth="yes"/>
      <point x="156" y="-9"/>
      <point x="80" y="35"/>
      <point x="40" y="106" type="curve"/>
    </contour>
  </outline>
</glyph>
<glyph name="six" format="2">
  <advance width="527"/>
  <unicode hex="0036"/>
  <outline>
    <contour>
      <point x="70" y="415" type="move"/>
      <point x="64" y="399"/>
      <point x="63" y="380"/>
      <point x="80" y="372" type="curve" smooth="yes"/>
      <point x="97" y="364"/>
      <point x="111" y="373"/>
      <point x="119" y="390" type="curve"/>
      <point x="209" y="559"/>
      <point x="485" y="443"/>
      <point x="486" y="226" type="curve" smooth="yes"/>
      <point x="487" y="101"/>
      <point x="387" y="-1"/>
      <point x="263" y="3" type="curve" smooth="yes"/>
      <point x="135" y="7"/>
      <point x="40" y="122"/>
      <point x="40" y="254" type="curve" smooth="yes"/>
      <point x="40" y="484"/>
      <point x="215" y="677"/>
      <point x="444" y="700" type="curve"/>
    </contour>
  </outline>
</glyph>
<glyph name="seven" format="2">
  <advance width="572"/>
  <unicode hex="0037"/>
  <outline>
    <contour>
      <point x="15" y="649" type="move"/>
      <point x="12.4858" y="662.074"/>
      <point x="17.0516" y="674.642"/>
      <point x="25.5186" y="683.145" type="curve" smooth="yes"/>
      <point x="33.8897" y="691.551"/>
      <point x="46.0741" y="695.983"/>
      <point x="59" y="693" type="curve"/>
      <point x="80" y="689"/>
      <point x="91" y="668"/>
      <point x="103" y="649" type="curve" smooth="yes"/>
      <point x="190" y="515"/>
      <point x="385" y="515"/>
      <point x="472" y="649" type="curve" smooth="yes"/>
      <point x="484" y="668"/>
      <point x="494" y="689"/>
      <point x="516" y="693" type="curve"/>
      <point x="528.926" y="695.983"/>
      <point x="541.11" y="691.551"/>
      <point x="549.481" y="683.146" type="curve" smooth="yes"/>
      <point x="557.948" y="674.643"/>
      <point x="562.514" y="662.074"/>
      <point x="560" y="649" type="curve"/>
      <point x="133" y="1" type="line"/>
    </contour>
    <contour>
      <point x="103" y="340" type="move"/>
      <point x="516" y="340" type="line"/>
    </contour>
  </outline>
</glyph>
<glyph name="eight" format="2">
  <advance width="493"/>
  <unicode hex="0038"/>
  <outline>
    <contour>
      <point x="247" y="705" type="curve" smooth="yes"/>
      <point x="134" y="705"/>
      <point x="34" y="633"/>
      <point x="48" y="535" type="curve" smooth="yes"/>
      <point x="59" y="464"/>
      <point x="119" y="421"/>
      <point x="193" y="421" type="curve" smooth="yes"/>
      <point x="209" y="421"/>
      <point x="222" y="408"/>
      <point x="222" y="393" type="curve" smooth="yes"/>
      <point x="222" y="378"/>
      <point x="209" y="364"/>
      <point x="193" y="364" type="curve" smooth="yes"/>
      <point x="95" y="364"/>
      <point x="23" y="291"/>
      <point x="20" y="195" type="curve" smooth="yes"/>
      <point x="18" y="80"/>
      <point x="125" y="-4"/>
      <point x="247" y="-4" type="curve" smooth="yes"/>
      <point x="368" y="-4"/>
      <point x="477" y="80"/>
      <point x="473" y="195" type="curve" smooth="yes"/>
      <point x="471" y="291"/>
      <point x="399" y="364"/>
      <point x="300" y="364" type="curve" smooth="yes"/>
      <point x="284" y="364"/>
      <point x="271" y="378"/>
      <point x="271" y="393" type="curve" smooth="yes"/>
      <point x="271" y="408"/>
      <point x="284" y="421"/>
      <point x="300" y="421" type="curve" smooth="yes"/>
      <point x="374" y="421"/>
      <point x="434" y="464"/>
      <point x="445" y="535" type="curve" smooth="yes"/>
      <point x="460" y="633"/>
      <point x="359" y="705"/>
    </contour>
  </outline>
</glyph>
<glyph name="nine" format="2">
  <advance width="527"/>
  <unicode hex="0039"/>
  <outline>
    <contour>
      <point x="457" y="288" type="move"/>
      <point x="463" y="304"/>
      <point x="464" y="323"/>
      <point x="447" y="331" type="curve" smooth="yes"/>
      <point x="430" y="339"/>
      <point x="417" y="330"/>
      <point x="408" y="313" type="curve" smooth="yes"/>
      <point x="319" y="144"/>
      <point x="42" y="260"/>
      <point x="41" y="477" type="curve" smooth="yes"/>
      <point x="40" y="602"/>
      <point x="140" y="704"/>
      <point x="264" y="700" type="curve" smooth="yes"/>
      <point x="392" y="696"/>
      <point x="487" y="581"/>
      <point x="487" y="449" type="curve" smooth="yes"/>
      <point x="487" y="219"/>
      <point x="312" y="26"/>
      <point x="83" y="3" type="curve"/>
    </contour>
  </outline>
</glyph>
<glyph name="equal" format="2">
  <advance width="572"/>
  <unicode hex="003D"/>
  <outline>
    <contour>
      <point x="80" y="270" type="move"/>
      <point x="486" y="270" type="line"/>
    </contour>
    <contour>
      <point x="80" y="437" type="move"/>
      <point x="486" y="437" type="line"/>
    </contour>
  </outline>
</glyph>
<glyph name="question" format="2">
  <advance width="562"/>
  <unicode hex="003F"/>
  <outline>
    <contour>
      <point x="277" y="46" type="curve" smooth="yes"/>
      <point x="277" y="20"/>
      <point x="288" y="-5"/>
      <point x="311" y="-5" type="curve" smooth="yes"/>
      <point x="333" y="-5"/>
      <point x="344" y="20"/>
      <point x="344" y="46" type="curve" smooth="yes"/>
      <point x="344" y="71"/>
      <point x="333" y="96"/>
      <point x="311" y="96" type="curve" smooth="yes"/>
      <point x="288" y="96"/>
      <point x="277" y="71"/>
    </contour>
    <contour>
      <point x="344" y="223" type="move"/>
      <point x="359" y="199"/>
      <point x="339" y="168"/>
      <point x="311" y="172" type="curve" smooth="yes"/>
      <point x="288" y="175"/>
      <point x="277" y="199"/>
      <point x="277" y="223" type="curve" smooth="yes"/>
      <point x="277" y="232" type="line" smooth="yes"/>
      <point x="277" y="339"/>
      <point x="376" y="337"/>
      <point x="438" y="415" type="curve" smooth="yes"/>
      <point x="467" y="450"/>
      <point x="480" y="491"/>
      <point x="480" y="532" type="curve" smooth="yes"/>
      <point x="480" y="645"/>
      <point x="405" y="718"/>
      <point x="277" y="714" type="curve" smooth="yes"/>
      <point x="171" y="711"/>
      <point x="80" y="655"/>
      <point x="80" y="526" type="curve" smooth="yes"/>
      <point x="80" y="476"/>
      <point x="111" y="386"/>
      <point x="214" y="389" type="curve"/>
    </contour>
  </outline>
</glyph>
<glyph name="at" format="2">
  <advance width="909"/>
  <unicode hex="0040"/>
  <outline>
    <component base="o" xScale="0.8791" yScale="0.8791" xOffset="215.711" yOffset="60.3484"/>
    <contour>
      <point x="625.932" y="500.057" type="move"/>
      <point x="625.932" y="111.501" type="line"/>
      <point x="626.043" y="83.3746"/>
      <point x="640.42" y="45.3282"/>
      <point x="679.351" y="45.3282" type="curve" smooth="yes"/>
      <point x="752.668" y="45.3282"/>
      <point x="814.918" y="160.825"/>
      <point x="813.732" y="301.714" type="curve" smooth="yes"/>
      <point x="811.768" y="534.874"/>
      <point x="659.121" y="668.458"/>
      <point x="462.854" y="668.458" type="curve" smooth="yes"/>
      <point x="265.993" y="668.458"/>
      <point x="95.4786" y="526.16"/>
      <point x="95.4786" y="285.396" type="curve" smooth="yes"/>
      <point x="95.4786" y="47.7636"/>
      <point x="249.996" y="-104.13"/>
      <point x="435.954" y="-104.13" type="curve" smooth="yes"/>
      <point x="455.431" y="-104.13"/>
      <point x="478.981" y="-102.397"/>
      <point x="503.436" y="-98.0353" type="curve"/>
    </contour>
  </outline>
</glyph>
<glyph name="A" format="2">
  <advance width="592"/>
  <unicode hex="0041"/>
  <outline>
    <contour>
      <point x="31.0233" y="-1.0233" type="move"/>
      <point x="41.2563" y="16.3728"/>
      <point x="50.466" y="33.7689"/>
      <point x="57.6291" y="52.1883" type="curve" smooth="yes"/>
      <point x="115.957" y="193.404"/>
      <point x="84.2349" y="352.015"/>
      <point x="110.841" y="502.44" type="curve" smooth="yes"/>
      <point x="130.283" y="610.91"/>
      <point x="187.588" y="714.263"/>
      <point x="296.058" y="714.263" type="curve" smooth="yes"/>
      <point x="404.528" y="714.263"/>
      <point x="462.856" y="610.91"/>
      <point x="481.275" y="502.44" type="curve" smooth="yes"/>
      <point x="507.881" y="352.015"/>
      <point x="477.182" y="193.404"/>
      <point x="534.487" y="52.1883" type="curve" smooth="yes"/>
      <point x="541.65" y="33.7689"/>
      <point x="550.86" y="16.3728"/>
      <point x="561.093" y="-1.0233" type="curve"/>
    </contour>
    <contour>
      <point x="57.6291" y="284.477" type="move"/>
      <point x="534.487" y="284.477" type="line"/>
    </contour>
  </outline>
</glyph>
<glyph name="B" format="2">
  <advance width="559"/>
  <unicode hex="0042"/>
  <outline>
    <contour>
      <point x="48.28" y="461.536" type="move"/>
      <point x="11.32" y="614.656"/>
      <point x="138.04" y="720.256"/>
      <point x="264.76" y="720.256" type="curve" smooth="yes"/>
      <point x="337.624" y="720.256"/>
      <point x="409.432" y="685.408"/>
      <point x="451.672" y="604.096" type="curve" smooth="yes"/>
      <point x="531.928" y="445.696"/>
      <point x="393.592" y="297.856"/>
      <point x="249.976" y="299.968" type="curve" smooth="yes"/>
      <point x="197.176" y="301.024"/>
      <point x="144.376" y="322.144"/>
      <point x="100.024" y="369.664" type="curve"/>
      <point x="100.024" y="372.832" type="line"/>
      <point x="148.6" y="428.8"/>
      <point x="210.904" y="453.088"/>
      <point x="272.152" y="454.144" type="curve" smooth="yes"/>
      <point x="413.656" y="456.256"/>
      <point x="551.992" y="332.704"/>
      <point x="523.48" y="174.304" type="curve" smooth="yes"/>
      <point x="512.92" y="113.056"/>
      <point x="443.224" y="29.632"/>
      <point x="350.296" y="-20"/>
      <point x="294.328" y="-20" type="qcurve" smooth="yes"/>
      <point x="243.64" y="-20"/>
      <point x="145.432" y="22.24"/>
      <point x="66.232" y="106.72"/>
      <point x="48.28" y="171.136" type="qcurve"/>
    </contour>
    <contour>
      <point x="44.056" y="43.36" type="move"/>
      <point x="39.9461" y="33.3787"/>
      <point x="43.0179" y="21.1124"/>
      <point x="50.186" y="12.1875" type="curve" smooth="yes"/>
      <point x="55.9102" y="5.06028"/>
      <point x="64.2466" y="0.0640001"/>
      <point x="73.624" y="0.0640001" type="curve" smooth="yes"/>
      <point x="82.6065" y="0.0640001"/>
      <point x="90.5307" y="5.1437"/>
      <point x="95.7859" y="12.3656" type="curve" smooth="yes"/>
      <point x="102.269" y="21.2751"/>
      <point x="104.69" y="33.445"/>
      <point x="100.024" y="43.36" type="curve"/>
      <point x="100.024" y="651.616" type="line"/>
    </contour>
  </outline>
</glyph>
<glyph name="C" format="2">
  <advance width="559"/>
  <unicode hex="0043"/>
  <outline>
    <contour>
      <point x="518.374" y="605.362" type="move"/>
      <point x="468.84" y="673.69"/>
      <point x="399.088" y="717.84"/>
      <point x="313.161" y="717.84" type="curve" smooth="yes"/>
      <point x="142.319" y="717.84"/>
      <point x="31.1199" y="541.238"/>
      <point x="31.1199" y="350.971" type="curve" smooth="yes"/>
      <point x="31.1199" y="159.653"/>
      <point x="142.319" y="-16.9488"/>
      <point x="313.161" y="-16.9488" type="curve" smooth="yes"/>
      <point x="399.088" y="-16.9488"/>
      <point x="468.84" y="27.2016"/>
      <point x="518.374" y="95.5296" type="curve"/>
    </contour>
  </outline>
</glyph>
<glyph name="D" format="2">
  <advance width="626"/>
  <unicode hex="0044"/>
  <outline>
    <contour>
      <point x="50" y="43" type="move"/>
      <point x="45.5442" y="32.6031"/>
      <point x="46.726" y="21.7161"/>
      <point x="51.8464" y="13.3726" type="curve" smooth="yes"/>
      <point x="57.0685" y="4.86353"/>
      <point x="66.387" y="-1"/>
      <point x="78" y="-1" type="curve" smooth="yes"/>
      <point x="89.2035" y="-1"/>
      <point x="98.5916" y="4.96468"/>
      <point x="103.919" y="13.5924" type="curve" smooth="yes"/>
      <point x="109.053" y="21.9068"/>
      <point x="110.417" y="32.6942"/>
      <point x="106" y="43" type="curve"/>
      <point x="106" y="690" type="line"/>
    </contour>
    <contour>
      <point x="49" y="403" type="move"/>
      <point x="10" y="567"/>
      <point x="136" y="719"/>
      <point x="308" y="719" type="curve" smooth="yes"/>
      <point x="483" y="719"/>
      <point x="593" y="544"/>
      <point x="595" y="359" type="curve" smooth="yes"/>
      <point x="597" y="171"/>
      <point x="521" y="34"/>
      <point x="359" y="-7" type="curve" smooth="yes"/>
      <point x="271" y="-29"/>
      <point x="161" y="-4"/>
      <point x="106" y="51" type="curve"/>
    </contour>
  </outline>
</glyph>
<glyph name="E" format="2">
  <advance width="604"/>
  <unicode hex="0045"/>
  <outline>
    <contour>
      <point x="535.344" y="714.53" type="move"/>
      <point x="508.358" y="601.399"/>
      <point x="372.393" y="555.731"/>
      <point x="284.172" y="630.46" type="curve" smooth="yes"/>
      <point x="246.807" y="661.597"/>
      <point x="221.898" y="714.53"/>
      <point x="172.079" y="714.53" type="curve" smooth="yes"/>
      <point x="111.88" y="714.53"/>
      <point x="84.895" y="643.953"/>
      <point x="89.0466" y="575.451" type="curve" smooth="yes"/>
      <point x="97.3498" y="409.387"/>
      <point x="183.495" y="249.551"/>
      <point x="144.055" y="87.6384" type="curve" smooth="yes"/>
      <point x="136.79" y="54.4256"/>
      <point x="120.184" y="22.2507"/>
      <point x="89.0466" y="17.0612" type="curve" smooth="yes"/>
      <point x="62.0612" y="12.9096"/>
      <point x="36.1137" y="31.5918"/>
      <point x="33" y="59.6151" type="curve" smooth="yes"/>
      <point x="18.4694" y="172.746"/>
      <point x="167.927" y="117.737"/>
      <point x="305.968" y="25.3644" type="curve" smooth="yes"/>
      <point x="396.265" y="-34.8338"/>
      <point x="526.002" y="6.68223"/>
      <point x="562.329" y="109.434" type="curve"/>
    </contour>
    <contour>
      <point x="77.6297" y="376.175" type="move"/>
      <point x="446.084" y="376.175" type="line"/>
    </contour>
  </outline>
</glyph>
<glyph name="F" format="2">
  <advance width="555"/>
  <unicode hex="0046"/>
  <outline>
    <contour>
      <point x="117.966" y="44.0062" type="move"/>
      <point x="110.585" y="32.0841"/>
      <point x="112.653" y="18.9023"/>
      <point x="119.976" y="10.226" type="curve" smooth="yes"/>
      <point x="125.853" y="3.262"/>
      <point x="135.116" y="-0.7993"/>
      <point x="145.597" y="1.0234" type="curve" smooth="yes"/>
      <point x="154.821" y="2.5606"/>
      <point x="161.479" y="8.45931"/>
      <point x="166.085" y="16.4073" type="curve" smooth="yes"/>
      <point x="170.678" y="24.3333"/>
      <point x="173.231" y="34.2973"/>
      <point x="174.253" y="44.0061" type="curve"/>
      <point x="199.838" y="227.195"/>
      <point x="40.1872" y="386.845"/>
      <point x="60.6552" y="571.057" type="curve" smooth="yes"/>
      <point x="69.8658" y="654.976"/>
      <point x="128.2" y="728.661"/>
      <point x="202.908" y="713.31" type="curve" smooth="yes"/>
      <point x="251.008" y="704.099"/>
      <point x="277.616" y="655.999"/>
      <point x="316.505" y="627.344" type="curve" smooth="yes"/>
      <point x="409.635" y="561.847"/>
      <point x="538.583" y="604.829"/>
      <point x="573.379" y="713.31" type="curve"/>
    </contour>
    <contour>
      <point x="40.1872" y="389.915" type="move"/>
      <point x="412.705" y="389.915" type="line"/>
    </contour>
  </outline>
</glyph>
<glyph name="G" format="2">
  <advance width="618"/>
  <unicode hex="0047"/>
  <outline>
    <contour>
      <point x="569" y="570.587" type="move"/>
      <point x="516" y="676.427"/>
      <point x="408" y="734.639"/>
      <point x="299" y="717.705" type="curve" smooth="yes"/>
      <point x="141" y="693.362"/>
      <point x="35" y="530.368"/>
      <point x="31" y="349.382" type="curve" smooth="yes"/>
      <point x="27" y="162.045"/>
      <point x="137" y="-9.41603"/>
      <point x="299" y="-17.8832" type="curve" smooth="yes"/>
      <point x="428" y="-25.292"/>
      <point x="552" y="78.4312"/>
      <point x="582" y="217.082" type="curve" smooth="yes"/>
      <point x="601" y="302.812"/>
      <point x="564" y="379.017"/>
      <point x="501" y="379.017" type="curve" smooth="yes"/>
      <point x="442" y="379.017"/>
      <point x="428" y="302.812"/>
      <point x="393" y="246.717" type="curve" smooth="yes"/>
      <point x="351" y="178.979"/>
      <point x="248" y="225.549"/>
      <point x="232" y="305.987" type="curve"/>
    </contour>
  </outline>
</glyph>
<glyph name="H" format="2">
  <advance width="594"/>
  <unicode hex="0048"/>
  <outline>
    <contour>
      <point x="47" y="44" type="move"/>
      <point x="39.6851" y="32.7463"/>
      <point x="41.8686" y="19.593"/>
      <point x="49.453" y="10.9535" type="curve" smooth="yes"/>
      <point x="55.3475" y="4.23884"/>
      <point x="64.5044" y="0.2507"/>
      <point x="75" y="2" type="curve"/>
      <point x="93" y="6"/>
      <point x="100" y="25"/>
      <point x="103" y="44" type="curve" smooth="yes"/>
      <point x="108.108" y="81.5832"/>
      <point x="105.761" y="118.9"/>
      <point x="100.718" y="156.145" type="curve" smooth="yes"/>
      <point x="91.9416" y="220.973"/>
      <point x="75" y="285.583"/>
      <point x="75" y="351" type="curve" smooth="yes"/>
      <point x="75" y="409.41"/>
      <point x="88.2483" y="466.559"/>
      <point x="97.3832" y="523.686" type="curve" smooth="yes"/>
      <point x="104.513" y="568.274"/>
      <point x="109.137" y="612.849"/>
      <point x="103" y="658" type="curve" smooth="yes"/>
      <point x="100" y="677"/>
      <point x="93" y="697"/>
      <point x="75" y="700" type="curve" smooth="yes"/>
      <point x="64.8951" y="701.684"/>
      <point x="56.0311" y="698.05"/>
      <point x="50.1247" y="691.785" type="curve" smooth="yes"/>
      <point x="42.0029" y="683.17"/>
      <point x="39.4735" y="669.579"/>
      <point x="47" y="658" type="curve"/>
    </contour>
    <contour>
      <point x="549" y="44" type="move"/>
      <point x="556.153" y="32.9956"/>
      <point x="554.223" y="20.1747"/>
      <point x="547.043" y="11.5341" type="curve" smooth="yes"/>
      <point x="541.173" y="4.4708"/>
      <point x="531.795" y="0.2009"/>
      <point x="521" y="2" type="curve"/>
      <point x="503" y="6"/>
      <point x="496" y="25"/>
      <point x="493" y="44" type="curve" smooth="yes"/>
      <point x="487.984" y="80.9063"/>
      <point x="490.157" y="117.556"/>
      <point x="495.012" y="154.133" type="curve" smooth="yes"/>
      <point x="503.706" y="219.636"/>
      <point x="521" y="284.906"/>
      <point x="521" y="351" type="curve" smooth="yes"/>
      <point x="521" y="412.187"/>
      <point x="506.462" y="471.989"/>
      <point x="497.344" y="531.832" type="curve" smooth="yes"/>
      <point x="490.964" y="573.705"/>
      <point x="487.237" y="615.598"/>
      <point x="493" y="658" type="curve" smooth="yes"/>
      <point x="496" y="677"/>
      <point x="503" y="697"/>
      <point x="521" y="700" type="curve" smooth="yes"/>
      <point x="531.105" y="701.684"/>
      <point x="539.969" y="698.05"/>
      <point x="545.876" y="691.784" type="curve" smooth="yes"/>
      <point x="553.997" y="683.169"/>
      <point x="556.526" y="669.579"/>
      <point x="549" y="658" type="curve"/>
    </contour>
    <contour>
      <point x="75" y="351" type="move"/>
      <point x="521" y="351" type="line"/>
    </contour>
  </outline>
</glyph>
<glyph name="I" format="2">
  <advance width="246"/>
  <unicode hex="0049"/>
  <outline>
    <contour>
      <point x="81" y="44" type="move"/>
      <point x="79" y="20"/>
      <point x="99" y="0"/>
      <point x="123" y="2" type="curve" smooth="yes"/>
      <point x="149" y="4"/>
      <point x="165" y="30"/>
      <point x="165" y="58" type="curve" smooth="yes"/>
      <point x="165" y="256"/>
      <point x="81" y="446"/>
      <point x="81" y="644" type="curve" smooth="yes"/>
      <point x="81" y="672"/>
      <point x="97" y="698"/>
      <point x="123" y="700" type="curve" smooth="yes"/>
      <point x="147" y="702"/>
      <point x="167" y="682"/>
      <point x="165" y="658" type="curve"/>
    </contour>
  </outline>
</glyph>
<glyph name="J" format="2">
  <advance width="546"/>
  <unicode hex="004A"/>
  <outline>
    <contour>
      <point x="66.4536" y="550.44" type="move"/>
      <point x="45.1767" y="572.884"/>
      <point x="38.7745" y="601.896"/>
      <point x="43.6615" y="628.324" type="curve" smooth="yes"/>
      <point x="50.5624" y="665.642"/>
      <point x="79.9735" y="697.807"/>
      <point x="121.8" y="699.05" type="curve" smooth="yes"/>
      <point x="148.706" y="699.873"/>
      <point x="185.888" y="679.815"/>
      <point x="222.044" y="660.123" type="curve" smooth="yes"/>
      <point x="279.192" y="628.999"/>
      <point x="333.777" y="598.791"/>
      <point x="341.173" y="653.405" type="curve" smooth="yes"/>
      <point x="345.199" y="684.189"/>
      <point x="361.299" y="699.05"/>
      <point x="381.425" y="699.05" type="curve" smooth="yes"/>
      <point x="409.602" y="699.05"/>
      <point x="423.69" y="685.25"/>
      <point x="426.709" y="653.405" type="curve"/>
      <point x="492.118" y="448.536"/>
      <point x="563.566" y="228.805"/>
      <point x="431.74" y="70.642" type="curve" smooth="yes"/>
      <point x="381.425" y="11.198"/>
      <point x="309.978" y="-19.5855"/>
      <point x="234.506" y="-19.5855" type="curve" smooth="yes"/>
      <point x="121.8" y="-19.5855"/>
      <point x="16.1386" y="85.503"/>
      <point x="46.3276" y="188.468" type="curve" smooth="yes"/>
      <point x="52.3654" y="209.698"/>
      <point x="66.4536" y="229.867"/>
      <point x="88.5922" y="231.99" type="curve"/>
      <point x="112.743" y="235.174"/>
      <point x="132.869" y="213.944"/>
      <point x="129.85" y="188.468" type="curve"/>
    </contour>
  </outline>
</glyph>
<glyph name="K" format="2">
  <advance width="674"/>
  <unicode hex="004B"/>
  <outline>
    <contour>
      <point x="545" y="700" type="move"/>
      <point x="592" y="536"/>
      <point x="465" y="373"/>
      <point x="294" y="379" type="curve" smooth="yes"/>
      <point x="203" y="382"/>
      <point x="99" y="387"/>
      <point x="99" y="309" type="curve"/>
    </contour>
    <contour>
      <point x="294" y="379" type="move"/>
      <point x="453" y="379"/>
      <point x="539" y="212"/>
      <point x="573" y="44" type="curve" smooth="yes"/>
      <point x="577" y="25"/>
      <point x="583" y="6"/>
      <point x="601" y="2" type="curve" smooth="yes"/>
      <point x="614.072" y="-0.7233"/>
      <point x="625.364" y="6.04617"/>
      <point x="630.675" y="16.0071" type="curve" smooth="yes"/>
      <point x="635.115" y="24.3348"/>
      <point x="635.375" y="34.8931"/>
      <point x="629" y="44" type="curve"/>
    </contour>
    <contour>
      <point x="43" y="44" type="move"/>
      <point x="38.5943" y="34.2096"/>
      <point x="39.9397" y="23.94"/>
      <point x="45.0421" y="16.0064" type="curve" smooth="yes"/>
      <point x="50.3629" y="7.73301"/>
      <point x="59.7694" y="2"/>
      <point x="71" y="2" type="curve" smooth="yes"/>
      <point x="80.1561" y="2"/>
      <point x="88.1716" y="6.18218"/>
      <point x="93.6374" y="12.5573" type="curve" smooth="yes"/>
      <point x="100.708" y="20.804"/>
      <point x="103.512" y="32.7201"/>
      <point x="99" y="44" type="curve"/>
      <point x="99" y="658" type="line"/>
      <point x="103.472" y="669.181"/>
      <point x="100.756" y="680.987"/>
      <point x="93.8223" y="689.225" type="curve" smooth="yes"/>
      <point x="88.3531" y="695.722"/>
      <point x="80.2599" y="700"/>
      <point x="71" y="700" type="curve" smooth="yes"/>
      <point x="60.7032" y="700"/>
      <point x="51.9399" y="695.181"/>
      <point x="46.4528" y="688.003" type="curve" smooth="yes"/>
      <point x="40.2163" y="679.845"/>
      <point x="38.2123" y="668.639"/>
      <point x="43" y="658" type="curve"/>
    </contour>
  </outline>
</glyph>
<glyph name="L" format="2">
  <advance width="626"/>
  <unicode hex="004C"/>
  <outline>
    <contour>
      <point x="228.667" y="660.964" type="move"/>
      <point x="223.572" y="688.474"/>
      <point x="196.062" y="715.984"/>
      <point x="166.514" y="715.984" type="curve" smooth="yes"/>
      <point x="104.361" y="715.984"/>
      <point x="83.9828" y="658.926"/>
      <point x="88.0584" y="588.622" type="curve" smooth="yes"/>
      <point x="97.2285" y="419.484"/>
      <point x="185.873" y="254.423"/>
      <point x="145.117" y="89.3608" type="curve"/>
      <point x="137.985" y="54.7182"/>
      <point x="121.682" y="22.1134"/>
      <point x="89.0773" y="17.0189" type="curve" smooth="yes"/>
      <point x="61.567" y="12.9433"/>
      <point x="35.0756" y="31.2835"/>
      <point x="32.0189" y="59.8127" type="curve" smooth="yes"/>
      <point x="16.7354" y="175.967"/>
      <point x="169.57" y="119.928"/>
      <point x="311.198" y="25.1701" type="curve" smooth="yes"/>
      <point x="403.917" y="-35.9639"/>
      <point x="536.374" y="5.81099"/>
      <point x="573.055" y="110.758" type="curve"/>
    </contour>
  </outline>
</glyph>
<glyph name="M" format="2">
  <advance width="744"/>
  <unicode hex="004D"/>
  <outline>
    <contour>
      <point x="41.8954" y="32.159" type="move"/>
      <point x="38.6848" y="7.5444"/>
      <point x="60.0888" y="-13.8596"/>
      <point x="84.7034" y="-10.649" type="curve" smooth="yes"/>
      <point x="106.107" y="-7.4384"/>
      <point x="120.02" y="11.8252"/>
      <point x="127.511" y="32.159" type="curve"/>
      <point x="207.776" y="230.146"/>
      <point x="-14.8252" y="442.046"/>
      <point x="84.7034" y="635.752" type="curve" smooth="yes"/>
      <point x="105.037" y="675.349"/>
      <point x="141.424" y="708.525"/>
      <point x="185.302" y="707.455" type="curve" smooth="yes"/>
      <point x="229.18" y="706.385"/>
      <point x="263.427" y="673.209"/>
      <point x="285.901" y="635.752" type="curve" smooth="yes"/>
      <point x="361.885" y="508.398"/>
      <point x="328.709" y="352.149"/>
      <point x="328.709" y="204.461" type="curve" smooth="yes"/>
      <point x="328.709" y="169.145"/>
      <point x="341.551" y="132.758"/>
      <point x="371.517" y="132.758" type="curve" smooth="yes"/>
      <point x="402.553" y="132.758"/>
      <point x="415.395" y="169.145"/>
      <point x="415.395" y="204.461" type="curve" smooth="yes"/>
      <point x="415.395" y="352.149"/>
      <point x="382.219" y="508.398"/>
      <point x="458.203" y="635.752" type="curve" smooth="yes"/>
      <point x="480.677" y="673.209"/>
      <point x="514.924" y="706.385"/>
      <point x="558.802" y="707.455" type="curve" smooth="yes"/>
      <point x="602.68" y="708.525"/>
      <point x="637.997" y="675.349"/>
      <point x="659.401" y="635.752" type="curve" smooth="yes"/>
      <point x="757.859" y="442.046"/>
      <point x="536.328" y="230.146"/>
      <point x="615.523" y="32.159" type="curve" smooth="yes"/>
      <point x="624.084" y="11.8252"/>
      <point x="637.997" y="-7.4384"/>
      <point x="659.401" y="-10.649" type="curve" smooth="yes"/>
      <point x="684.015" y="-13.8596"/>
      <point x="705.419" y="7.5444"/>
      <point x="702.209" y="32.159" type="curve"/>
    </contour>
  </outline>
</glyph>
<glyph name="N" format="2">
  <advance width="654"/>
  <unicode hex="004E"/>
  <outline>
    <contour>
      <point x="34.6452" y="42.3968" type="move"/>
      <point x="31.1475" y="17.3696"/>
      <point x="54.4655" y="-4.5292"/>
      <point x="83.613" y="-1.4008" type="curve" smooth="yes"/>
      <point x="108.097" y="1.7276"/>
      <point x="122.088" y="21.5408"/>
      <point x="132.581" y="42.3968" type="curve"/>
      <point x="224.687" y="240.529"/>
      <point x="18.3226" y="433.447"/>
      <point x="83.613" y="636.793" type="curve" smooth="yes"/>
      <point x="96.4379" y="675.376"/>
      <point x="123.254" y="710.832"/>
      <point x="165.226" y="709.789" type="curve" smooth="yes"/>
      <point x="206.032" y="708.746"/>
      <point x="229.35" y="673.291"/>
      <point x="245.673" y="636.793" type="curve" smooth="yes"/>
      <point x="327.286" y="450.132"/>
      <point x="327.286" y="249.914"/>
      <point x="408.899" y="63.2528" type="curve" smooth="yes"/>
      <point x="425.222" y="26.7548"/>
      <point x="448.54" y="-8.7004"/>
      <point x="490.512" y="-9.7432" type="curve" smooth="yes"/>
      <point x="532.484" y="-10.786"/>
      <point x="559.3" y="24.6692"/>
      <point x="572.125" y="63.2528" type="curve" smooth="yes"/>
      <point x="637.415" y="266.599"/>
      <point x="431.051" y="461.602"/>
      <point x="523.157" y="659.734" type="curve" smooth="yes"/>
      <point x="532.484" y="680.59"/>
      <point x="547.641" y="700.404"/>
      <point x="572.125" y="703.532" type="curve" smooth="yes"/>
      <point x="600.107" y="706.66"/>
      <point x="624.591" y="684.762"/>
      <point x="619.927" y="659.734" type="curve"/>
    </contour>
  </outline>
</glyph>
<glyph name="O" format="2">
  <advance width="593"/>
  <unicode hex="004F"/>
  <outline>
    <contour>
      <point x="29.505" y="351.251" type="curve" smooth="yes"/>
      <point x="29.505" y="160.825"/>
      <point x="134.555" y="-14.9537"/>
      <point x="295.95" y="-14.9537" type="curve" smooth="yes"/>
      <point x="457.345" y="-14.9537"/>
      <point x="563.35" y="160.825"/>
      <point x="563.35" y="351.251" type="curve" smooth="yes"/>
      <point x="563.35" y="540.632"/>
      <point x="457.345" y="716.41"/>
      <point x="295.95" y="716.41" type="curve" smooth="yes"/>
      <point x="134.555" y="716.41"/>
      <point x="29.505" y="540.632"/>
    </contour>
  </outline>
</glyph>
<glyph name="P" format="2">
  <advance width="594"/>
  <unicode hex="0050"/>
  <outline>
    <contour>
      <point x="55.3396" y="42.132" type="move"/>
      <point x="50.8817" y="31.5445"/>
      <point x="53.0671" y="19.7491"/>
      <point x="59.4413" y="11.164" type="curve" smooth="yes"/>
      <point x="64.8297" y="3.90661"/>
      <point x="73.2114" y="-1.0566"/>
      <point x="83.1037" y="-1.0566" type="curve" smooth="yes"/>
      <point x="92.5329" y="-1.0566"/>
      <point x="100.786" y="3.45278"/>
      <point x="106.407" y="10.1601" type="curve" smooth="yes"/>
      <point x="113.659" y="18.8135"/>
      <point x="116.531" y="31.1255"/>
      <point x="111.896" y="42.132" type="curve"/>
      <point x="111.896" y="675.565" type="line"/>
    </contour>
    <contour>
      <point x="58.4245" y="373.245" type="move"/>
      <point x="-11.4999" y="564.508"/>
      <point x="141.717" y="718.753"/>
      <point x="301.103" y="720.81" type="curve" smooth="yes"/>
      <point x="376.169" y="721.838"/>
      <point x="453.292" y="689.961"/>
      <point x="509.848" y="611.81" type="curve" smooth="yes"/>
      <point x="547.895" y="558.339"/>
      <point x="563.32" y="503.839"/>
      <point x="562.292" y="451.395" type="curve" smooth="yes"/>
      <point x="560.235" y="312.575"/>
      <point x="436.839" y="195.349"/>
      <point x="301.103" y="190.207" type="curve" smooth="yes"/>
      <point x="237.349" y="188.151"/>
      <point x="170.509" y="210.773"/>
      <point x="111.896" y="267.33" type="curve"/>
    </contour>
  </outline>
</glyph>
<glyph name="Q" format="2">
  <advance width="659"/>
  <unicode hex="0051"/>
  <outline>
    <contour>
      <point x="30" y="349" type="curve" smooth="yes"/>
      <point x="30" y="155"/>
      <point x="149" y="-25"/>
      <point x="329" y="-25" type="curve" smooth="yes"/>
      <point x="509" y="-25"/>
      <point x="628" y="155"/>
      <point x="628" y="349" type="curve" smooth="yes"/>
      <point x="628" y="543"/>
      <point x="509" y="722"/>
      <point x="329" y="722" type="curve" smooth="yes"/>
      <point x="149" y="722"/>
      <point x="30" y="543"/>
    </contour>
    <contour>
      <point x="210" y="274" type="move"/>
      <point x="249" y="274"/>
      <point x="284" y="250"/>
      <point x="299" y="214" type="curve" smooth="yes"/>
      <point x="358" y="74"/>
      <point x="156" y="20"/>
      <point x="60" y="-85" type="curve" smooth="yes"/>
      <point x="30" y="-117"/>
      <point x="28" y="-164"/>
      <point x="60" y="-174" type="curve" smooth="yes"/>
      <point x="83" y="-181"/>
      <point x="101" y="-159"/>
      <point x="120" y="-144" type="curve" smooth="yes"/>
      <point x="206" y="-75"/>
      <point x="314" y="-166"/>
      <point x="419" y="-174" type="curve" smooth="yes"/>
      <point x="515" y="-182"/>
      <point x="604" y="-119"/>
      <point x="628" y="-25" type="curve"/>
    </contour>
  </outline>
</glyph>
<glyph name="R" format="2">
  <advance width="585"/>
  <unicode hex="0052"/>
  <outline>
    <contour>
      <point x="64" y="43.092" type="move"/>
      <point x="59.3693" y="31.6959"/>
      <point x="62.1179" y="19.6682"/>
      <point x="69.2226" y="11.2102" type="curve" smooth="yes"/>
      <point x="74.9358" y="4.40896"/>
      <point x="83.4657" y="-0.0840001"/>
      <point x="93.2404" y="-0.0840001" type="curve" smooth="yes"/>
      <point x="103.015" y="-0.0840001"/>
      <point x="111.13" y="4.40869"/>
      <point x="116.383" y="11.2096" type="curve" smooth="yes"/>
      <point x="122.916" y="19.6676"/>
      <point x="125.023" y="31.6956"/>
      <point x="120.392" y="43.092" type="curve"/>
      <point x="120.392" y="688.676" type="line"/>
    </contour>
    <contour>
      <point x="67.1329" y="467.656" type="move"/>
      <point x="36.8482" y="623.912"/>
      <point x="167.386" y="728.768"/>
      <point x="294.79" y="722.6" type="curve" smooth="yes"/>
      <point x="361.625" y="719.516"/>
      <point x="427.416" y="686.62"/>
      <point x="470.233" y="613.632" type="curve" smooth="yes"/>
      <point x="493.207" y="574.568"/>
      <point x="502.606" y="536.532"/>
      <point x="502.606" y="499.524" type="curve" smooth="yes"/>
      <point x="501.562" y="386.444"/>
      <point x="402.353" y="291.868"/>
      <point x="290.613" y="283.644" type="curve" smooth="yes"/>
      <point x="233.177" y="279.532"/>
      <point x="172.607" y="298.036"/>
      <point x="120.392" y="348.408" type="curve"/>
      <point x="497.384" y="44.12" type="line"/>
      <point x="493.402" y="33.4812"/>
      <point x="495.617" y="22.5374"/>
      <point x="501.835" y="14.7772" type="curve" smooth="yes"/>
      <point x="507.032" y="8.29033"/>
      <point x="515.026" y="4.02801"/>
      <point x="524.536" y="4.02801" type="curve" smooth="yes"/>
      <point x="536.257" y="4.02801"/>
      <point x="545.676" y="10.5029"/>
      <point x="550.393" y="19.6374" type="curve" smooth="yes"/>
      <point x="554.082" y="26.7801"/>
      <point x="554.896" y="35.549"/>
      <point x="551.688" y="44.12" type="curve"/>
    </contour>
  </outline>
</glyph>
<glyph name="S" format="2">
  <advance width="582"/>
  <unicode hex="0053"/>
  <outline>
    <contour>
      <point x="538.461" y="497.354" type="move"/>
      <point x="513.27" y="617.008"/>
      <point x="412.509" y="706.224"/>
      <point x="290.755" y="716.72" type="curve" smooth="yes"/>
      <point x="171.101" y="727.216"/>
      <point x="61.9424" y="649.546"/>
      <point x="71.3888" y="541.437" type="curve" smooth="yes"/>
      <point x="92.3808" y="306.326"/>
      <point x="479.683" y="418.634"/>
      <point x="538.461" y="220.259" type="curve" smooth="yes"/>
      <point x="578.346" y="89.0592"/>
      <point x="446.096" y="-31.6448"/>
      <point x="290.755" y="-13.8016" type="curve" smooth="yes"/>
      <point x="170.051" y="-0.156804"/>
      <point x="70.3392" y="86.96"/>
      <point x="42" y="205.565" type="curve"/>
    </contour>
  </outline>
</glyph>
<glyph name="T" format="2">
  <advance width="708"/>
  <unicode hex="0054"/>
  <outline>
    <contour>
      <point x="21" y="637" type="move"/>
      <point x="26" y="652"/>
      <point x="35" y="665"/>
      <point x="47" y="675" type="curve" smooth="yes"/>
      <point x="137" y="753"/>
      <point x="247" y="637"/>
      <point x="354" y="637" type="curve" smooth="yes"/>
      <point x="461" y="637"/>
      <point x="572" y="753"/>
      <point x="661" y="675" type="curve" smooth="yes"/>
      <point x="673" y="665"/>
      <point x="682" y="652"/>
      <point x="687" y="637" type="curve"/>
    </contour>
    <contour>
      <point x="354" y="636" type="move"/>
      <point x="354" y="0" type="line"/>
    </contour>
  </outline>
</glyph>
<glyph name="U" format="2">
  <advance width="639"/>
  <unicode hex="0055"/>
  <outline>
    <contour>
      <point x="64.0602" y="655.504" type="move"/>
      <point x="57.5696" y="666.322"/>
      <point x="59.2826" y="678.554"/>
      <point x="65.7964" y="687.318" type="curve" smooth="yes"/>
      <point x="71.7373" y="695.312"/>
      <point x="81.6716" y="700.42"/>
      <point x="93.0178" y="698.94" type="curve" smooth="yes"/>
      <point x="100.52" y="698.107"/>
      <point x="106.678" y="694.25"/>
      <point x="111.358" y="688.587" type="curve" smooth="yes"/>
      <point x="118.289" y="680.2"/>
      <point x="121.975" y="667.852"/>
      <point x="121.975" y="655.504" type="curve" smooth="yes"/>
      <point x="121.975" y="472.45"/>
      <point x="9.24763" y="292.499"/>
      <point x="93.0178" y="122.891" type="curve" smooth="yes"/>
      <point x="144.728" y="18.4364"/>
      <point x="227.464" y="-32.2394"/>
      <point x="346.397" y="-20.8632" type="curve" smooth="yes"/>
      <point x="442.577" y="-12.5896"/>
      <point x="512.903" y="37.052"/>
      <point x="555.305" y="122.891" type="curve" smooth="yes"/>
      <point x="640.11" y="292.499"/>
      <point x="512.903" y="472.45"/>
      <point x="512.903" y="655.504" type="curve" smooth="yes"/>
      <point x="512.903" y="669.405"/>
      <point x="518.155" y="682.201"/>
      <point x="526.372" y="690.461" type="curve" smooth="yes"/>
      <point x="534.049" y="698.178"/>
      <point x="544.315" y="701.937"/>
      <point x="555.305" y="698.94" type="curve" smooth="yes"/>
      <point x="561.956" y="697.19"/>
      <point x="567.185" y="693.426"/>
      <point x="570.711" y="688.61" type="curve" smooth="yes"/>
      <point x="577.604" y="679.197"/>
      <point x="577.994" y="665.766"/>
      <point x="569.784" y="655.504" type="curve"/>
    </contour>
  </outline>
</glyph>
<glyph name="V" format="2">
  <advance width="625"/>
  <unicode hex="0056"/>
  <outline>
    <contour>
      <point x="33" y="658" type="move"/>
      <point x="28.3968" y="668.229"/>
      <point x="30.0719" y="678.982"/>
      <point x="35.7508" y="687.046" type="curve" smooth="yes"/>
      <point x="41.1751" y="694.749"/>
      <point x="50.2522" y="700"/>
      <point x="61" y="700" type="curve" smooth="yes"/>
      <point x="69.9508" y="700"/>
      <point x="77.8117" y="696.003"/>
      <point x="83.266" y="689.868" type="curve" smooth="yes"/>
      <point x="90.6085" y="681.609"/>
      <point x="93.5902" y="669.475"/>
      <point x="89" y="658" type="curve"/>
      <point x="270" y="43" type="line"/>
      <point x="270" y="20"/>
      <point x="289" y="1"/>
      <point x="312" y="1" type="curve" smooth="yes"/>
      <point x="335" y="1"/>
      <point x="354" y="20"/>
      <point x="354" y="43" type="curve"/>
      <point x="536" y="658" type="line"/>
      <point x="531.026" y="669.053"/>
      <point x="533.382" y="680.717"/>
      <point x="540.199" y="688.941" type="curve" smooth="yes"/>
      <point x="545.718" y="695.597"/>
      <point x="554.158" y="700"/>
      <point x="564" y="700" type="curve" smooth="yes"/>
      <point x="575.224" y="700"/>
      <point x="584.735" y="693.715"/>
      <point x="589.935" y="684.81" type="curve" smooth="yes"/>
      <point x="594.464" y="677.054"/>
      <point x="595.724" y="667.31"/>
      <point x="592" y="658" type="curve"/>
    </contour>
  </outline>
</glyph>
<glyph name="W" format="2">
  <advance width="792"/>
  <unicode hex="0057"/>
  <outline>
    <contour>
      <point x="761" y="664" type="move"/>
      <point x="764" y="688"/>
      <point x="743" y="711"/>
      <point x="718" y="707" type="curve" smooth="yes"/>
      <point x="697" y="704"/>
      <point x="683" y="684"/>
      <point x="675" y="664" type="curve" smooth="yes"/>
      <point x="595" y="466"/>
      <point x="798" y="254"/>
      <point x="698" y="60" type="curve" smooth="yes"/>
      <point x="678" y="21"/>
      <point x="642" y="-13"/>
      <point x="598" y="-11" type="curve" smooth="yes"/>
      <point x="554" y="-10"/>
      <point x="519" y="23"/>
      <point x="497" y="60" type="curve" smooth="yes"/>
      <point x="420" y="188"/>
      <point x="454" y="344"/>
      <point x="454" y="492" type="curve" smooth="yes"/>
      <point x="454" y="527"/>
      <point x="431" y="563"/>
      <point x="401" y="563" type="curve" smooth="yes"/>
      <point x="370" y="563"/>
      <point x="348" y="527"/>
      <point x="348" y="492" type="curve" smooth="yes"/>
      <point x="348" y="344"/>
      <point x="382" y="188"/>
      <point x="305" y="60" type="curve" smooth="yes"/>
      <point x="283" y="23"/>
      <point x="248" y="-10"/>
      <point x="204" y="-11" type="curve" smooth="yes"/>
      <point x="160" y="-13"/>
      <point x="124" y="21"/>
      <point x="104" y="60" type="curve" smooth="yes"/>
      <point x="4" y="254"/>
      <point x="207" y="466"/>
      <point x="127" y="664" type="curve" smooth="yes"/>
      <point x="119" y="684"/>
      <point x="105" y="704"/>
      <point x="84" y="707" type="curve" smooth="yes"/>
      <point x="59" y="711"/>
      <point x="38" y="688"/>
      <point x="41" y="664" type="curve"/>
    </contour>
  </outline>
</glyph>
<glyph name="X" format="2">
  <advance width="554"/>
  <unicode hex="0058"/>
  <outline>
    <contour>
      <point x="26" y="658" type="move"/>
      <point x="18.533" y="668.667"/>
      <point x="20.169" y="681.326"/>
      <point x="26.9632" y="690.058" type="curve" smooth="yes"/>
      <point x="32.9076" y="697.698"/>
      <point x="42.8005" y="702.333"/>
      <point x="54" y="700" type="curve"/>
      <point x="60.583" y="698.838"/>
      <point x="65.6665" y="695.127"/>
      <point x="69.5988" y="689.913" type="curve" smooth="yes"/>
      <point x="75.8215" y="681.661"/>
      <point x="79.1617" y="669.643"/>
      <point x="81" y="658" type="curve" smooth="yes"/>
      <point x="107" y="514"/>
      <point x="143" y="351"/>
      <point x="277" y="351" type="curve" smooth="yes"/>
      <point x="410" y="351"/>
      <point x="446" y="514"/>
      <point x="472" y="658" type="curve" smooth="yes"/>
      <point x="473.838" y="669.643"/>
      <point x="477.179" y="681.661"/>
      <point x="483.632" y="689.913" type="curve" smooth="yes"/>
      <point x="487.709" y="695.128"/>
      <point x="493.03" y="698.838"/>
      <point x="500" y="700" type="curve"/>
      <point x="512.38" y="702.579"/>
      <point x="522.897" y="696.644"/>
      <point x="528.395" y="687.547" type="curve" smooth="yes"/>
      <point x="533.556" y="679.008"/>
      <point x="534.294" y="667.683"/>
      <point x="528" y="658" type="curve"/>
    </contour>
    <contour>
      <point x="26" y="44" type="move"/>
      <point x="19" y="34"/>
      <point x="20" y="22.5006"/>
      <point x="25.7492" y="14" type="curve" smooth="yes"/>
      <point x="31.499" y="5.49933"/>
      <point x="42" y="-0.0012002"/>
      <point x="54" y="1.9988" type="curve"/>
      <point x="62.3575" y="3.9653"/>
      <point x="68.2982" y="9.55711"/>
      <point x="72.5348" y="16.992" type="curve" smooth="yes"/>
      <point x="76.9159" y="24.6803"/>
      <point x="79.4748" y="34.3396"/>
      <point x="81" y="43.9988" type="curve" smooth="yes"/>
      <point x="110" y="217.999"/>
      <point x="115" y="428.999"/>
      <point x="277" y="428.999" type="curve" smooth="yes"/>
      <point x="438" y="428.999"/>
      <point x="444" y="217.999"/>
      <point x="472" y="43.9988" type="curve" smooth="yes"/>
      <point x="473.525" y="34.3399"/>
      <point x="476.084" y="24.6809"/>
      <point x="480.596" y="16.9927" type="curve" smooth="yes"/>
      <point x="484.96" y="9.55745"/>
      <point x="491.151" y="3.96536"/>
      <point x="500" y="1.99886" type="curve"/>
      <point x="511.848" y="0.024259"/>
      <point x="521.99" y="5.36065"/>
      <point x="527.659" y="13.6771" type="curve" smooth="yes"/>
      <point x="533.473" y="22.2071"/>
      <point x="534.582" y="33.8721"/>
      <point x="528" y="43.9989" type="curve"/>
    </contour>
  </outline>
</glyph>
<glyph name="Y" format="2">
  <advance width="676"/>
  <unicode hex="0059"/>
  <outline>
    <contour>
      <point x="87" y="658" type="move"/>
      <point x="80.9026" y="668.162"/>
      <point x="82.2925" y="679.616"/>
      <point x="88.1524" y="688.031" type="curve" smooth="yes"/>
      <point x="93.8251" y="696.177"/>
      <point x="103.687" y="701.476"/>
      <point x="115" y="700" type="curve" smooth="yes"/>
      <point x="122.294" y="699.189"/>
      <point x="128.11" y="695.423"/>
      <point x="132.449" y="689.899" type="curve" smooth="yes"/>
      <point x="138.816" y="681.791"/>
      <point x="142" y="669.895"/>
      <point x="142" y="658" type="curve" smooth="yes"/>
      <point x="142" y="616.14"/>
      <point x="128.945" y="575.998"/>
      <point x="115.152" y="536.221" type="curve" smooth="yes"/>
      <point x="95.6649" y="480.023"/>
      <point x="74.7035" y="424.555"/>
      <point x="87" y="366" type="curve" smooth="yes"/>
      <point x="109" y="257"/>
      <point x="222" y="198"/>
      <point x="338" y="198" type="curve" smooth="yes"/>
      <point x="453" y="198"/>
      <point x="566" y="257"/>
      <point x="588" y="366" type="curve" smooth="yes"/>
      <point x="600.297" y="424.555"/>
      <point x="579.335" y="480.024"/>
      <point x="559.848" y="536.221" type="curve" smooth="yes"/>
      <point x="546.055" y="575.998"/>
      <point x="533" y="616.14"/>
      <point x="533" y="658" type="curve" smooth="yes"/>
      <point x="533" y="671.474"/>
      <point x="538.102" y="683.873"/>
      <point x="546.081" y="691.858" type="curve" smooth="yes"/>
      <point x="553.498" y="699.282"/>
      <point x="563.401" y="702.891"/>
      <point x="574" y="700" type="curve" smooth="yes"/>
      <point x="581.643" y="697.989"/>
      <point x="587.345" y="693.226"/>
      <point x="590.648" y="687.275" type="curve" smooth="yes"/>
      <point x="595.557" y="678.432"/>
      <point x="595.173" y="666.966"/>
      <point x="588" y="658" type="curve"/>
    </contour>
    <contour>
      <point x="591" y="421" type="move"/>
      <point x="591" y="368.906"/>
      <point x="610.729" y="314.457"/>
      <point x="626.538" y="260.208" type="curve" smooth="yes"/>
      <point x="639.863" y="214.486"/>
      <point x="650.403" y="168.906"/>
      <point x="644" y="125" type="curve" smooth="yes"/>
      <point x="632" y="40"/>
      <point x="560" y="-27"/>
      <point x="477" y="-18" type="curve" smooth="yes"/>
      <point x="414" y="-11"/>
      <point x="367" y="41"/>
      <point x="310" y="66" type="curve" smooth="yes"/>
      <point x="209" y="110"/>
      <point x="91" y="93"/>
      <point x="31" y="0" type="curve"/>
    </contour>
  </outline>
</glyph>
<glyph name="Z" format="2">
  <advance width="634"/>
  <unicode hex="005A"/>
  <outline>
    <contour>
      <point x="73" y="658" type="move"/>
      <point x="70.8565" y="668.717"/>
      <point x="73.6751" y="678.883"/>
      <point x="79.5649" y="686.607" type="curve" smooth="yes"/>
      <point x="87.414" y="696.901"/>
      <point x="100.717" y="702.857"/>
      <point x="115" y="700" type="curve" smooth="yes"/>
      <point x="135" y="696"/>
      <point x="145" y="676"/>
      <point x="157" y="658" type="curve" smooth="yes"/>
      <point x="238" y="531"/>
      <point x="423" y="531"/>
      <point x="505" y="658" type="curve" smooth="yes"/>
      <point x="516" y="676"/>
      <point x="527" y="696"/>
      <point x="547" y="700" type="curve" smooth="yes"/>
      <point x="572" y="705"/>
      <point x="594" y="683"/>
      <point x="589" y="658" type="curve"/>
      <point x="31" y="45" type="line"/>
      <point x="26" y="20"/>
      <point x="48" y="-2"/>
      <point x="73" y="3" type="curve" smooth="yes"/>
      <point x="93" y="7"/>
      <point x="104" y="27"/>
      <point x="115" y="45" type="curve" smooth="yes"/>
      <point x="208" y="194"/>
      <point x="426" y="194"/>
      <point x="519" y="45" type="curve" smooth="yes"/>
      <point x="530" y="27"/>
      <point x="541" y="7"/>
      <point x="561" y="3" type="curve" smooth="yes"/>
      <point x="572.4" y="0.7199"/>
      <point x="582.969" y="4.05451"/>
      <point x="590.714" y="10.7279" type="curve" smooth="yes"/>
      <point x="599.954" y="18.6886"/>
      <point x="605.176" y="31.4004"/>
      <point x="603" y="45" type="curve"/>
    </contour>
  </outline>
</glyph>
<glyph name="underscore" format="2">
  <advance width="541"/>
  <unicode hex="005F"/>
  <outline>
    <contour>
      <point x="520.625" y="0" type="move"/>
      <point x="20.8141" y="0" type="line"/>
    </contour>
  </outline>
</glyph>
<glyph name="grave" format="2">
  <advance width="281"/>
  <unicode hex="0060"/>
  <outline>
    <contour>
      <point x="261" y="585" type="move"/>
      <point x="19" y="689" type="line"/>
    </contour>
  </outline>
</glyph>
<glyph name="a" format="2">
  <advance width="523"/>
  <unicode hex="0061"/>
  <outline>
    <contour>
      <point x="55" y="378" type="move"/>
      <point x="76" y="459"/>
      <point x="149" y="516"/>
      <point x="233" y="515" type="curve" smooth="yes"/>
      <point x="344" y="514"/>
      <point x="430" y="420"/>
      <point x="421" y="310" type="curve"/>
      <point x="421" y="53" type="line"/>
      <point x="414.913" y="37.7817"/>
      <point x="419.201" y="21.8223"/>
      <point x="429.579" y="11.6632" type="curve" smooth="yes"/>
      <point x="436.249" y="5.13344"/>
      <point x="445.436" y="1"/>
      <point x="456" y="1" type="curve" smooth="yes"/>
      <point x="468.639" y="1"/>
      <point x="479.387" y="7.38015"/>
      <point x="485.948" y="16.8093" type="curve" smooth="yes"/>
      <point x="492.883" y="26.7773"/>
      <point x="495.139" y="40.1527"/>
      <point x="490" y="53" type="curve"/>
    </contour>
    <contour>
      <point x="421" y="310" type="move"/>
      <point x="421" y="95"/>
      <point x="111" y="287"/>
      <point x="45" y="173" type="curve" smooth="yes"/>
      <point x="-9" y="81"/>
      <point x="95" y="-35"/>
      <point x="233" y="-9" type="curve" smooth="yes"/>
      <point x="326" y="9"/>
      <point x="400" y="80"/>
      <point x="421" y="173" type="curve"/>
    </contour>
  </outline>
</glyph>
<glyph name="b" format="2">
  <advance width="536"/>
  <unicode hex="0062"/>
  <outline>
    <contour>
      <point x="97.312" y="292.112" type="curve" smooth="yes"/>
      <point x="114.016" y="413.68"/>
      <point x="200.32" y="518.544"/>
      <point x="314.464" y="509.264" type="curve" smooth="yes"/>
      <point x="428.608" y="499.056"/>
      <point x="495.424" y="382.128"/>
      <point x="497.28" y="259.632" type="curve" smooth="yes"/>
      <point x="500.064" y="131.568"/>
      <point x="432.32" y="6.288"/>
      <point x="314.464" y="-3.92" type="curve" smooth="yes"/>
      <point x="172.48" y="-15.984"/>
      <point x="75.04" y="134.352"/>
    </contour>
    <contour>
      <point x="94" y="-1" type="move"/>
      <point x="94" y="646" type="line"/>
      <point x="99.8126" y="660.532"/>
      <point x="96.165" y="676.077"/>
      <point x="86.7884" y="686.548" type="curve" smooth="yes"/>
      <point x="80.0337" y="694.091"/>
      <point x="70.3059" y="699"/>
      <point x="59" y="699" type="curve" smooth="yes"/>
      <point x="47.0052" y="699"/>
      <point x="36.5893" y="693.474"/>
      <point x="29.6811" y="685.14" type="curve" smooth="yes"/>
      <point x="21.0392" y="674.714"/>
      <point x="17.8868" y="659.894"/>
      <point x="24" y="646" type="curve"/>
    </contour>
  </outline>
</glyph>
<glyph name="c" format="2">
  <advance width="482"/>
  <unicode hex="0063"/>
  <outline>
    <contour>
      <point x="421" y="433" type="move"/>
      <point x="384" y="482"/>
      <point x="332" y="513"/>
      <point x="269" y="513" type="curve" smooth="yes"/>
      <point x="143" y="513"/>
      <point x="60" y="387"/>
      <point x="60" y="252" type="curve" smooth="yes"/>
      <point x="60" y="116"/>
      <point x="143" y="-10"/>
      <point x="269" y="-10" type="curve" smooth="yes"/>
      <point x="332" y="-10"/>
      <point x="384" y="22"/>
      <point x="421" y="70" type="curve"/>
    </contour>
  </outline>
</glyph>
<glyph name="d" format="2">
  <advance width="536"/>
  <unicode hex="0064"/>
  <outline>
    <contour>
      <point x="438.688" y="292.112" type="curve" smooth="yes"/>
      <point x="421.984" y="413.68"/>
      <point x="335.68" y="518.544"/>
      <point x="221.536" y="509.264" type="curve" smooth="yes"/>
      <point x="107.392" y="499.056"/>
      <point x="40.576" y="382.128"/>
      <point x="38.72" y="259.632" type="curve" smooth="yes"/>
      <point x="35.936" y="131.568"/>
      <point x="103.68" y="6.288"/>
      <point x="221.536" y="-3.92" type="curve" smooth="yes"/>
      <point x="363.52" y="-15.984"/>
      <point x="460.96" y="134.352"/>
    </contour>
    <contour>
      <point x="512" y="52" type="move"/>
      <point x="517.715" y="39.0106"/>
      <point x="515.332" y="25.2113"/>
      <point x="507.935" y="14.9503" type="curve" smooth="yes"/>
      <point x="501.096" y="5.46258"/>
      <point x="489.971" y="-1"/>
      <point x="477" y="-1" type="curve" smooth="yes"/>
      <point x="465.251" y="-1"/>
      <point x="455.207" y="4.30163"/>
      <point x="448.432" y="12.3508" type="curve" smooth="yes"/>
      <point x="439.637" y="22.7996"/>
      <point x="436.351" y="37.8784"/>
      <point x="442" y="52" type="curve"/>
      <point x="442" y="699" type="line"/>
    </contour>
  </outline>
</glyph>
<glyph name="e" format="2">
  <advance width="488"/>
  <unicode hex="0065"/>
  <outline>
    <contour>
      <point x="447" y="171" type="move"/>
      <point x="430" y="76"/>
      <point x="354" y="3"/>
      <point x="259" y="-10" type="curve" smooth="yes"/>
      <point x="135" y="-26"/>
      <point x="57" y="59"/>
      <point x="45" y="174" type="curve" smooth="yes"/>
      <point x="42.0975" y="202.299"/>
      <point x="89.4783" y="213.66"/>
      <point x="152.423" y="225" type="curve" smooth="yes"/>
      <point x="262.97" y="244.916"/>
      <point x="421.522" y="264.855"/>
      <point x="440" y="377" type="curve" smooth="yes"/>
      <point x="454" y="465"/>
      <point x="360" y="531"/>
      <point x="259" y="514" type="curve" smooth="yes"/>
      <point x="181" y="500"/>
      <point x="117" y="467"/>
      <point x="70" y="376" type="curve" smooth="yes"/>
      <point x="18" y="275"/>
      <point x="39" y="139"/>
      <point x="74" y="79" type="curve"/>
    </contour>
  </outline>
</glyph>
<glyph name="f" format="2">
  <advance width="340"/>
  <unicode hex="0066"/>
  <outline>
    <contour>
      <point x="90" y="2" type="move"/>
      <point x="90" y="525" type="line"/>
      <point x="73" y="614"/>
      <point x="139" y="697"/>
      <point x="229" y="700" type="curve" smooth="yes"/>
      <point x="295" y="702"/>
      <point x="353" y="659"/>
      <point x="369" y="595" type="curve"/>
    </contour>
    <contour>
      <point x="20" y="493" type="move"/>
      <point x="229" y="493" type="line"/>
    </contour>
  </outline>
</glyph>
<glyph name="g" format="2">
  <advance width="556"/>
  <unicode hex="0067"/>
  <outline>
    <contour>
      <point x="49" y="292" type="curve" smooth="yes"/>
      <point x="66" y="415"/>
      <point x="152" y="521"/>
      <point x="268" y="512" type="curve" smooth="yes"/>
      <point x="385" y="502"/>
      <point x="452" y="383"/>
      <point x="454" y="258" type="curve" smooth="yes"/>
      <point x="457" y="128"/>
      <point x="389" y="2"/>
      <point x="268" y="-9" type="curve" smooth="yes"/>
      <point x="125" y="-21"/>
      <point x="26" y="131"/>
    </contour>
    <contour>
      <point x="522" y="451" type="move"/>
      <point x="530.222" y="461.572"/>
      <point x="530.511" y="475.248"/>
      <point x="524.892" y="485.95" type="curve" smooth="yes"/>
      <point x="520.944" y="493.471"/>
      <point x="514.079" y="499.524"/>
      <point x="505" y="502" type="curve" smooth="yes"/>
      <point x="490.647" y="505.721"/>
      <point x="477.142" y="500.117"/>
      <point x="467.639" y="489.243" type="curve" smooth="yes"/>
      <point x="459.266" y="479.661"/>
      <point x="454" y="465.989"/>
      <point x="454" y="451" type="curve" smooth="yes"/>
      <point x="454" y="39" type="line" smooth="yes"/>
      <point x="454" y="4.33116"/>
      <point x="476.78" y="-15.4517"/>
      <point x="504.452" y="-32.6668" type="curve" smooth="yes"/>
      <point x="535.047" y="-51.7005"/>
      <point x="571.622" y="-67.5953"/>
      <point x="590" y="-97" type="curve" smooth="yes"/>
      <point x="633" y="-166"/>
      <point x="579" y="-257"/>
      <point x="488" y="-266" type="curve" smooth="yes"/>
      <point x="371" y="-277"/>
      <point x="296" y="-149"/>
      <point x="184" y="-131" type="curve" smooth="yes"/>
      <point x="91" y="-115"/>
      <point x="3" y="-174"/>
      <point x="-19" y="-266" type="curve"/>
    </contour>
  </outline>
</glyph>
<glyph name="h" format="2">
  <advance width="562"/>
  <unicode hex="0068"/>
  <outline>
    <contour>
      <point x="73" y="2" type="move"/>
      <point x="73" y="149"/>
      <point x="92" y="300"/>
      <point x="178" y="421" type="curve" smooth="yes"/>
      <point x="220" y="480"/>
      <point x="281" y="529"/>
      <point x="353" y="525" type="curve" smooth="yes"/>
      <point x="428" y="522"/>
      <point x="489" y="461"/>
      <point x="492" y="386" type="curve"/>
      <point x="492" y="2" type="line"/>
    </contour>
    <contour>
      <point x="3" y="648" type="move"/>
      <point x="-2.0244" y="660.561"/>
      <point x="0.0196002" y="673.627"/>
      <point x="6.72218" y="683.519" type="curve" smooth="yes"/>
      <point x="13.3597" y="693.316"/>
      <point x="24.5658" y="700"/>
      <point x="38" y="700" type="curve" smooth="yes"/>
      <point x="49.7224" y="700"/>
      <point x="59.9367" y="694.911"/>
      <point x="66.8427" y="687.105" type="curve" smooth="yes"/>
      <point x="75.8432" y="676.932"/>
      <point x="79.2242" y="662.146"/>
      <point x="73" y="648" type="curve"/>
      <point x="73" y="2" type="line"/>
    </contour>
  </outline>
</glyph>
<glyph name="i" format="2">
  <advance width="232"/>
  <unicode hex="0069"/>
  <outline>
    <contour>
      <point x="53" y="454" type="move"/>
      <point x="47.8357" y="466.394"/>
      <point x="50.1389" y="479.589"/>
      <point x="57.1551" y="489.451" type="curve" smooth="yes"/>
      <point x="63.7249" y="498.686"/>
      <point x="74.427" y="505"/>
      <point x="87" y="505" type="curve" smooth="yes"/>
      <point x="98.24" y="505"/>
      <point x="107.985" y="499.954"/>
      <point x="114.619" y="492.286" type="curve" smooth="yes"/>
      <point x="123.33" y="482.216"/>
      <point x="126.677" y="467.625"/>
      <point x="121" y="454" type="curve"/>
      <point x="121" y="47" type="line"/>
      <point x="115.291" y="33.2976"/>
      <point x="118.708" y="18.9432"/>
      <point x="127.531" y="9.1479" type="curve" smooth="yes"/>
      <point x="134.161" y="1.7865"/>
      <point x="143.844" y="-3"/>
      <point x="155" y="-3" type="curve" smooth="yes"/>
      <point x="167.461" y="-3"/>
      <point x="178.085" y="2.9726"/>
      <point x="184.669" y="11.835" type="curve" smooth="yes"/>
      <point x="191.822" y="21.4635"/>
      <point x="194.207" y="34.5029"/>
      <point x="189" y="47" type="curve"/>
    </contour>
    <contour>
      <point x="87" y="680" type="curve" smooth="yes"/>
      <point x="65" y="680"/>
      <point x="53" y="655"/>
      <point x="53" y="629" type="curve" smooth="yes"/>
      <point x="53" y="604"/>
      <point x="65" y="578"/>
      <point x="87" y="578" type="curve" smooth="yes"/>
      <point x="110" y="578"/>
      <point x="121" y="604"/>
      <point x="121" y="629" type="curve" smooth="yes"/>
      <point x="121" y="655"/>
      <point x="110" y="680"/>
    </contour>
  </outline>
</glyph>
<glyph name="j" format="2">
  <advance width="246"/>
  <unicode hex="006A"/>
  <outline>
    <contour>
      <point x="-379" y="-266" type="move"/>
      <point x="-357" y="-174"/>
      <point x="-269" y="-116"/>
      <point x="-176" y="-131" type="curve" smooth="yes"/>
      <point x="-64" y="-150"/>
      <point x="11" y="-277"/>
      <point x="128" y="-266" type="curve" smooth="yes"/>
      <point x="219" y="-257"/>
      <point x="273" y="-166"/>
      <point x="230" y="-97" type="curve" smooth="yes"/>
      <point x="211.584" y="-67.5348"/>
      <point x="174.897" y="-51.3584"/>
      <point x="144.263" y="-32.1559" type="curve" smooth="yes"/>
      <point x="116.677" y="-14.8631"/>
      <point x="94" y="4.88379"/>
      <point x="94" y="39" type="curve" smooth="yes"/>
      <point x="96" y="451" type="line" smooth="yes"/>
      <point x="96" y="466.139"/>
      <point x="90.6285" y="479.935"/>
      <point x="82.109" y="489.529" type="curve" smooth="yes"/>
      <point x="72.6203" y="500.215"/>
      <point x="59.2266" y="505.688"/>
      <point x="45" y="502" type="curve" smooth="yes"/>
      <point x="35.2699" y="499.346"/>
      <point x="28.0827" y="492.585"/>
      <point x="24.3036" y="484.311" type="curve" smooth="yes"/>
      <point x="19.538" y="473.877"/>
      <point x="20.1919" y="461.039"/>
      <point x="28" y="451" type="curve"/>
    </contour>
    <contour>
      <point x="54" y="680" type="curve" smooth="yes"/>
      <point x="77" y="680"/>
      <point x="88" y="655"/>
      <point x="88" y="629" type="curve" smooth="yes"/>
      <point x="88" y="604"/>
      <point x="77" y="578"/>
      <point x="54" y="578" type="curve" smooth="yes"/>
      <point x="32" y="578"/>
      <point x="20" y="604"/>
      <point x="20" y="629" type="curve" smooth="yes"/>
      <point x="20" y="655"/>
      <point x="32" y="680"/>
    </contour>
  </outline>
</glyph>
<glyph name="k" format="2">
  <advance width="507"/>
  <unicode hex="006B"/>
  <outline>
    <contour>
      <point x="93.0216" y="1.9184" type="move"/>
      <point x="93.0216" y="235.963" type="line" smooth="yes"/>
      <point x="93.0216" y="390.394"/>
      <point x="194.697" y="527.56"/>
      <point x="328.026" y="503.58" type="curve" smooth="yes"/>
      <point x="394.21" y="492.07"/>
      <point x="443.13" y="432.599"/>
      <point x="427.782" y="370.251" type="curve" smooth="yes"/>
      <point x="394.21" y="223.494"/>
      <point x="93.0216" y="314.618"/>
      <point x="93.0216" y="135.247" type="curve"/>
    </contour>
    <contour>
      <point x="23" y="648" type="move"/>
      <point x="17.8408" y="660.898"/>
      <point x="20.1344" y="674.328"/>
      <point x="27.2717" y="684.309" type="curve" smooth="yes"/>
      <point x="33.9686" y="693.673"/>
      <point x="44.9298" y="700"/>
      <point x="58" y="700" type="curve" smooth="yes"/>
      <point x="70.3479" y="700"/>
      <point x="81.0226" y="694.353"/>
      <point x="87.9198" y="685.833" type="curve" smooth="yes"/>
      <point x="96.104" y="675.722"/>
      <point x="98.9694" y="661.567"/>
      <point x="93" y="648" type="curve"/>
      <point x="93" y="2" type="line"/>
    </contour>
    <contour>
      <point x="263.759" y="268.576" type="move"/>
      <point x="347.21" y="282.964"/>
      <point x="427.782" y="242.678"/>
      <point x="427.782" y="168.819" type="curve" smooth="yes"/>
      <point x="427.782" y="111.267"/>
      <point x="439.293" y="54.6744"/>
      <point x="461.354" y="1.9184" type="curve"/>
    </contour>
  </outline>
</glyph>
<glyph name="l" format="2">
  <advance width="168"/>
  <unicode hex="006C"/>
  <outline>
    <contour>
      <point x="23" y="648" type="move"/>
      <point x="17.4197" y="661.951"/>
      <point x="20.5586" y="676.525"/>
      <point x="29.1151" y="686.682" type="curve" smooth="yes"/>
      <point x="35.8918" y="694.726"/>
      <point x="46.0669" y="700"/>
      <point x="58" y="700" type="curve" smooth="yes"/>
      <point x="69.752" y="700"/>
      <point x="79.9884" y="694.885"/>
      <point x="86.8951" y="687.046" type="curve" smooth="yes"/>
      <point x="95.8563" y="676.875"/>
      <point x="99.2122" y="662.119"/>
      <point x="93" y="648" type="curve"/>
      <point x="93" y="2" type="line"/>
    </contour>
  </outline>
</glyph>
<glyph name="m" format="2">
  <advance width="904"/>
  <unicode hex="006D"/>
  <outline>
    <contour>
      <point x="90" y="2" type="move"/>
      <point x="90" y="144"/>
      <point x="115" y="288"/>
      <point x="191" y="408" type="curve" smooth="yes"/>
      <point x="223" y="458"/>
      <point x="267" y="504"/>
      <point x="326" y="509" type="curve" smooth="yes"/>
      <point x="403" y="515"/>
      <point x="461" y="453.474"/>
      <point x="461" y="374" type="curve" smooth="yes"/>
      <point x="461" y="2" type="line"/>
    </contour>
    <contour>
      <point x="22" y="458" type="move"/>
      <point x="18.5992" y="470.469"/>
      <point x="22.5873" y="482.939"/>
      <point x="30.8688" y="491.402" type="curve" smooth="yes"/>
      <point x="37.1984" y="497.871"/>
      <point x="46.0362" y="502"/>
      <point x="56" y="502" type="curve" smooth="yes"/>
      <point x="67.2464" y="502"/>
      <point x="76.8191" y="496.74"/>
      <point x="83.0814" y="488.792" type="curve" smooth="yes"/>
      <point x="89.6261" y="480.485"/>
      <point x="92.5551" y="469.243"/>
      <point x="90" y="458" type="curve"/>
      <point x="90" y="2" type="line"/>
    </contour>
    <contour>
      <point x="461" y="2" type="move"/>
      <point x="461" y="144"/>
      <point x="486" y="288"/>
      <point x="563" y="408" type="curve" smooth="yes"/>
      <point x="595" y="458"/>
      <point x="639" y="504"/>
      <point x="698" y="509" type="curve" smooth="yes"/>
      <point x="775" y="515"/>
      <point x="833.39" y="453.474"/>
      <point x="833" y="374" type="curve"/>
      <point x="833" y="2" type="line"/>
    </contour>
  </outline>
</glyph>
<glyph name="n" format="2">
  <advance width="569"/>
  <unicode hex="006E"/>
  <outline>
    <contour>
      <point x="91" y="2" type="move"/>
      <point x="91" y="146"/>
      <point x="110" y="293"/>
      <point x="193" y="410" type="curve" smooth="yes"/>
      <point x="234" y="468"/>
      <point x="293" y="515"/>
      <point x="363" y="512" type="curve" smooth="yes"/>
      <point x="437" y="509"/>
      <point x="496" y="450"/>
      <point x="499" y="376" type="curve"/>
      <point x="499" y="2" type="line"/>
    </contour>
    <contour>
      <point x="23" y="452" type="move"/>
      <point x="17.7456" y="464.611"/>
      <point x="20.2217" y="478.049"/>
      <point x="27.5269" y="487.965" type="curve" smooth="yes"/>
      <point x="34.1246" y="496.919"/>
      <point x="44.6615" y="503"/>
      <point x="57" y="503" type="curve" smooth="yes"/>
      <point x="68.1501" y="503"/>
      <point x="77.5948" y="498.395"/>
      <point x="84.1368" y="491.299" type="curve" smooth="yes"/>
      <point x="93.4362" y="481.211"/>
      <point x="96.8703" y="466.089"/>
      <point x="91" y="452" type="curve"/>
      <point x="91" y="2" type="line"/>
    </contour>
  </outline>
</glyph>
<glyph name="o" format="2">
  <advance width="505"/>
  <unicode hex="006F"/>
  <outline>
    <contour>
      <point x="256" y="516" type="curve" smooth="yes"/>
      <point x="129" y="518"/>
      <point x="43" y="393"/>
      <point x="41" y="256" type="curve" smooth="yes"/>
      <point x="39" y="115"/>
      <point x="125" y="-16"/>
      <point x="256" y="-14" type="curve" smooth="yes"/>
      <point x="384" y="-12"/>
      <point x="466" y="118"/>
      <point x="464" y="256" type="curve" smooth="yes"/>
      <point x="461" y="390"/>
      <point x="381" y="514"/>
    </contour>
  </outline>
</glyph>
<glyph name="p" format="2">
  <advance width="556"/>
  <unicode hex="0070"/>
  <outline>
    <contour>
      <point x="117.312" y="217.888" type="curve" smooth="yes"/>
      <point x="134.016" y="96.32"/>
      <point x="220.32" y="-8.54399"/>
      <point x="334.464" y="0.736" type="curve" smooth="yes"/>
      <point x="448.608" y="10.944"/>
      <point x="515.424" y="127.872"/>
      <point x="517.28" y="250.368" type="curve" smooth="yes"/>
      <point x="520.064" y="378.432"/>
      <point x="452.32" y="503.712"/>
      <point x="334.464" y="513.92" type="curve" smooth="yes"/>
      <point x="192.48" y="525.984"/>
      <point x="95.04" y="375.648"/>
    </contour>
    <contour>
      <point x="44" y="458" type="move"/>
      <point x="37.7375" y="472.233"/>
      <point x="41.1987" y="487.438"/>
      <point x="50.3241" y="497.896" type="curve" smooth="yes"/>
      <point x="57.2272" y="505.806"/>
      <point x="67.3717" y="511"/>
      <point x="79" y="511" type="curve" smooth="yes"/>
      <point x="89.8637" y="511"/>
      <point x="97.6515" y="506.791"/>
      <point x="103.08" y="500" type="curve" smooth="yes"/>
      <point x="111.143" y="489.915"/>
      <point x="114" y="474.136"/>
      <point x="114" y="458" type="curve" smooth="yes"/>
      <point x="114" y="-189" type="line"/>
    </contour>
  </outline>
</glyph>
<glyph name="q" format="2">
  <advance width="556"/>
  <unicode hex="0071"/>
  <outline>
    <contour>
      <point x="438.688" y="217.888" type="curve" smooth="yes"/>
      <point x="421.984" y="96.32"/>
      <point x="335.68" y="-8.54399"/>
      <point x="221.536" y="0.736" type="curve" smooth="yes"/>
      <point x="107.392" y="10.944"/>
      <point x="40.576" y="127.872"/>
      <point x="38.72" y="250.368" type="curve" smooth="yes"/>
      <point x="35.936" y="378.432"/>
      <point x="103.68" y="503.712"/>
      <point x="221.536" y="513.92" type="curve" smooth="yes"/>
      <point x="363.52" y="525.984"/>
      <point x="460.96" y="375.648"/>
    </contour>
    <contour>
      <point x="512" y="458" type="move"/>
      <point x="518.697" y="473.219"/>
      <point x="514.275" y="489.55"/>
      <point x="503.699" y="500" type="curve" smooth="yes"/>
      <point x="496.902" y="506.714"/>
      <point x="487.563" y="511"/>
      <point x="477" y="511" type="curve" smooth="yes"/>
      <point x="466.437" y="511"/>
      <point x="457.251" y="506.714"/>
      <point x="450.581" y="500" type="curve" smooth="yes"/>
      <point x="440.201" y="489.55"/>
      <point x="435.912" y="473.219"/>
      <point x="442" y="458" type="curve"/>
      <point x="442" y="-189" type="line"/>
    </contour>
  </outline>
</glyph>
<glyph name="r" format="2">
  <advance width="502"/>
  <unicode hex="0072"/>
  <outline>
    <contour>
      <point x="90" y="2" type="move"/>
      <point x="90" y="144"/>
      <point x="115" y="287"/>
      <point x="191" y="407" type="curve" smooth="yes"/>
      <point x="223" y="457"/>
      <point x="267" y="503"/>
      <point x="326" y="508" type="curve" smooth="yes"/>
      <point x="403" y="514"/>
      <point x="467" y="450"/>
      <point x="461" y="373" type="curve"/>
    </contour>
    <contour>
      <point x="22" y="457" type="move"/>
      <point x="18.8578" y="469.045"/>
      <point x="22.0235" y="480.541"/>
      <point x="29.0554" y="488.76" type="curve" smooth="yes"/>
      <point x="35.451" y="496.236"/>
      <point x="45.0449" y="501"/>
      <point x="56" y="501" type="curve" smooth="yes"/>
      <point x="68.0055" y="501"/>
      <point x="78.1037" y="495.278"/>
      <point x="84.3037" y="486.537" type="curve" smooth="yes"/>
      <point x="89.9816" y="478.532"/>
      <point x="92.3901" y="467.995"/>
      <point x="90" y="457" type="curve"/>
      <point x="90" y="2" type="line"/>
    </contour>
  </outline>
</glyph>
<glyph name="s" format="2">
  <advance width="479"/>
  <unicode hex="0073"/>
  <outline>
    <contour>
      <point x="428" y="407" type="move"/>
      <point x="380" y="472"/>
      <point x="303" y="510"/>
      <point x="222" y="510" type="curve" smooth="yes"/>
      <point x="126" y="510"/>
      <point x="37" y="454"/>
      <point x="51" y="373" type="curve" smooth="yes"/>
      <point x="62" y="301"/>
      <point x="145" y="279"/>
      <point x="222" y="270" type="curve" smooth="yes"/>
      <point x="320" y="258"/>
      <point x="427" y="222"/>
      <point x="433" y="132" type="curve" smooth="yes"/>
      <point x="440" y="37"/>
      <point x="330" y="-22"/>
      <point x="222" y="-5" type="curve" smooth="yes"/>
      <point x="145" y="7"/>
      <point x="80" y="51"/>
      <point x="35" y="115" type="curve"/>
    </contour>
  </outline>
</glyph>
<glyph name="t" format="2">
  <advance width="406"/>
  <unicode hex="0074"/>
  <outline>
    <contour>
      <point x="90" y="676" type="move"/>
      <point x="90" y="159" type="line"/>
      <point x="73" y="72"/>
      <point x="138" y="-10"/>
      <point x="227" y="-13" type="curve" smooth="yes"/>
      <point x="292" y="-15"/>
      <point x="349" y="27"/>
      <point x="365" y="91" type="curve"/>
    </contour>
    <contour>
      <point x="20" y="493" type="move"/>
      <point x="334" y="493" type="line"/>
    </contour>
  </outline>
</glyph>
<glyph name="u" format="2">
  <advance width="555"/>
  <unicode hex="0075"/>
  <outline>
    <contour>
      <point x="55.3616" y="456.401" type="move"/>
      <point x="48.9065" y="467.159"/>
      <point x="48.9703" y="479.035"/>
      <point x="53.4571" y="488.643" type="curve" smooth="yes"/>
      <point x="59.337" y="501.234"/>
      <point x="72.813" y="509.93"/>
      <point x="89.1678" y="507.11" type="curve" smooth="yes"/>
      <point x="100.26" y="505.093"/>
      <point x="108.284" y="497.963"/>
      <point x="113.759" y="488.442" type="curve" smooth="yes"/>
      <point x="119.081" y="479.187"/>
      <point x="121.994" y="467.673"/>
      <point x="122.974" y="456.401" type="curve" smooth="yes"/>
      <point x="129.934" y="387.794"/>
      <point x="97.1221" y="322.17"/>
      <point x="89.1677" y="253.564" type="curve" smooth="yes"/>
      <point x="72.2646" y="106.407"/>
      <point x="173.683" y="-27.8233"/>
      <point x="308.908" y="-13.9031" type="curve" smooth="yes"/>
      <point x="429.218" y="-0.977179"/>
      <point x="494.842" y="124.305"/>
      <point x="494.842" y="253.564" type="curve" smooth="yes"/>
      <point x="494.842" y="500.15" type="line"/>
    </contour>
    <contour>
      <point x="494.842" y="500.15" type="move"/>
      <point x="494.842" y="0.0170898" type="line"/>
    </contour>
  </outline>
</glyph>
<glyph name="v" format="2">
  <advance width="462"/>
  <unicode hex="0076"/>
  <outline>
    <contour>
      <point x="31" y="501" type="move"/>
      <point x="122" y="367"/>
      <point x="179" y="212"/>
      <point x="198" y="51" type="curve"/>
      <point x="200" y="27"/>
      <point x="209" y="1"/>
      <point x="231" y="1" type="curve" smooth="yes"/>
      <point x="253" y="1"/>
      <point x="261" y="27"/>
      <point x="264" y="51" type="curve" smooth="yes"/>
      <point x="282" y="212"/>
      <point x="339" y="367"/>
      <point x="431" y="501" type="curve"/>
    </contour>
  </outline>
</glyph>
<glyph name="w" format="2">
  <advance width="663"/>
  <unicode hex="0077"/>
  <outline>
    <contour>
      <point x="306" y="501.419" type="move"/>
      <point x="374" y="360.857"/>
      <point x="418" y="207.8"/>
      <point x="434" y="51.6203" type="curve" smooth="yes"/>
      <point x="437" y="26.6315"/>
      <point x="445" y="1.64268"/>
      <point x="466" y="1.64268" type="curve" smooth="yes"/>
      <point x="487" y="1.64268"/>
      <point x="496" y="26.6315"/>
      <point x="498" y="51.6203" type="curve"/>
      <point x="515" y="207.8"/>
      <point x="558" y="360.857"/>
      <point x="627" y="501.419" type="curve"/>
    </contour>
    <contour>
      <point x="306" y="501.419" type="move"/>
      <point x="374" y="360.857"/>
      <point x="418" y="207.8"/>
      <point x="434" y="51.6203" type="curve" smooth="yes"/>
      <point x="437" y="26.6315"/>
      <point x="445" y="1.64268"/>
      <point x="466" y="1.64268" type="curve" smooth="yes"/>
      <point x="487" y="1.64268"/>
      <point x="496" y="26.6315"/>
      <point x="498" y="51.6203" type="curve"/>
      <point x="515" y="207.8"/>
      <point x="558" y="360.857"/>
      <point x="627" y="501.419" type="curve"/>
    </contour>
    <contour>
      <point x="52" y="501.419" type="move"/>
      <point x="120" y="360.857"/>
      <point x="164" y="207.8"/>
      <point x="180" y="51.6203" type="curve" smooth="yes"/>
      <point x="183" y="26.6315"/>
      <point x="191" y="1.64268"/>
      <point x="212" y="1.64268" type="curve" smooth="yes"/>
      <point x="233" y="1.64268"/>
      <point x="242" y="26.6315"/>
      <point x="244" y="51.6203" type="curve"/>
      <point x="261" y="207.8"/>
      <point x="304" y="360.857"/>
      <point x="373" y="501.419" type="curve"/>
    </contour>
  </outline>
  <guideline angle="0" x="0" y="-7.6"/>
</glyph>
<glyph name="x" format="2">
  <advance width="529"/>
  <unicode hex="0078"/>
  <outline>
    <contour>
      <point x="57" y="456" type="move"/>
      <point x="47.6411" y="468.999"/>
      <point x="49.366" y="484.43"/>
      <point x="57.2552" y="495.267" type="curve" smooth="yes"/>
      <point x="64.5393" y="505.272"/>
      <point x="77.0782" y="511.36"/>
      <point x="91" y="508" type="curve" smooth="yes"/>
      <point x="113" y="503"/>
      <point x="120" y="478"/>
      <point x="126" y="456" type="curve" smooth="yes"/>
      <point x="171" y="293"/>
      <point x="356" y="207"/>
      <point x="401" y="43" type="curve" smooth="yes"/>
      <point x="407" y="21"/>
      <point x="414" y="-3"/>
      <point x="436" y="-8" type="curve" smooth="yes"/>
      <point x="450.47" y="-11.4927"/>
      <point x="463.446" y="-5.02701"/>
      <point x="470.58" y="5.43449" type="curve" smooth="yes"/>
      <point x="477.745" y="15.9396"/>
      <point x="479.019" y="30.474"/>
      <point x="470" y="43" type="curve"/>
    </contour>
    <contour>
      <point x="57" y="43" type="move"/>
      <point x="48.6351" y="31.3821"/>
      <point x="49.1246" y="18.0365"/>
      <point x="54.9559" y="7.7805" type="curve" smooth="yes"/>
      <point x="61.6727" y="-4.03284"/>
      <point x="75.4768" y="-11.747"/>
      <point x="91" y="-8" type="curve" smooth="yes"/>
      <point x="113" y="-3"/>
      <point x="120" y="21"/>
      <point x="126" y="43" type="curve" smooth="yes"/>
      <point x="171" y="207"/>
      <point x="356" y="293"/>
      <point x="401" y="456" type="curve" smooth="yes"/>
      <point x="407" y="478"/>
      <point x="414" y="503"/>
      <point x="436" y="508" type="curve" smooth="yes"/>
      <point x="449.978" y="511.374"/>
      <point x="462.562" y="505.223"/>
      <point x="469.833" y="495.145" type="curve" smooth="yes"/>
      <point x="477.647" y="484.315"/>
      <point x="479.324" y="468.95"/>
      <point x="470" y="456" type="curve"/>
    </contour>
  </outline>
</glyph>
<glyph name="y" format="2">
  <advance width="532"/>
  <unicode hex="0079"/>
  <outline>
    <contour>
      <point x="14.2475" y="448.938" type="move"/>
      <point x="5.88988" y="462.519"/>
      <point x="8.12838" y="477.773"/>
      <point x="16.3485" y="488.3" type="curve" smooth="yes"/>
      <point x="23.5269" y="497.492"/>
      <point x="35.2667" y="503.079"/>
      <point x="48.495" y="500.799" type="curve" smooth="yes"/>
      <point x="58.2361" y="499.105"/>
      <point x="65.594" y="493.744"/>
      <point x="70.9656" y="486.225" type="curve" smooth="yes"/>
      <point x="78.0041" y="476.372"/>
      <point x="81.632" y="462.812"/>
      <point x="82.7419" y="448.938" type="curve" smooth="yes"/>
      <point x="89.5914" y="379.465"/>
      <point x="56.3224" y="324.669"/>
      <point x="48.4944" y="255.195" type="curve" smooth="yes"/>
      <point x="31.8599" y="106.463"/>
      <point x="134.602" y="-29.5485"/>
      <point x="271.592" y="-14.871" type="curve" smooth="yes"/>
      <point x="392.926" y="-2.15049"/>
      <point x="459.464" y="125.055"/>
      <point x="459.464" y="255.195" type="curve" smooth="yes"/>
      <point x="459.464" y="497.863" type="line"/>
    </contour>
    <contour>
      <point x="-20" y="-276.131" type="move"/>
      <point x="1.527" y="-183.173"/>
      <point x="91.549" y="-123.485"/>
      <point x="185.485" y="-138.162" type="curve" smooth="yes"/>
      <point x="299.97" y="-157.732"/>
      <point x="375.314" y="-287.873"/>
      <point x="493.713" y="-276.131" type="curve" smooth="yes"/>
      <point x="585.692" y="-266.346"/>
      <point x="640.488" y="-174.367"/>
      <point x="596.455" y="-103.915" type="curve" smooth="yes"/>
      <point x="577.928" y="-74.5801"/>
      <point x="540.995" y="-58.7792"/>
      <point x="510.142" y="-39.5711" type="curve" smooth="yes"/>
      <point x="482.334" y="-22.2584"/>
      <point x="459.465" y="-2.1777"/>
      <point x="459.465" y="33.0755" type="curve" smooth="yes"/>
      <point x="459.465" y="255.195" type="line"/>
    </contour>
  </outline>
</glyph>
<glyph name="z" format="2">
  <advance width="546"/>
  <unicode hex="007A"/>
  <outline>
    <contour>
      <point x="80.381" y="453.866" type="move"/>
      <point x="71.5894" y="465.434"/>
      <point x="72.0961" y="479.216"/>
      <point x="78.1938" y="489.597" type="curve" smooth="yes"/>
      <point x="84.8405" y="500.914"/>
      <point x="98.1306" y="508.19"/>
      <point x="113.262" y="504.155" type="curve"/>
      <point x="126.19" y="501.217"/>
      <point x="131.263" y="489.711"/>
      <point x="136.073" y="477.228" type="curve" smooth="yes"/>
      <point x="139.18" y="469.166"/>
      <point x="142.178" y="460.697"/>
      <point x="147.111" y="453.866" type="curve" smooth="yes"/>
      <point x="189.663" y="395.84"/>
      <point x="340.531" y="395.84"/>
      <point x="382.116" y="453.866" type="curve"/>
      <point x="389.853" y="474.175"/>
      <point x="394.689" y="499.32"/>
      <point x="415.965" y="504.155" type="curve"/>
      <point x="430.645" y="508.07"/>
      <point x="443.592" y="501.338"/>
      <point x="450.421" y="490.6" type="curve" smooth="yes"/>
      <point x="457.088" y="480.115"/>
      <point x="457.924" y="465.81"/>
      <point x="448.846" y="453.866" type="curve"/>
      <point x="46.5325" y="51.5524" type="line"/>
      <point x="32.9822" y="36.1543"/>
      <point x="39.0453" y="17.2258"/>
      <point x="52.4803" y="7.00835" type="curve" smooth="yes"/>
      <point x="60.1404" y="1.1828"/>
      <point x="70.1969" y="-1.8109"/>
      <point x="80.381" y="0.296099" type="curve"/>
      <point x="100.69" y="5.13161"/>
      <point x="100.69" y="31.2433"/>
      <point x="113.262" y="51.5524" type="curve" smooth="yes"/>
      <point x="164.519" y="135.69"/>
      <point x="364.708" y="135.69"/>
      <point x="415.965" y="51.5524" type="curve" smooth="yes"/>
      <point x="428.537" y="31.2433"/>
      <point x="427.57" y="6.09871"/>
      <point x="448.846" y="0.296099" type="curve"/>
      <point x="464.203" y="-3.28729"/>
      <point x="477.664" y="4.51008"/>
      <point x="484.351" y="16.2297" type="curve" smooth="yes"/>
      <point x="490.297" y="26.6507"/>
      <point x="490.888" y="40.1728"/>
      <point x="482.695" y="51.5524" type="curve"/>
    </contour>
  </outline>
</glyph>
<glyph name="bar" format="2">
  <advance width="401"/>
  <unicode hex="007C"/>
  <outline>
    <contour>
      <point x="225.358" y="-40" type="move"/>
      <point x="225.358" y="740" type="line"/>
    </contour>
  </outline>
</glyph>
<glyph name="dieresis" format="2">
  <advance width="328"/>
  <unicode hex="00A8"/>
  <outline>
    <contour>
      <point x="74" y="730" type="curve" smooth="yes"/>
      <point x="97" y="730"/>
      <point x="108" y="705"/>
      <point x="108" y="679" type="curve" smooth="yes"/>
      <point x="108" y="654"/>
      <point x="97" y="628"/>
      <point x="74" y="628" type="curve" smooth="yes"/>
      <point x="52" y="628"/>
      <point x="40" y="654"/>
      <point x="40" y="679" type="curve" smooth="yes"/>
      <point x="40" y="705"/>
      <point x="52" y="730"/>
    </contour>
    <contour>
      <point x="254" y="730" type="curve" smooth="yes"/>
      <point x="277" y="730"/>
      <point x="288" y="705"/>
      <point x="288" y="679" type="curve" smooth="yes"/>
      <point x="288" y="654"/>
      <point x="277" y="628"/>
      <point x="254" y="628" type="curve" smooth="yes"/>
      <point x="232" y="628"/>
      <point x="220" y="654"/>
      <point x="220" y="679" type="curve" smooth="yes"/>
      <point x="220" y="705"/>
      <point x="232" y="730"/>
    </contour>
  </outline>
</glyph>
<glyph name="guillemotleft" format="2">
  <advance width="430"/>
  <unicode hex="00AB"/>
  <outline>
    <contour>
      <point x="293.731" y="468.33" type="move"/>
      <point x="240.637" y="397.827"/>
      <point x="171.005" y="342.122"/>
      <point x="90.928" y="306.435" type="curve" smooth="yes"/>
      <point x="70.9088" y="297.731"/>
      <point x="50.0192" y="286.416"/>
      <point x="50.0192" y="265.526" type="curve" smooth="yes"/>
      <point x="50.0192" y="244.637"/>
      <point x="70.9088" y="234.192"/>
      <point x="90.928" y="224.618" type="curve"/>
      <point x="171.005" y="188.931"/>
      <point x="240.637" y="133.226"/>
      <point x="293.731" y="62.7232" type="curve"/>
    </contour>
    <contour>
      <point x="409.494" y="468.33" type="move"/>
      <point x="356.4" y="397.827"/>
      <point x="286.768" y="342.122"/>
      <point x="206.691" y="306.435" type="curve" smooth="yes"/>
      <point x="186.672" y="297.731"/>
      <point x="165.782" y="286.416"/>
      <point x="165.782" y="265.526" type="curve" smooth="yes"/>
      <point x="165.782" y="244.637"/>
      <point x="186.672" y="234.192"/>
      <point x="206.691" y="224.618" type="curve"/>
      <point x="286.768" y="188.931"/>
      <point x="356.4" y="133.226"/>
      <point x="409.494" y="62.7232" type="curve"/>
    </contour>
  </outline>
</glyph>
<glyph name="registered" format="2">
  <advance width="605"/>
  <unicode hex="00AE"/>
  <outline>
    <contour>
      <point x="33" y="42" type="move"/>
      <point x="28.7757" y="31.9674"/>
      <point x="30.6854" y="21.3771"/>
      <point x="36.5208" y="13.6154" type="curve" smooth="yes"/>
      <point x="41.7366" y="6.67783"/>
      <point x="50.0886" y="2"/>
      <point x="60" y="2" type="curve" smooth="yes"/>
      <point x="70.7508" y="2"/>
      <point x="79.667" y="7.50377"/>
      <point x="84.736" y="15.4254" type="curve" smooth="yes"/>
      <point x="89.5685" y="22.9774"/>
      <point x="90.9045" y="32.7269"/>
      <point x="87" y="42" type="curve"/>
      <point x="87" y="680" type="line"/>
    </contour>
    <contour>
      <point x="33" y="477" type="move"/>
      <point x="2" y="712"/>
      <point x="312" y="825"/>
      <point x="440" y="626" type="curve" smooth="yes"/>
      <point x="587" y="397"/>
      <point x="289" y="144"/>
      <point x="87" y="327" type="curve"/>
    </contour>
    <contour>
      <point x="87" y="327" type="move"/>
      <point x="190" y="440"/>
      <point x="375" y="411"/>
      <point x="440" y="273" type="curve" smooth="yes"/>
      <point x="490" y="165"/>
      <point x="479" y="-4"/>
      <point x="603" y="2" type="curve" smooth="yes"/>
      <point x="647" y="3"/>
      <point x="682" y="39"/>
      <point x="684" y="83" type="curve"/>
    </contour>
  </outline>
</glyph>
<glyph name="degree" format="2">
  <advance width="428"/>
  <unicode hex="00B0"/>
  <outline>
    <contour>
      <point x="255.677" y="711.407" type="curve" smooth="yes"/>
      <point x="180.347" y="712.342"/>
      <point x="129.335" y="653.922"/>
      <point x="128.149" y="589.893" type="curve" smooth="yes"/>
      <point x="126.963" y="523.995"/>
      <point x="177.974" y="462.77"/>
      <point x="255.677" y="463.705" type="curve" smooth="yes"/>
      <point x="331.601" y="464.639"/>
      <point x="380.24" y="525.397"/>
      <point x="379.053" y="589.893" type="curve" smooth="yes"/>
      <point x="377.274" y="652.52"/>
      <point x="329.822" y="710.473"/>
    </contour>
  </outline>
</glyph>
<glyph name="acute" format="2">
  <advance width="260"/>
  <unicode hex="00B4"/>
  <outline>
    <contour>
      <point x="9" y="585" type="move"/>
      <point x="251" y="689" type="line"/>
    </contour>
  </outline>
</glyph>
<glyph name="periodcentered" format="2">
  <advance width="225"/>
  <unicode hex="00B7"/>
  <outline>
    <contour>
      <point x="181" y="409" type="line"/>
      <point x="203" y="359"/>
      <point x="198" y="300"/>
      <point x="166" y="255" type="curve" smooth="yes"/>
      <point x="138" y="214"/>
      <point x="91" y="189"/>
      <point x="40" y="187" type="curve"/>
      <point x="31" y="197" type="line"/>
      <point x="69" y="223"/>
      <point x="101" y="256"/>
      <point x="127" y="294" type="curve" smooth="yes"/>
      <point x="149" y="327"/>
      <point x="166" y="362"/>
      <point x="176" y="400" type="curve"/>
      <point x="171" y="429" type="line"/>
      <point x="181" y="434" type="line"/>
    </contour>
  </outline>
</glyph>
<glyph name="cedilla" format="2">
  <advance width="260"/>
  <unicode hex="00B8"/>
  <outline>
    <contour>
      <point x="125" y="-10" type="move"/>
      <point x="125" y="-45"/>
      <point x="87" y="-65"/>
      <point x="87" y="-93" type="curve"/>
      <point x="86" y="-113"/>
      <point x="100" y="-135"/>
      <point x="122" y="-135" type="curve" smooth="yes"/>
      <point x="160" y="-135"/>
      <point x="159" y="-42"/>
      <point x="211" y="-42" type="curve" smooth="yes"/>
      <point x="251" y="-41"/>
      <point x="284" y="-91"/>
      <point x="261" y="-147" type="curve" smooth="yes"/>
      <point x="248" y="-178"/>
      <point x="223" y="-202"/>
      <point x="193" y="-215" type="curve" smooth="yes"/>
      <point x="134" y="-241"/>
      <point x="66" y="-227"/>
      <point x="22" y="-181" type="curve"/>
    </contour>
  </outline>
</glyph>
<glyph name="AE" format="2">
  <advance width="976"/>
  <unicode hex="00C6"/>
  <outline>
    <contour>
      <point x="31.0233" y="-1.0233" type="move"/>
      <point x="41.2563" y="16.3728"/>
      <point x="50.466" y="33.7689"/>
      <point x="57.6291" y="52.1883" type="curve" smooth="yes"/>
      <point x="115.957" y="193.404"/>
      <point x="84.2349" y="352.015"/>
      <point x="110.841" y="502.44" type="curve" smooth="yes"/>
      <point x="130.283" y="610.91"/>
      <point x="187.588" y="714.263"/>
      <point x="296.058" y="714.263" type="curve" smooth="yes"/>
      <point x="404.528" y="714.263"/>
      <point x="464.903" y="607.84"/>
      <point x="483.322" y="499.37" type="curve"/>
    </contour>
    <contour>
      <point x="907.344" y="714.53" type="move"/>
      <point x="880.358" y="601.399"/>
      <point x="744.393" y="555.731"/>
      <point x="656.172" y="630.46" type="curve" smooth="yes"/>
      <point x="618.807" y="661.597"/>
      <point x="593.898" y="714.53"/>
      <point x="544.079" y="714.53" type="curve" smooth="yes"/>
      <point x="483.88" y="714.53"/>
      <point x="471.426" y="643.953"/>
      <point x="475.577" y="575.451" type="curve" smooth="yes"/>
      <point x="483.88" y="409.387"/>
      <point x="555.495" y="249.551"/>
      <point x="516.055" y="87.6384" type="curve" smooth="yes"/>
      <point x="508.79" y="54.4256"/>
      <point x="492.184" y="22.2507"/>
      <point x="461.047" y="17.0612" type="curve" smooth="yes"/>
      <point x="434.061" y="12.9096"/>
      <point x="408.114" y="31.5918"/>
      <point x="405" y="59.6151" type="curve" smooth="yes"/>
      <point x="390.469" y="172.746"/>
      <point x="539.927" y="117.737"/>
      <point x="677.968" y="25.3644" type="curve" smooth="yes"/>
      <point x="768.265" y="-34.8338"/>
      <point x="898.002" y="6.68223"/>
      <point x="934.329" y="109.434" type="curve"/>
    </contour>
    <contour>
      <point x="50.0382" y="325.317" type="move"/>
      <point x="208.837" y="325.317"/>
      <point x="683.157" y="325.317"/>
      <point x="841.956" y="325.317" type="curve"/>
    </contour>
  </outline>
</glyph>
<glyph name="Oslash" format="2">
  <advance width="593"/>
  <unicode hex="00D8"/>
  <outline>
    <component base="O"/>
    <contour>
      <point x="50" y="0" type="move"/>
      <point x="534" y="700" type="line"/>
    </contour>
  </outline>
</glyph>
<glyph name="Thorn" format="2">
  <advance width="605"/>
  <unicode hex="00DE"/>
  <outline>
    <contour>
      <point x="107.783" y="700.244" type="move"/>
      <point x="107.783" y="-0.0283203" type="line"/>
    </contour>
    <contour>
      <point x="108.811" y="511.037" type="move"/>
      <point x="197.245" y="602.556"/>
      <point x="359.716" y="619.008"/>
      <point x="453.292" y="488.414" type="curve" smooth="yes"/>
      <point x="615.763" y="262.188"/>
      <point x="309.33" y="-3.11319"/>
      <point x="108.811" y="189.179" type="curve"/>
    </contour>
  </outline>
</glyph>
<glyph name="oslash" format="2">
  <advance width="505"/>
  <unicode hex="00F8"/>
  <outline>
    <component base="o"/>
    <contour>
      <point x="455" y="500" type="move"/>
      <point x="50" y="0" type="line"/>
    </contour>
  </outline>
</glyph>
<glyph name="thorn" format="2">
  <advance width="556"/>
  <unicode hex="00FE"/>
  <outline>
    <contour>
      <point x="117.312" y="217.888" type="curve" smooth="yes"/>
      <point x="134.016" y="96.32"/>
      <point x="220.32" y="-8.54399"/>
      <point x="334.464" y="0.736" type="curve" smooth="yes"/>
      <point x="448.608" y="10.944"/>
      <point x="515.424" y="127.872"/>
      <point x="517.28" y="250.368" type="curve" smooth="yes"/>
      <point x="520.064" y="378.432"/>
      <point x="452.32" y="503.712"/>
      <point x="334.464" y="513.92" type="curve" smooth="yes"/>
      <point x="192.48" y="525.984"/>
      <point x="95.04" y="375.648"/>
    </contour>
    <contour>
      <point x="44" y="648" type="move"/>
      <point x="33" y="673"/>
      <point x="52" y="701"/>
      <point x="79" y="701" type="curve" smooth="yes"/>
      <point x="106" y="701"/>
      <point x="124" y="673"/>
      <point x="114" y="648" type="curve"/>
      <point x="114" y="-189" type="line"/>
    </contour>
  </outline>
</glyph>
<glyph name="dotlessi" format="2">
  <advance width="192"/>
  <unicode hex="0131"/>
  <outline>
    <contour>
      <point x="33" y="454" type="move"/>
      <point x="27.9258" y="466.178"/>
      <point x="30.0615" y="478.781"/>
      <point x="36.7933" y="488.288" type="curve" smooth="yes"/>
      <point x="43.3281" y="497.517"/>
      <point x="54.1941" y="503.828"/>
      <point x="67" y="504" type="curve" smooth="yes"/>
      <point x="79.3861" y="504.167"/>
      <point x="89.6815" y="498.476"/>
      <point x="96.2205" y="489.947" type="curve" smooth="yes"/>
      <point x="103.908" y="479.92"/>
      <point x="106.404" y="466.969"/>
      <point x="101" y="454" type="curve"/>
      <point x="101" y="47" type="line"/>
      <point x="96.0052" y="35.0126"/>
      <point x="97.9958" y="22.5262"/>
      <point x="104.48" y="13.0299" type="curve" smooth="yes"/>
      <point x="110.977" y="3.51362"/>
      <point x="121.986" y="-3"/>
      <point x="135" y="-3" type="curve" smooth="yes"/>
      <point x="148.159" y="-3"/>
      <point x="159.268" y="3.65956"/>
      <point x="165.736" y="13.349" type="curve" smooth="yes"/>
      <point x="172.048" y="22.8049"/>
      <point x="173.939" y="35.1464"/>
      <point x="169" y="47" type="curve"/>
    </contour>
  </outline>
  <guideline angle="90" x="101" y="0"/>
</glyph>
<glyph name="jcircumflex" format="2">
  <advance width="246"/>
  <unicode hex="0135"/>
  <outline>
    <component base="circumflex" xOffset="-82"/>
    <contour>
      <point x="-319" y="-266" type="move"/>
      <point x="-297" y="-174"/>
      <point x="-209" y="-116"/>
      <point x="-116" y="-131" type="curve" smooth="yes"/>
      <point x="-4" y="-150"/>
      <point x="71" y="-277"/>
      <point x="188" y="-266" type="curve" smooth="yes"/>
      <point x="279" y="-257"/>
      <point x="333" y="-166"/>
      <point x="290" y="-97" type="curve" smooth="yes"/>
      <point x="272.299" y="-68.6786"/>
      <point x="237.717" y="-52.6343"/>
      <point x="207.857" y="-34.3794" type="curve" smooth="yes"/>
      <point x="178.674" y="-16.5388"/>
      <point x="154" y="3.4132"/>
      <point x="154" y="39" type="curve" smooth="yes"/>
      <point x="156" y="451" type="line" smooth="yes"/>
      <point x="156" y="483"/>
      <point x="132" y="509"/>
      <point x="105" y="502" type="curve" smooth="yes"/>
      <point x="83" y="496"/>
      <point x="74" y="469"/>
      <point x="88" y="451" type="curve"/>
    </contour>
  </outline>
</glyph>
<glyph name="OE" format="2">
  <advance width="1007"/>
  <unicode hex="0152"/>
  <outline>
    <component base="E" xOffset="403"/>
    <contour>
      <point x="492.622" y="601.252" type="move"/>
      <point x="445.849" y="670.903"/>
      <point x="378.07" y="716.41"/>
      <point x="295.95" y="716.41" type="curve" smooth="yes"/>
      <point x="134.555" y="716.41"/>
      <point x="29.505" y="540.632"/>
      <point x="29.505" y="351.251" type="curve" smooth="yes"/>
      <point x="29.505" y="160.825"/>
      <point x="134.555" y="-14.9537"/>
      <point x="295.95" y="-14.9537" type="curve" smooth="yes"/>
      <point x="351.352" y="-14.9537"/>
      <point x="400.228" y="5.7592"/>
      <point x="440.529" y="40.6673" type="curve"/>
    </contour>
  </outline>
</glyph>
<glyph name="circumflex" format="2">
  <advance width="418"/>
  <unicode hex="02C6"/>
  <outline>
    <contour>
      <point x="84" y="585" type="move"/>
      <point x="205" y="689" type="line"/>
      <point x="326" y="585" type="line"/>
    </contour>
  </outline>
</glyph>
<glyph name="tilde" format="2">
  <advance width="284"/>
  <unicode hex="02DC"/>
  <outline>
    <contour>
      <point x="21" y="576" type="move"/>
      <point x="19.3429" y="611.627"/>
      <point x="41.8839" y="640.04"/>
      <point x="81.0483" y="639.968" type="curve" smooth="yes"/>
      <point x="137.727" y="639.863"/>
      <point x="140.573" y="573.19"/>
      <point x="203.737" y="573.06" type="curve" smooth="yes"/>
      <point x="244.768" y="572.975"/>
      <point x="264.644" y="601.654"/>
      <point x="263" y="637" type="curve"/>
    </contour>
  </outline>
</glyph>
<glyph name="endash" format="2">
  <advance width="500"/>
  <unicode hex="2013"/>
  <outline>
    <contour>
      <point x="70" y="270" type="move"/>
      <point x="392.077" y="270" type="line"/>
    </contour>
  </outline>
</glyph>
<glyph name="emdash" format="2">
  <advance width="1000"/>
  <unicode hex="2014"/>
  <outline>
    <contour>
      <point x="70" y="270" type="move"/>
      <point x="815.878" y="270" type="line"/>
    </contour>
  </outline>
</glyph>
<glyph name="perthousand" format="2">
  <advance width="943"/>
  <unicode hex="2030"/>
  <outline>
    <component base="percent"/>
    <contour>
      <point x="778.2" y="1" type="move"/>
      <point x="709.83" y="1"/>
      <point x="667.143" y="75"/>
      <point x="666.2" y="141" type="curve" smooth="yes"/>
      <point x="665.143" y="215"/>
      <point x="709.21" y="282.523"/>
      <point x="778.2" y="281" type="curve" smooth="yes"/>
      <point x="845.214" y="279.522"/>
      <point x="889.703" y="213.005"/>
      <point x="890.2" y="141" type="curve" smooth="yes"/>
      <point x="890.703" y="68.0017"/>
      <point x="846.2" y="1"/>
      <point x="778.2" y="1" type="curve"/>
    </contour>
  </outline>
</glyph>
<glyph name="guilsinglleft" format="2">
  <advance width="320"/>
  <unicode hex="2039"/>
  <outline>
    <contour>
      <point x="300" y="499" type="move"/>
      <point x="239" y="418"/>
      <point x="159" y="354"/>
      <point x="67" y="313" type="curve" smooth="yes"/>
      <point x="44" y="303"/>
      <point x="20" y="290"/>
      <point x="20" y="266" type="curve" smooth="yes"/>
      <point x="20" y="242"/>
      <point x="44" y="230"/>
      <point x="67" y="219" type="curve"/>
      <point x="159" y="178"/>
      <point x="239" y="114"/>
      <point x="300" y="33" type="curve"/>
    </contour>
  </outline>
</glyph>
<glyph name="f_f" format="2">
  <advance width="515"/>
  <unicode hex="FB00"/>
  <outline>
    <contour>
      <point x="316" y="2" type="move"/>
      <point x="316" y="525" type="line"/>
      <point x="299" y="614"/>
      <point x="365" y="697"/>
      <point x="455" y="700" type="curve" smooth="yes"/>
      <point x="521" y="702"/>
      <point x="579" y="659"/>
      <point x="595" y="595" type="curve"/>
    </contour>
    <contour>
      <point x="20" y="493" type="move"/>
      <point x="449" y="493" type="line"/>
    </contour>
    <contour>
      <point x="91" y="2" type="move"/>
      <point x="91" y="525" type="line"/>
      <point x="74" y="614"/>
      <point x="140" y="697"/>
      <point x="230" y="700" type="curve" smooth="yes"/>
      <point x="276.16" y="701.399"/>
      <point x="318.406" y="680.786"/>
      <point x="345.108" y="646.372" type="curve" smooth="yes"/>
    </contour>
  </outline>
</glyph>
<glyph name="banana" format="2">
  <advance width="482"/>
  <unicode hex="1F34C"/>
  <outline>
    <contour>
      <point x="455" y="629" type="line"/>
      <point x="518" y="487"/>
      <point x="504" y="320"/>
      <point x="414" y="192" type="curve" smooth="yes"/>
      <point x="333" y="77"/>
      <point x="201" y="5"/>
      <point x="56" y="-1" type="curve"/>
      <point x="30" y="27" type="line"/>
      <point x="138" y="101"/>
      <point x="230" y="196"/>
      <point x="303" y="303" type="curve" smooth="yes"/>
      <point x="366" y="395"/>
      <point x="414" y="495"/>
      <point x="441" y="603" type="curve"/>
      <point x="427" y="686" type="line"/>
      <point x="455" y="700" type="line"/>
    </contour>
  </outline>
</glyph>
<glyph name="A_E" format="2">
  <advance width="975"/>
  <unicode hex="F1010"/>
  <outline>
    <contour>
      <point x="31" y="-1" type="move"/>
      <point x="41" y="16"/>
      <point x="50" y="34"/>
      <point x="58" y="52" type="curve"/>
      <point x="116" y="193"/>
      <point x="84" y="352"/>
      <point x="111" y="502" type="curve" smooth="yes"/>
      <point x="130" y="611"/>
      <point x="188" y="714"/>
      <point x="296" y="714" type="curve" smooth="yes"/>
      <point x="405" y="714"/>
      <point x="465" y="608"/>
      <point x="483" y="499" type="curve"/>
    </contour>
    <contour>
      <point x="907" y="715" type="move"/>
      <point x="880" y="601"/>
      <point x="744" y="556"/>
      <point x="656" y="630" type="curve" smooth="yes"/>
      <point x="619" y="662"/>
      <point x="594" y="715"/>
      <point x="544" y="715" type="curve" smooth="yes"/>
      <point x="484" y="715"/>
      <point x="471" y="644"/>
      <point x="476" y="575" type="curve" smooth="yes"/>
      <point x="484" y="409"/>
      <point x="555" y="250"/>
      <point x="516" y="88" type="curve"/>
      <point x="509" y="54"/>
      <point x="492" y="22"/>
      <point x="461" y="17" type="curve" smooth="yes"/>
      <point x="434" y="13"/>
      <point x="408" y="32"/>
      <point x="405" y="60" type="curve" smooth="yes"/>
      <point x="390" y="173"/>
      <point x="540" y="118"/>
      <point x="678" y="25" type="curve" smooth="yes"/>
      <point x="768" y="-35"/>
      <point x="898" y="7"/>
      <point x="934" y="109" type="curve"/>
    </contour>
    <contour>
      <point x="50" y="325" type="move"/>
      <point x="209" y="325"/>
      <point x="683" y="325"/>
      <point x="842" y="325" type="curve"/>
    </contour>
  </outline>
</glyph>
<glyph name="A_L" format="2">
  <advance width="997"/>
  <unicode hex="F1020"/>
  <outline>
    <contour>
      <point x="614" y="661" type="move"/>
      <point x="609" y="688"/>
      <point x="581" y="716"/>
      <point x="552" y="716" type="curve" smooth="yes"/>
      <point x="489" y="716"/>
      <point x="469" y="659"/>
      <point x="473" y="589" type="curve" smooth="yes"/>
      <point x="482" y="419"/>
      <point x="558" y="254"/>
      <point x="517" y="89" type="curve"/>
      <point x="510" y="55"/>
      <point x="494" y="22"/>
      <point x="461" y="17" type="curve" smooth="yes"/>
      <point x="434" y="13"/>
      <point x="407" y="31"/>
      <point x="404" y="60" type="curve" smooth="yes"/>
      <point x="389" y="176"/>
      <point x="542" y="120"/>
      <point x="683" y="25" type="curve" smooth="yes"/>
      <point x="776" y="-36"/>
      <point x="908" y="6"/>
      <point x="945" y="111" type="curve"/>
    </contour>
    <contour>
      <point x="31" y="-1" type="move"/>
      <point x="41" y="16"/>
      <point x="50" y="34"/>
      <point x="58" y="52" type="curve"/>
      <point x="116" y="193"/>
      <point x="84" y="352"/>
      <point x="111" y="502" type="curve" smooth="yes"/>
      <point x="130" y="611"/>
      <point x="188" y="714"/>
      <point x="296" y="714" type="curve" smooth="yes"/>
      <point x="405" y="714"/>
      <point x="465" y="608"/>
      <point x="483" y="499" type="curve"/>
    </contour>
    <contour>
      <point x="50" y="325" type="move"/>
      <point x="209" y="325"/>
      <point x="407" y="325"/>
      <point x="566" y="325" type="curve"/>
    </contour>
  </outline>
</glyph>
<glyph name="A_O" format="2">
  <advance width="1058"/>
  <unicode hex="F1030"/>
  <outline>
    <component base="O" xOffset="464.65" yOffset="-0.0463"/>
    <contour>
      <point x="31" y="-1" type="move"/>
      <point x="41" y="16"/>
      <point x="50" y="34"/>
      <point x="58" y="52" type="curve"/>
      <point x="116" y="193"/>
      <point x="84" y="352"/>
      <point x="111" y="502" type="curve" smooth="yes"/>
      <point x="130" y="611"/>
      <point x="188" y="714"/>
      <point x="296" y="714" type="curve" smooth="yes"/>
      <point x="405" y="714"/>
      <point x="462" y="611"/>
      <point x="481" y="502" type="curve" smooth="yes"/>
      <point x="491" y="450"/>
      <point x="494" y="396"/>
      <point x="495" y="343" type="curve"/>
    </contour>
    <contour>
      <point x="58" y="284" type="move"/>
      <point x="534" y="284" type="line"/>
    </contour>
  </outline>
</glyph>
<glyph name="A_U_L_A" format="2">
  <advance width="1957"/>
  <unicode hex="F1050"/>
  <outline>
    <component base="U_L" xOffset="434.672" yOffset="-1.721"/>
    <contour>
      <point x="1398.84" y="47.1047" type="move"/>
      <point x="1425.62" y="71.4256"/>
      <point x="1445.45" y="120.876"/>
      <point x="1451.14" y="155.331" type="curve" smooth="yes"/>
      <point x="1461.35" y="217.179"/>
      <point x="1461.54" y="279.062"/>
      <point x="1463.2" y="343.038" type="curve" smooth="yes"/>
      <point x="1464.59" y="396.444"/>
      <point x="1466.77" y="449.941"/>
      <point x="1476.05" y="502.44" type="curve" smooth="yes"/>
      <point x="1495.5" y="610.91"/>
      <point x="1552.8" y="714.263"/>
      <point x="1661.27" y="714.263" type="curve" smooth="yes"/>
      <point x="1769.74" y="714.263"/>
      <point x="1828.07" y="610.91"/>
      <point x="1846.49" y="502.44" type="curve" smooth="yes"/>
      <point x="1873.09" y="352.015"/>
      <point x="1842.39" y="193.404"/>
      <point x="1899.7" y="52.1883" type="curve" smooth="yes"/>
      <point x="1906.86" y="33.7689"/>
      <point x="1916.07" y="16.3728"/>
      <point x="1926.31" y="-1.0233" type="curve"/>
    </contour>
    <contour>
      <point x="1422.84" y="284.477" type="move"/>
      <point x="1899.7" y="284.477" type="line"/>
    </contour>
    <contour>
      <point x="31.0233" y="-1.0233" type="move"/>
      <point x="41.2563" y="16.3728"/>
      <point x="50.1279" y="33.904"/>
      <point x="57.6291" y="52.1883" type="curve" smooth="yes"/>
      <point x="115.62" y="193.543"/>
      <point x="84.0904" y="352.041"/>
      <point x="110.841" y="502.44" type="curve" smooth="yes"/>
      <point x="130.138" y="610.936"/>
      <point x="187.588" y="714.263"/>
      <point x="296.058" y="714.263" type="curve" smooth="yes"/>
      <point x="404.528" y="714.263"/>
      <point x="462.56" y="610.859"/>
      <point x="481.275" y="502.44" type="curve" smooth="yes"/>
      <point x="493.664" y="430.67"/>
      <point x="493.619" y="357.143"/>
      <point x="496" y="284.476" type="curve"/>
    </contour>
    <contour>
      <point x="57.6291" y="284.477" type="move"/>
      <point x="534.487" y="284.477" type="line"/>
    </contour>
  </outline>
</glyph>
<glyph name="a_e" format="2">
  <advance width="870"/>
  <unicode hex="F1110"/>
  <outline>
    <component base="e" xOffset="382" yOffset="-0.7714"/>
    <contour>
      <point x="55" y="378" type="move"/>
      <point x="76" y="459"/>
      <point x="149" y="516"/>
      <point x="233" y="515" type="curve" smooth="yes"/>
      <point x="344" y="514"/>
      <point x="430" y="420"/>
      <point x="421" y="310" type="curve"/>
      <point x="421" y="223" type="line"/>
    </contour>
    <contour>
      <point x="421" y="310" type="move"/>
      <point x="421" y="95"/>
      <point x="111" y="287"/>
      <point x="45" y="173" type="curve" smooth="yes"/>
      <point x="-9" y="81"/>
      <point x="95" y="-35"/>
      <point x="233" y="-9" type="curve" smooth="yes"/>
      <point x="321" y="8"/>
      <point x="396" y="71"/>
      <point x="417" y="158" type="curve" smooth="yes"/>
      <point x="421" y="176"/>
      <point x="422" y="178"/>
      <point x="423" y="194" type="curve"/>
    </contour>
  </outline>
</glyph>
<glyph name="a_l" format="2">
  <advance width="565"/>
  <unicode hex="F1120"/>
  <outline>
    <contour>
      <point x="55" y="378" type="move"/>
      <point x="76" y="459"/>
      <point x="149" y="516"/>
      <point x="233" y="515" type="curve" smooth="yes"/>
      <point x="344" y="514"/>
      <point x="430" y="420"/>
      <point x="421" y="310" type="curve"/>
      <point x="421" y="53" type="line"/>
      <point x="415.677" y="39.6929"/>
      <point x="418.287" y="25.8192"/>
      <point x="425.965" y="15.7523" type="curve" smooth="yes"/>
      <point x="432.712" y="6.90648"/>
      <point x="443.372" y="1"/>
      <point x="456" y="1" type="curve" smooth="yes"/>
      <point x="468.161" y="1"/>
      <point x="478.572" y="6.90671"/>
      <point x="485.186" y="15.7528" type="curve" smooth="yes"/>
      <point x="492.713" y="25.8196"/>
      <point x="495.323" y="39.6931"/>
      <point x="490" y="53" type="curve"/>
    </contour>
    <contour>
      <point x="421" y="310" type="move"/>
      <point x="421" y="95"/>
      <point x="111" y="287"/>
      <point x="45" y="173" type="curve" smooth="yes"/>
      <point x="-9" y="81"/>
      <point x="95" y="-35"/>
      <point x="233" y="-9" type="curve" smooth="yes"/>
      <point x="326" y="9"/>
      <point x="400" y="80"/>
      <point x="421" y="173" type="curve"/>
    </contour>
    <contour>
      <point x="420" y="648" type="move"/>
      <point x="414.178" y="662.554"/>
      <point x="417.846" y="677.786"/>
      <point x="427.255" y="687.974" type="curve" smooth="yes"/>
      <point x="434.008" y="695.286"/>
      <point x="443.718" y="700"/>
      <point x="455" y="700" type="curve" smooth="yes"/>
      <point x="466.436" y="700"/>
      <point x="476.437" y="695.156"/>
      <point x="483.331" y="687.672" type="curve" smooth="yes"/>
      <point x="492.713" y="677.486"/>
      <point x="496.341" y="662.411"/>
      <point x="490" y="648" type="curve"/>
      <point x="490" y="53" type="line"/>
    </contour>
  </outline>
</glyph>
<glyph name="a_o" format="2">
  <advance width="885"/>
  <unicode hex="F1130"/>
  <outline>
    <component base="o" xOffset="380"/>
    <contour>
      <point x="55" y="378" type="move"/>
      <point x="76" y="459"/>
      <point x="149" y="516"/>
      <point x="233" y="515" type="curve" smooth="yes"/>
      <point x="344" y="514"/>
      <point x="430" y="420"/>
      <point x="421" y="310" type="curve"/>
      <point x="421" y="260" type="line"/>
    </contour>
    <contour>
      <point x="421" y="310" type="move"/>
      <point x="421" y="95"/>
      <point x="111" y="287"/>
      <point x="45" y="173" type="curve" smooth="yes"/>
      <point x="-9" y="81"/>
      <point x="95" y="-36"/>
      <point x="233" y="-9" type="curve" smooth="yes"/>
      <point x="326" y="9"/>
      <point x="406" y="75"/>
      <point x="426" y="191" type="curve"/>
    </contour>
  </outline>
</glyph>
<glyph name="C_H" format="2">
  <advance width="825"/>
  <unicode hex="F1410"/>
  <outline>
    <component base="C"/>
    <contour>
      <point x="780" y="44" type="move"/>
      <point x="793" y="24"/>
      <point x="776" y="-2"/>
      <point x="752" y="2" type="curve"/>
      <point x="734" y="6"/>
      <point x="727" y="25"/>
      <point x="724" y="44" type="curve" smooth="yes"/>
      <point x="710" y="147"/>
      <point x="752" y="248"/>
      <point x="752" y="351" type="curve" smooth="yes"/>
      <point x="752" y="455"/>
      <point x="710" y="555"/>
      <point x="724" y="658" type="curve" smooth="yes"/>
      <point x="727" y="677"/>
      <point x="734" y="697"/>
      <point x="752" y="700" type="curve" smooth="yes"/>
      <point x="776" y="704"/>
      <point x="793" y="678"/>
      <point x="780" y="658" type="curve"/>
    </contour>
    <contour>
      <point x="306" y="351" type="move"/>
      <point x="752" y="351" type="line"/>
    </contour>
    <contour>
      <point x="324" y="206" type="move"/>
      <point x="315" y="254"/>
      <point x="306" y="302"/>
      <point x="306" y="351" type="curve" smooth="yes"/>
      <point x="306" y="401"/>
      <point x="316" y="451"/>
      <point x="324" y="500" type="curve"/>
    </contour>
  </outline>
</glyph>
<glyph name="C_Q" format="2">
  <advance width="659"/>
  <unicode hex="F1440"/>
  <outline>
    <component base="C"/>
    <contour>
      <point x="210" y="274" type="move"/>
      <point x="249" y="274"/>
      <point x="284" y="250"/>
      <point x="299" y="214" type="curve" smooth="yes"/>
      <point x="358" y="74"/>
      <point x="156" y="20"/>
      <point x="60" y="-85" type="curve" smooth="yes"/>
      <point x="30" y="-117"/>
      <point x="28" y="-164"/>
      <point x="60" y="-174" type="curve" smooth="yes"/>
      <point x="83" y="-181"/>
      <point x="101" y="-159"/>
      <point x="120" y="-144" type="curve" smooth="yes"/>
      <point x="206" y="-75"/>
      <point x="314" y="-166"/>
      <point x="419" y="-174" type="curve" smooth="yes"/>
      <point x="515" y="-182"/>
      <point x="604" y="-119"/>
      <point x="628" y="-25" type="curve"/>
    </contour>
  </outline>
</glyph>
<glyph name="c_h" format="2">
  <advance width="805"/>
  <unicode hex="F1510"/>
  <outline>
    <contour>
      <point x="421" y="422" type="move"/>
      <point x="384" y="471"/>
      <point x="332" y="513"/>
      <point x="269" y="513" type="curve" smooth="yes"/>
      <point x="143" y="513"/>
      <point x="60" y="387"/>
      <point x="60" y="252" type="curve" smooth="yes"/>
      <point x="60" y="116"/>
      <point x="143" y="-10"/>
      <point x="269" y="-10" type="curve" smooth="yes"/>
      <point x="332" y="-10"/>
      <point x="384" y="22"/>
      <point x="421" y="70" type="curve"/>
    </contour>
    <contour>
      <point x="351" y="648" type="move"/>
      <point x="341" y="673"/>
      <point x="359" y="700"/>
      <point x="386" y="700" type="curve" smooth="yes"/>
      <point x="413" y="700"/>
      <point x="432" y="673"/>
      <point x="421" y="648" type="curve"/>
      <point x="421" y="422" type="line"/>
      <point x="463" y="481"/>
      <point x="524" y="529"/>
      <point x="596" y="525" type="curve" smooth="yes"/>
      <point x="671" y="522"/>
      <point x="732" y="461"/>
      <point x="735" y="386" type="curve"/>
      <point x="735" y="2" type="line"/>
    </contour>
  </outline>
</glyph>
<glyph name="c_q" format="2">
  <advance width="535"/>
  <unicode hex="F1540"/>
  <outline>
    <contour>
      <point x="491" y="458" type="move"/>
      <point x="497.044" y="471.737"/>
      <point x="494.031" y="486.38"/>
      <point x="485.609" y="496.786" type="curve" smooth="yes"/>
      <point x="478.704" y="505.317"/>
      <point x="468.164" y="511"/>
      <point x="456" y="511" type="curve" smooth="yes"/>
      <point x="444.768" y="511"/>
      <point x="435.094" y="506.154"/>
      <point x="428.344" y="498.695" type="curve" smooth="yes"/>
      <point x="418.87" y="488.223"/>
      <point x="415.16" y="472.6"/>
      <point x="421" y="458" type="curve"/>
      <point x="421" y="433" type="line"/>
      <point x="384" y="482"/>
      <point x="332" y="513"/>
      <point x="269" y="513" type="curve" smooth="yes"/>
      <point x="143" y="513"/>
      <point x="60" y="387"/>
      <point x="60" y="252" type="curve" smooth="yes"/>
      <point x="60" y="116"/>
      <point x="143" y="-10"/>
      <point x="269" y="-10" type="curve" smooth="yes"/>
      <point x="332" y="-10"/>
      <point x="384" y="22"/>
      <point x="421" y="70" type="curve"/>
      <point x="421" y="-189" type="line"/>
    </contour>
  </outline>
</glyph>
<glyph name="D_E" format="2">
  <advance width="1050"/>
  <unicode hex="F1610"/>
  <outline>
    <component base="E" xOffset="446"/>
    <contour>
      <point x="50" y="43" type="move"/>
      <point x="41" y="22"/>
      <point x="55" y="-1"/>
      <point x="78" y="-1" type="curve" smooth="yes"/>
      <point x="100" y="-1"/>
      <point x="115" y="22"/>
      <point x="106" y="43" type="curve"/>
      <point x="106" y="690" type="line"/>
    </contour>
    <contour>
      <point x="49" y="403" type="move"/>
      <point x="10" y="567"/>
      <point x="136" y="719"/>
      <point x="308" y="719" type="curve" smooth="yes"/>
      <point x="403" y="719"/>
      <point x="482" y="667"/>
      <point x="535" y="581" type="curve"/>
    </contour>
    <contour>
      <point x="480" y="54" type="move"/>
      <point x="442" y="22"/>
      <point x="403" y="4"/>
      <point x="359" y="-7" type="curve" smooth="yes"/>
      <point x="271" y="-29"/>
      <point x="161" y="-4"/>
      <point x="106" y="51" type="curve"/>
    </contour>
  </outline>
</glyph>
<glyph name="D_U_D_E_L_A" format="2">
  <advance width="3238"/>
  <unicode hex="F1630"/>
  <outline>
    <component base="D" xOffset="-0.3818"/>
    <component base="U" xOffset="557.087" yOffset="-0.0582"/>
    <component base="D_E" xOffset="1182" yOffset="-0.175"/>
    <contour>
      <point x="2380" y="661" type="move"/>
      <point x="2375" y="688"/>
      <point x="2347" y="716"/>
      <point x="2318" y="716" type="curve" smooth="yes"/>
      <point x="2255" y="716"/>
      <point x="2235" y="659"/>
      <point x="2239" y="589" type="curve" smooth="yes"/>
      <point x="2248" y="419"/>
      <point x="2337" y="254"/>
      <point x="2296" y="89" type="curve"/>
      <point x="2289" y="55"/>
      <point x="2273" y="22"/>
      <point x="2240" y="17" type="curve" smooth="yes"/>
      <point x="2213" y="13"/>
      <point x="2186" y="31"/>
      <point x="2183" y="60" type="curve" smooth="yes"/>
      <point x="2168" y="176"/>
      <point x="2321" y="120"/>
      <point x="2462" y="25" type="curve" smooth="yes"/>
      <point x="2555" y="-36"/>
      <point x="2693" y="4"/>
      <point x="2724" y="111" type="curve" smooth="yes"/>
      <point x="2760" y="235"/>
      <point x="2735" y="372"/>
      <point x="2758" y="502" type="curve" smooth="yes"/>
      <point x="2777" y="611"/>
      <point x="2835" y="714"/>
      <point x="2943" y="714" type="curve" smooth="yes"/>
      <point x="3052" y="714"/>
      <point x="3110" y="611"/>
      <point x="3128" y="502" type="curve" smooth="yes"/>
      <point x="3155" y="352"/>
      <point x="3124" y="193"/>
      <point x="3181" y="52" type="curve"/>
      <point x="3189" y="34"/>
      <point x="3198" y="16"/>
      <point x="3208" y="-1" type="curve"/>
    </contour>
    <contour>
      <point x="2705" y="284" type="move"/>
      <point x="3181" y="284" type="line"/>
    </contour>
  </outline>
</glyph>
<glyph name="d_e" format="2">
  <advance width="891"/>
  <unicode hex="F1710"/>
  <outline>
    <component base="e" xOffset="403"/>
    <contour>
      <point x="439" y="292" type="curve" smooth="yes"/>
      <point x="422" y="414"/>
      <point x="336" y="519"/>
      <point x="222" y="509" type="curve" smooth="yes"/>
      <point x="107" y="499"/>
      <point x="41" y="382"/>
      <point x="39" y="260" type="curve" smooth="yes"/>
      <point x="36" y="132"/>
      <point x="104" y="6"/>
      <point x="222" y="-4" type="curve" smooth="yes"/>
      <point x="364" y="-16"/>
      <point x="461" y="134"/>
    </contour>
    <contour>
      <point x="442" y="252" type="move"/>
      <point x="442" y="699" type="line"/>
    </contour>
  </outline>
</glyph>
<glyph name="E_A" format="2">
  <advance width="1077"/>
  <unicode hex="F1810"/>
  <outline>
    <contour>
      <point x="536" y="715" type="move"/>
      <point x="509" y="601"/>
      <point x="373" y="556"/>
      <point x="285" y="630" type="curve" smooth="yes"/>
      <point x="248" y="662"/>
      <point x="223" y="715"/>
      <point x="173" y="715" type="curve" smooth="yes"/>
      <point x="113" y="715"/>
      <point x="86" y="644"/>
      <point x="90" y="575" type="curve" smooth="yes"/>
      <point x="98" y="409"/>
      <point x="184" y="250"/>
      <point x="145" y="88" type="curve"/>
      <point x="138" y="54"/>
      <point x="121" y="22"/>
      <point x="90" y="17" type="curve" smooth="yes"/>
      <point x="63" y="13"/>
      <point x="37" y="32"/>
      <point x="34" y="60" type="curve" smooth="yes"/>
      <point x="19" y="173"/>
      <point x="169" y="118"/>
      <point x="307" y="25" type="curve" smooth="yes"/>
      <point x="397" y="-35"/>
      <point x="533" y="5"/>
      <point x="563" y="109" type="curve" smooth="yes"/>
      <point x="598" y="230"/>
      <point x="574" y="375"/>
      <point x="597" y="502" type="curve" smooth="yes"/>
      <point x="616" y="611"/>
      <point x="674" y="714"/>
      <point x="782" y="714" type="curve" smooth="yes"/>
      <point x="891" y="714"/>
      <point x="949" y="611"/>
      <point x="967" y="502" type="curve" smooth="yes"/>
      <point x="994" y="352"/>
      <point x="963" y="193"/>
      <point x="1020" y="52" type="curve"/>
      <point x="1028" y="34"/>
      <point x="1037" y="16"/>
      <point x="1047" y="-1" type="curve"/>
    </contour>
    <contour>
      <point x="79" y="376" type="move"/>
      <point x="447" y="376" type="line"/>
    </contour>
    <contour>
      <point x="544" y="284" type="move"/>
      <point x="1020" y="284" type="line"/>
    </contour>
  </outline>
</glyph>
<glyph name="Eacute_E" format="2">
  <advance width="1017"/>
  <unicode hex="F1820"/>
  <outline>
    <contour>
      <point x="78" y="376" type="move"/>
      <point x="860" y="376" type="line"/>
    </contour>
    <contour>
      <point x="949" y="715" type="move"/>
      <point x="922" y="601"/>
      <point x="785.693" y="555.636"/>
      <point x="698" y="630" type="curve" smooth="yes"/>
      <point x="660.69" y="661.638"/>
      <point x="636" y="715"/>
      <point x="586" y="715" type="curve" smooth="yes"/>
      <point x="526" y="715"/>
      <point x="499.475" y="644.026"/>
      <point x="503" y="575" type="curve" smooth="yes"/>
      <point x="511.475" y="409.024"/>
      <point x="597" y="250"/>
      <point x="558" y="88" type="curve"/>
      <point x="551" y="54"/>
      <point x="534.029" y="21.8149"/>
      <point x="503" y="17" type="curve" smooth="yes"/>
      <point x="476.028" y="12.8147"/>
      <point x="450.566" y="32.0664"/>
      <point x="447" y="60" type="curve" smooth="yes"/>
      <point x="432.565" y="173.074"/>
      <point x="581.817" y="117.728"/>
      <point x="720" y="25" type="curve" smooth="yes"/>
      <point x="809.818" y="-35.2724"/>
      <point x="940" y="7"/>
      <point x="976" y="109" type="curve"/>
    </contour>
    <contour>
      <point x="522" y="674" type="move"/>
      <point x="477" y="591"/>
      <point x="360.587" y="565.506"/>
      <point x="284" y="630" type="curve" smooth="yes"/>
      <point x="246.582" y="661.51"/>
      <point x="222" y="715"/>
      <point x="172" y="715" type="curve" smooth="yes"/>
      <point x="112" y="715"/>
      <point x="85.4753" y="644.026"/>
      <point x="89" y="575" type="curve" smooth="yes"/>
      <point x="97.4754" y="409.024"/>
      <point x="183" y="250"/>
      <point x="144" y="88" type="curve"/>
      <point x="137" y="54"/>
      <point x="120.029" y="21.8149"/>
      <point x="89" y="17" type="curve" smooth="yes"/>
      <point x="62.0281" y="12.8147"/>
      <point x="36.566" y="32.0664"/>
      <point x="33" y="60" type="curve" smooth="yes"/>
      <point x="18.5651" y="173.074"/>
      <point x="167.87" y="117.806"/>
      <point x="306" y="25" type="curve" smooth="yes"/>
      <point x="359.87" y="-11.194"/>
      <point x="430" y="-10"/>
      <point x="484" y="18" type="curve"/>
    </contour>
    <contour>
      <point x="181" y="785" type="move"/>
      <point x="423" y="889" type="line"/>
    </contour>
  </outline>
</glyph>
<glyph name="E_T" format="2">
  <advance width="1186"/>
  <unicode hex="F1860"/>
  <outline>
    <contour>
      <point x="1165" y="637" type="move"/>
      <point x="1160" y="652"/>
      <point x="1151" y="665"/>
      <point x="1139" y="675" type="curve" smooth="yes"/>
      <point x="1050" y="753"/>
      <point x="939" y="637"/>
      <point x="832" y="637" type="curve" smooth="yes"/>
      <point x="734.202" y="637"/>
      <point x="582.874" y="766.81"/>
      <point x="511" y="659" type="curve"/>
      <point x="460" y="589"/>
      <point x="357" y="570"/>
      <point x="285" y="630" type="curve" smooth="yes"/>
      <point x="248" y="662"/>
      <point x="223" y="715"/>
      <point x="173" y="715" type="curve" smooth="yes"/>
      <point x="113" y="715"/>
      <point x="86" y="644"/>
      <point x="90" y="575" type="curve" smooth="yes"/>
      <point x="98" y="409"/>
      <point x="184" y="250"/>
      <point x="145" y="88" type="curve"/>
      <point x="138" y="54"/>
      <point x="121" y="22"/>
      <point x="90" y="17" type="curve" smooth="yes"/>
      <point x="63" y="13"/>
      <point x="37" y="32"/>
      <point x="34" y="60" type="curve" smooth="yes"/>
      <point x="19" y="173"/>
      <point x="169" y="118"/>
      <point x="307" y="25" type="curve" smooth="yes"/>
      <point x="397" y="-35"/>
      <point x="527" y="7"/>
      <point x="563" y="109" type="curve"/>
    </contour>
    <contour>
      <point x="79" y="376" type="move"/>
      <point x="447" y="376" type="line"/>
    </contour>
    <contour>
      <point x="832" y="636" type="move"/>
      <point x="832" y="0" type="line"/>
    </contour>
  </outline>
</glyph>
<glyph name="E_T_T" format="2">
  <advance width="1653"/>
  <unicode hex="F1870"/>
  <outline>
    <contour>
      <point x="830" y="636" type="move"/>
      <point x="830" y="0" type="line"/>
    </contour>
    <contour>
      <point x="1299" y="636" type="move"/>
      <point x="1299" y="0" type="line"/>
    </contour>
    <contour>
      <point x="562.268" y="111.944" type="move"/>
      <point x="525.941" y="9.19267"/>
      <point x="396.141" y="-32.4177"/>
      <point x="305.907" y="27.8749" type="curve" smooth="yes"/>
      <point x="167.803" y="120.153"/>
      <point x="18.7912" y="175.305"/>
      <point x="32.9387" y="62.1256" type="curve" smooth="yes"/>
      <point x="36.436" y="34.1475"/>
      <point x="62.0283" y="15.2393"/>
      <point x="88.9853" y="19.5717" type="curve" smooth="yes"/>
      <point x="120.152" y="24.5806"/>
      <point x="136.08" y="57.0848"/>
      <point x="143.994" y="90.1489" type="curve" smooth="yes"/>
      <point x="182.786" y="252.218"/>
      <point x="97.8014" y="411.924"/>
      <point x="88.9853" y="577.961" type="curve" smooth="yes"/>
      <point x="85.3465" y="646.493"/>
      <point x="111.819" y="717.04"/>
      <point x="172.018" y="717.04" type="curve" smooth="yes"/>
      <point x="221.837" y="717.04"/>
      <point x="246.923" y="664.319"/>
      <point x="284.111" y="632.97" type="curve" smooth="yes"/>
      <point x="355.385" y="572.888"/>
      <point x="457.467" y="590.8"/>
      <point x="508.487" y="659.293" type="curve" smooth="yes"/>
      <point x="512.647" y="665.084"/>
      <point x="517.465" y="670.388"/>
      <point x="523" y="675" type="curve" smooth="yes"/>
      <point x="613" y="753"/>
      <point x="723" y="637"/>
      <point x="830" y="637" type="curve" smooth="yes"/>
      <point x="908" y="637"/>
      <point x="988" y="700"/>
      <point x="1060" y="702" type="curve" smooth="yes"/>
      <point x="1135" y="704"/>
      <point x="1218" y="637"/>
      <point x="1299" y="637" type="curve" smooth="yes"/>
      <point x="1406" y="637"/>
      <point x="1517" y="753"/>
      <point x="1606" y="675" type="curve" smooth="yes"/>
      <point x="1618" y="665"/>
      <point x="1627" y="652"/>
      <point x="1632" y="637" type="curve"/>
    </contour>
    <contour>
      <point x="77.5684" y="378.685" type="move"/>
      <point x="446.023" y="378.685" type="line"/>
    </contour>
  </outline>
</glyph>
<glyph name="Ecircumflex_T_E" format="2">
  <advance width="1674"/>
  <unicode hex="F1890"/>
  <outline>
    <component base="E" xOffset="1070"/>
    <contour>
      <point x="1164" y="637" type="move"/>
      <point x="1159" y="652"/>
      <point x="1149.78" y="664.739"/>
      <point x="1138" y="675" type="curve" smooth="yes"/>
      <point x="1048.77" y="752.741"/>
      <point x="938" y="637"/>
      <point x="831" y="637" type="curve" smooth="yes"/>
      <point x="724" y="637"/>
      <point x="614.093" y="752.893"/>
      <point x="524" y="675" type="curve" smooth="yes"/>
      <point x="518.092" y="669.892"/>
      <point x="514.228" y="664.842"/>
      <point x="510" y="659" type="curve" smooth="yes"/>
      <point x="459.224" y="588.837"/>
      <point x="355.622" y="569.549"/>
      <point x="284" y="630" type="curve" smooth="yes"/>
      <point x="246.617" y="661.552"/>
      <point x="222" y="715"/>
      <point x="172" y="715" type="curve" smooth="yes"/>
      <point x="112" y="715"/>
      <point x="85.4753" y="644.026"/>
      <point x="89" y="575" type="curve" smooth="yes"/>
      <point x="97.4754" y="409.024"/>
      <point x="183" y="250"/>
      <point x="144" y="88" type="curve"/>
      <point x="137" y="54"/>
      <point x="120.029" y="21.8149"/>
      <point x="89" y="17" type="curve" smooth="yes"/>
      <point x="62.0281" y="12.8147"/>
      <point x="36.566" y="32.0664"/>
      <point x="33" y="60" type="curve" smooth="yes"/>
      <point x="18.5651" y="173.074"/>
      <point x="167.817" y="117.728"/>
      <point x="306" y="25" type="curve" smooth="yes"/>
      <point x="395.818" y="-35.2724"/>
      <point x="526" y="7"/>
      <point x="562" y="109" type="curve"/>
    </contour>
    <contour>
      <point x="78" y="376" type="move"/>
      <point x="446" y="376" type="line"/>
    </contour>
    <contour>
      <point x="831" y="636" type="move"/>
      <point x="831" y="0" type="line"/>
    </contour>
    <contour>
      <point x="181" y="785" type="move"/>
      <point x="302" y="889" type="line"/>
      <point x="423" y="785" type="line"/>
    </contour>
  </outline>
</glyph>
<glyph name="E_U" format="2">
  <advance width="1102"/>
  <unicode hex="F18A0"/>
  <outline>
    <contour>
      <point x="1033" y="656" type="move"/>
      <point x="1045" y="671"/>
      <point x="1038" y="694"/>
      <point x="1018" y="699" type="curve" smooth="yes"/>
      <point x="996" y="705"/>
      <point x="976" y="682"/>
      <point x="976" y="656" type="curve" smooth="yes"/>
      <point x="976" y="472"/>
      <point x="1103" y="292"/>
      <point x="1018" y="123" type="curve" smooth="yes"/>
      <point x="976" y="37"/>
      <point x="906" y="-13"/>
      <point x="809" y="-21" type="curve" smooth="yes"/>
      <point x="690" y="-32"/>
      <point x="608" y="18"/>
      <point x="556" y="123" type="curve" smooth="yes"/>
      <point x="472" y="292"/>
      <point x="585" y="472"/>
      <point x="585" y="656" type="curve" smooth="yes"/>
      <point x="585" y="676"/>
      <point x="575" y="697"/>
      <point x="556" y="699" type="curve"/>
      <point x="542" y="701"/>
      <point x="529" y="693"/>
      <point x="524" y="682" type="curve" smooth="yes"/>
      <point x="481" y="593"/>
      <point x="364" y="563"/>
      <point x="285" y="630" type="curve" smooth="yes"/>
      <point x="248" y="662"/>
      <point x="223" y="715"/>
      <point x="173" y="715" type="curve" smooth="yes"/>
      <point x="113" y="715"/>
      <point x="86" y="644"/>
      <point x="90" y="575" type="curve" smooth="yes"/>
      <point x="98" y="409"/>
      <point x="184" y="250"/>
      <point x="145" y="88" type="curve"/>
      <point x="138" y="54"/>
      <point x="121" y="22"/>
      <point x="90" y="17" type="curve" smooth="yes"/>
      <point x="63" y="13"/>
      <point x="37" y="32"/>
      <point x="34" y="60" type="curve" smooth="yes"/>
      <point x="19" y="173"/>
      <point x="169" y="118"/>
      <point x="307" y="25" type="curve" smooth="yes"/>
      <point x="397" y="-35"/>
      <point x="527" y="7"/>
      <point x="563" y="109" type="curve"/>
    </contour>
    <contour>
      <point x="79" y="376" type="move"/>
      <point x="447" y="376" type="line"/>
    </contour>
  </outline>
</glyph>
<glyph name="E_S_S_E" format="2">
  <advance width="2068"/>
  <unicode hex="F18C0"/>
  <outline>
    <component base="E"/>
    <contour>
      <point x="2000" y="715" type="move"/>
      <point x="1973" y="601"/>
      <point x="1836.69" y="555.636"/>
      <point x="1749" y="630" type="curve" smooth="yes"/>
      <point x="1711.69" y="661.638"/>
      <point x="1687" y="715"/>
      <point x="1637" y="715" type="curve" smooth="yes"/>
      <point x="1577" y="715"/>
      <point x="1550.48" y="644.026"/>
      <point x="1554" y="575" type="curve" smooth="yes"/>
      <point x="1562.48" y="409.024"/>
      <point x="1648" y="250"/>
      <point x="1609" y="88" type="curve"/>
      <point x="1602" y="54"/>
      <point x="1585.03" y="21.8149"/>
      <point x="1554" y="17" type="curve" smooth="yes"/>
      <point x="1527.03" y="12.8147"/>
      <point x="1501.57" y="32.0664"/>
      <point x="1498" y="60" type="curve" smooth="yes"/>
      <point x="1483.57" y="173.074"/>
      <point x="1632.82" y="117.728"/>
      <point x="1771" y="25" type="curve" smooth="yes"/>
      <point x="1860.82" y="-35.2724"/>
      <point x="1991" y="7"/>
      <point x="2027" y="109" type="curve"/>
    </contour>
    <contour>
      <point x="1006" y="529" type="move"/>
      <point x="959" y="642"/>
      <point x="872.015" y="708.177"/>
      <point x="768" y="717" type="curve" smooth="yes"/>
      <point x="648.015" y="727.177"/>
      <point x="538.498" y="649.957"/>
      <point x="548" y="541" type="curve" smooth="yes"/>
      <point x="568.498" y="305.956"/>
      <point x="955.991" y="418.703"/>
      <point x="1015" y="220" type="curve" smooth="yes"/>
      <point x="1053.99" y="88.6968"/>
      <point x="923.003" y="-31.9714"/>
      <point x="768" y="-14" type="curve" smooth="yes"/>
      <point x="647.003" y="0.0285997"/>
      <point x="547" y="87"/>
      <point x="519" y="206" type="curve"/>
    </contour>
    <contour>
      <point x="1013" y="119" type="move"/>
      <point x="1060" y="45"/>
      <point x="1137.02" y="-3.8619"/>
      <point x="1225" y="-14" type="curve" smooth="yes"/>
      <point x="1380.02" y="-31.8619"/>
      <point x="1510.99" y="88.6968"/>
      <point x="1472" y="220" type="curve" smooth="yes"/>
      <point x="1412.99" y="418.703"/>
      <point x="1025.5" y="305.956"/>
      <point x="1005" y="541" type="curve" smooth="yes"/>
      <point x="995.498" y="649.957"/>
      <point x="1105.05" y="727.6"/>
      <point x="1225" y="717" type="curve" smooth="yes"/>
      <point x="1320.05" y="708.6"/>
      <point x="1419.27" y="660.076"/>
      <point x="1449" y="555" type="curve" smooth="yes"/>
      <point x="1492.27" y="402.076"/>
      <point x="1514" y="377.588"/>
      <point x="1661" y="377" type="curve" smooth="yes"/>
      <point x="1911" y="376" type="line"/>
    </contour>
  </outline>
</glyph>
<glyph name="e_a" format="2">
  <advance width="930"/>
  <unicode hex="F1910"/>
  <outline>
    <contour>
      <point x="440.15" y="143.751" type="move"/>
      <point x="417.15" y="65.7508"/>
      <point x="346" y="2"/>
      <point x="259" y="-10" type="curve" smooth="yes"/>
      <point x="135" y="-26"/>
      <point x="57" y="59"/>
      <point x="45" y="174" type="curve" smooth="yes"/>
      <point x="41.7101" y="206.077"/>
      <point x="105.39" y="216.337"/>
      <point x="183.533" y="229.54" type="curve" smooth="yes"/>
      <point x="295.408" y="248.443"/>
      <point x="436.926" y="273.378"/>
      <point x="454" y="377" type="curve" smooth="yes"/>
      <point x="468" y="465"/>
      <point x="360" y="531"/>
      <point x="259" y="514" type="curve" smooth="yes"/>
      <point x="181" y="500"/>
      <point x="117" y="467"/>
      <point x="70" y="376" type="curve" smooth="yes"/>
      <point x="18" y="275"/>
      <point x="39" y="139"/>
      <point x="74" y="79" type="curve"/>
    </contour>
    <contour>
      <point x="453" y="377" type="move"/>
      <point x="467" y="465"/>
      <point x="556" y="516"/>
      <point x="640" y="515" type="curve" smooth="yes"/>
      <point x="751" y="514"/>
      <point x="837" y="420"/>
      <point x="828" y="310" type="curve"/>
      <point x="828" y="53" type="line"/>
      <point x="821.977" y="37.9425"/>
      <point x="826.111" y="22.1595"/>
      <point x="836.252" y="11.9873" type="curve" smooth="yes"/>
      <point x="842.948" y="5.27048"/>
      <point x="852.262" y="1"/>
      <point x="863" y="1" type="curve" smooth="yes"/>
      <point x="874.139" y="1"/>
      <point x="883.809" y="5.95543"/>
      <point x="890.439" y="13.5861" type="curve" smooth="yes"/>
      <point x="899.284" y="23.767"/>
      <point x="902.716" y="38.7102"/>
      <point x="897" y="53" type="curve"/>
    </contour>
    <contour>
      <point x="828" y="310" type="move"/>
      <point x="828" y="95"/>
      <point x="518" y="287"/>
      <point x="452" y="173" type="curve" smooth="yes"/>
      <point x="398" y="81"/>
      <point x="502" y="-35"/>
      <point x="640" y="-9" type="curve" smooth="yes"/>
      <point x="733" y="9"/>
      <point x="807" y="80"/>
      <point x="828" y="173" type="curve"/>
    </contour>
  </outline>
</glyph>
<glyph name="e_s" format="2">
  <advance width="872"/>
  <unicode hex="F1950"/>
  <outline>
    <component base="s" xOffset="393"/>
    <contour>
      <point x="427" y="115" type="move"/>
      <point x="396" y="48"/>
      <point x="334" y="0"/>
      <point x="259" y="-10" type="curve" smooth="yes"/>
      <point x="135" y="-26"/>
      <point x="57" y="59"/>
      <point x="45" y="174" type="curve" smooth="yes"/>
      <point x="41.8483" y="204.729"/>
      <point x="97.9867" y="215.437"/>
      <point x="168.961" y="227.891" type="curve" smooth="yes"/>
      <point x="278.14" y="247.048"/>
      <point x="422.425" y="270.338"/>
      <point x="440" y="377" type="curve" smooth="yes"/>
      <point x="454" y="465"/>
      <point x="360" y="531"/>
      <point x="259" y="514" type="curve" smooth="yes"/>
      <point x="181" y="500"/>
      <point x="117" y="467"/>
      <point x="70" y="376" type="curve" smooth="yes"/>
      <point x="18" y="275"/>
      <point x="39" y="139"/>
      <point x="74" y="79" type="curve"/>
    </contour>
  </outline>
</glyph>
<glyph name="e_t" format="2">
  <advance width="762"/>
  <unicode hex="F1960"/>
  <outline>
    <component base="e"/>
    <contour>
      <point x="448" y="676" type="move"/>
      <point x="448" y="493" type="line"/>
    </contour>
    <contour>
      <point x="380.279" y="493" type="move"/>
      <point x="692" y="493" type="line"/>
    </contour>
    <contour>
      <point x="446" y="161" type="move"/>
      <point x="429" y="74"/>
      <point x="494" y="-10"/>
      <point x="583" y="-13" type="curve" smooth="yes"/>
      <point x="648" y="-15"/>
      <point x="705" y="27"/>
      <point x="721" y="91" type="curve"/>
    </contour>
  </outline>
</glyph>
<glyph name="ecircumflex_t_e" format="2">
  <advance width="1142"/>
  <unicode hex="F1990"/>
  <outline>
    <component base="ecircumflex"/>
    <component base="e" xOffset="654"/>
    <contour>
      <point x="448" y="676" type="move"/>
      <point x="448" y="493" type="line"/>
    </contour>
    <contour>
      <point x="380.279" y="493" type="move"/>
      <point x="692" y="493" type="line"/>
    </contour>
    <contour>
      <point x="446" y="161" type="move"/>
      <point x="429" y="74"/>
      <point x="494" y="-10"/>
      <point x="583" y="-13" type="curve" smooth="yes"/>
      <point x="648" y="-15"/>
      <point x="705" y="27"/>
      <point x="721" y="91" type="curve"/>
    </contour>
  </outline>
</glyph>
<glyph name="e_u" format="2">
  <advance width="921"/>
  <unicode hex="F19A0"/>
  <outline>
    <component base="u" xOffset="366"/>
    <contour>
      <point x="457" y="176" type="move"/>
      <point x="439" y="79"/>
      <point x="359" y="4"/>
      <point x="259" y="-10" type="curve" smooth="yes"/>
      <point x="135" y="-26"/>
      <point x="57" y="59"/>
      <point x="45" y="174" type="curve" smooth="yes"/>
      <point x="42.1004" y="202.272"/>
      <point x="89.3858" y="213.596"/>
      <point x="152.238" y="224.925" type="curve" smooth="yes"/>
      <point x="262.793" y="244.851"/>
      <point x="421.511" y="264.792"/>
      <point x="440" y="377" type="curve" smooth="yes"/>
      <point x="454" y="465"/>
      <point x="360" y="531"/>
      <point x="259" y="514" type="curve" smooth="yes"/>
      <point x="181" y="500"/>
      <point x="117" y="467"/>
      <point x="70" y="376" type="curve" smooth="yes"/>
      <point x="18" y="275"/>
      <point x="39" y="139"/>
      <point x="74" y="79" type="curve"/>
    </contour>
  </outline>
</glyph>
<glyph name="F_E" format="2">
  <advance width="1020"/>
  <unicode hex="F2010"/>
  <outline>
    <contour>
      <point x="118" y="44" type="move"/>
      <point x="110.878" y="32.4959"/>
      <point x="112.76" y="19.4913"/>
      <point x="119.863" y="10.7402" type="curve" smooth="yes"/>
      <point x="125.726" y="3.51668"/>
      <point x="135.148" y="-0.8087"/>
      <point x="146" y="1" type="curve" smooth="yes"/>
      <point x="164" y="4"/>
      <point x="172" y="25"/>
      <point x="174" y="44" type="curve"/>
      <point x="200" y="227"/>
      <point x="40" y="387"/>
      <point x="61" y="571" type="curve" smooth="yes"/>
      <point x="69.1656" y="647.212"/>
      <point x="117.667" y="715.193"/>
      <point x="182.604" y="715.193" type="curve" smooth="yes"/>
      <point x="213.733" y="715.193"/>
      <point x="236.858" y="701.906"/>
      <point x="259.522" y="681.101" type="curve" smooth="yes"/>
      <point x="278.623" y="663.567"/>
      <point x="296.086" y="642.551"/>
      <point x="317" y="627" type="curve"/>
      <point x="377" y="585"/>
      <point x="453" y="588"/>
      <point x="509" y="627" type="curve"/>
    </contour>
    <contour>
      <point x="952" y="715" type="move"/>
      <point x="925" y="601"/>
      <point x="789" y="556"/>
      <point x="701" y="630" type="curve" smooth="yes"/>
      <point x="664" y="662"/>
      <point x="639" y="715"/>
      <point x="589" y="715" type="curve" smooth="yes"/>
      <point x="529" y="715"/>
      <point x="502" y="644"/>
      <point x="506" y="575" type="curve" smooth="yes"/>
      <point x="514" y="409"/>
      <point x="600" y="250"/>
      <point x="561" y="88" type="curve"/>
      <point x="554" y="54"/>
      <point x="537" y="22"/>
      <point x="506" y="17" type="curve" smooth="yes"/>
      <point x="479" y="13"/>
      <point x="453" y="32"/>
      <point x="450" y="60" type="curve" smooth="yes"/>
      <point x="435" y="173"/>
      <point x="585" y="118"/>
      <point x="723" y="25" type="curve" smooth="yes"/>
      <point x="813" y="-35"/>
      <point x="943" y="7"/>
      <point x="979" y="109" type="curve"/>
    </contour>
    <contour>
      <point x="40" y="376" type="move"/>
      <point x="863" y="376" type="line"/>
    </contour>
  </outline>
</glyph>
<glyph name="F_F_E" format="2">
  <advance width="1430"/>
  <unicode hex="F2030"/>
  <outline>
    <contour>
      <point x="117" y="44" type="move"/>
      <point x="109.79" y="32.3524"/>
      <point x="111.808" y="19.1667"/>
      <point x="119.131" y="10.4147" type="curve" smooth="yes"/>
      <point x="125.011" y="3.38735"/>
      <point x="134.312" y="-0.7814"/>
      <point x="145" y="1" type="curve" smooth="yes"/>
      <point x="163" y="4"/>
      <point x="171" y="25"/>
      <point x="173" y="44" type="curve"/>
      <point x="199" y="227"/>
      <point x="39" y="387"/>
      <point x="60" y="571" type="curve" smooth="yes"/>
      <point x="69" y="655"/>
      <point x="127" y="729"/>
      <point x="202" y="713" type="curve" smooth="yes"/>
      <point x="250" y="704"/>
      <point x="277" y="656"/>
      <point x="316" y="627" type="curve" smooth="yes"/>
      <point x="364" y="593"/>
      <point x="422" y="589"/>
      <point x="479" y="611" type="curve"/>
    </contour>
    <contour>
      <point x="528" y="44" type="move"/>
      <point x="520.771" y="32.3225"/>
      <point x="522.819" y="19.0989"/>
      <point x="530.188" y="10.3474" type="curve" smooth="yes"/>
      <point x="536.071" y="3.36074"/>
      <point x="545.346" y="-0.7757"/>
      <point x="556" y="1" type="curve" smooth="yes"/>
      <point x="574" y="4"/>
      <point x="582" y="25"/>
      <point x="584" y="44" type="curve"/>
      <point x="610" y="227"/>
      <point x="450" y="387"/>
      <point x="471" y="571" type="curve" smooth="yes"/>
      <point x="480" y="655"/>
      <point x="538" y="729"/>
      <point x="613" y="713" type="curve" smooth="yes"/>
      <point x="635.042" y="708.867"/>
      <point x="652.656" y="696.51"/>
      <point x="669.036" y="681.546" type="curve" smooth="yes"/>
      <point x="688.328" y="663.923"/>
      <point x="705.909" y="642.683"/>
      <point x="727" y="627" type="curve"/>
      <point x="787" y="585"/>
      <point x="863" y="588"/>
      <point x="919" y="627" type="curve"/>
    </contour>
    <contour>
      <point x="1362" y="715" type="move"/>
      <point x="1335" y="601"/>
      <point x="1199" y="556"/>
      <point x="1111" y="630" type="curve" smooth="yes"/>
      <point x="1074" y="662"/>
      <point x="1049" y="715"/>
      <point x="999" y="715" type="curve" smooth="yes"/>
      <point x="939" y="715"/>
      <point x="912" y="644"/>
      <point x="916" y="575" type="curve" smooth="yes"/>
      <point x="924" y="409"/>
      <point x="1010" y="250"/>
      <point x="971" y="88" type="curve"/>
      <point x="964" y="54"/>
      <point x="947" y="22"/>
      <point x="916" y="17" type="curve" smooth="yes"/>
      <point x="889" y="13"/>
      <point x="863" y="32"/>
      <point x="860" y="60" type="curve" smooth="yes"/>
      <point x="845" y="173"/>
      <point x="995" y="118"/>
      <point x="1133" y="25" type="curve" smooth="yes"/>
      <point x="1223" y="-35"/>
      <point x="1353" y="7"/>
      <point x="1389" y="109" type="curve"/>
    </contour>
    <contour>
      <point x="40" y="376" type="move"/>
      <point x="1273" y="376" type="line"/>
    </contour>
  </outline>
</glyph>
<glyph name="f_v" format="2">
  <advance width="511"/>
  <unicode hex="F2150"/>
  <outline>
    <contour>
      <point x="90" y="493" type="move"/>
      <point x="90" y="525" type="line"/>
      <point x="73" y="614"/>
      <point x="139" y="697"/>
      <point x="229" y="700" type="curve" smooth="yes"/>
      <point x="295" y="702"/>
      <point x="353" y="659"/>
      <point x="369" y="595" type="curve"/>
    </contour>
    <contour>
      <point x="20" y="493" type="move"/>
      <point x="229" y="493" type="line"/>
    </contour>
    <contour>
      <point x="90" y="493" type="move"/>
      <point x="178" y="361"/>
      <point x="233" y="209"/>
      <point x="252" y="51" type="curve"/>
      <point x="254" y="27"/>
      <point x="263" y="1"/>
      <point x="285" y="1" type="curve" smooth="yes"/>
      <point x="307" y="1"/>
      <point x="315" y="27"/>
      <point x="318" y="51" type="curve" smooth="yes"/>
      <point x="336" y="209"/>
      <point x="391" y="361"/>
      <point x="480" y="493" type="curve"/>
    </contour>
  </outline>
</glyph>
<glyph name="G_U" format="2">
  <advance width="1094"/>
  <unicode hex="F2210"/>
  <outline>
    <component base="G"/>
    <contour>
      <point x="548.035" y="127.068" type="move"/>
      <point x="599.745" y="22.6137"/>
      <point x="682.481" y="-28.0621"/>
      <point x="801.414" y="-16.6859" type="curve" smooth="yes"/>
      <point x="897.594" y="-8.41228"/>
      <point x="967.92" y="41.2293"/>
      <point x="1010.32" y="127.068" type="curve" smooth="yes"/>
      <point x="1095.13" y="296.676"/>
      <point x="967.92" y="476.627"/>
      <point x="967.92" y="659.681" type="curve" smooth="yes"/>
      <point x="967.92" y="673.583"/>
      <point x="973.172" y="686.378"/>
      <point x="981.389" y="694.638" type="curve" smooth="yes"/>
      <point x="989.067" y="702.356"/>
      <point x="999.333" y="706.114"/>
      <point x="1010.32" y="703.117" type="curve" smooth="yes"/>
      <point x="1016.97" y="701.367"/>
      <point x="1022.2" y="697.603"/>
      <point x="1025.73" y="692.787" type="curve" smooth="yes"/>
      <point x="1032.62" y="683.374"/>
      <point x="1033.01" y="669.944"/>
      <point x="1024.8" y="659.681" type="curve"/>
    </contour>
  </outline>
</glyph>
<glyph name="g_u" format="2">
  <advance width="919"/>
  <unicode hex="F2310"/>
  <outline>
    <contour>
      <point x="454" y="258" type="curve" smooth="yes"/>
      <point x="457" y="128"/>
      <point x="389" y="2"/>
      <point x="268" y="-9" type="curve" smooth="yes"/>
      <point x="135.485" y="-20.1201"/>
      <point x="40.7543" y="109.592"/>
      <point x="45.8777" y="256.792" type="curve" smooth="yes"/>
      <point x="50.061" y="376.984"/>
      <point x="128.832" y="522.797"/>
      <point x="268" y="512" type="curve" smooth="yes"/>
      <point x="385" y="502"/>
      <point x="452" y="383"/>
    </contour>
    <contour>
      <point x="522" y="451" type="move"/>
      <point x="530.222" y="461.572"/>
      <point x="530.511" y="475.248"/>
      <point x="524.892" y="485.95" type="curve" smooth="yes"/>
      <point x="520.944" y="493.471"/>
      <point x="514.079" y="499.524"/>
      <point x="505" y="502" type="curve" smooth="yes"/>
      <point x="490.647" y="505.721"/>
      <point x="477.142" y="500.117"/>
      <point x="467.639" y="489.243" type="curve" smooth="yes"/>
      <point x="459.627" y="480.074"/>
      <point x="454.46" y="467.16"/>
      <point x="454.029" y="452.931" type="curve" smooth="yes"/>
      <point x="454.01" y="452.29"/>
      <point x="454.073" y="174.503"/>
      <point x="454" y="173.861" type="curve" smooth="yes"/>
      <point x="437.17" y="26.6955"/>
      <point x="537.683" y="-109.823"/>
      <point x="672.908" y="-95.9031" type="curve" smooth="yes"/>
      <point x="793.218" y="-82.9772"/>
      <point x="858.842" y="42.305"/>
      <point x="858.842" y="171.564" type="curve" smooth="yes"/>
      <point x="858.842" y="418.15" type="line"/>
    </contour>
    <contour>
      <point x="574.14" y="-78.1025" type="move"/>
      <point x="580.238" y="-83.7877"/>
      <point x="585.633" y="-90.0124"/>
      <point x="590" y="-97" type="curve" smooth="yes"/>
      <point x="633" y="-166"/>
      <point x="579" y="-257"/>
      <point x="488" y="-266" type="curve" smooth="yes"/>
      <point x="371" y="-277"/>
      <point x="296" y="-149"/>
      <point x="184" y="-131" type="curve" smooth="yes"/>
      <point x="91" y="-115"/>
      <point x="3" y="-174"/>
      <point x="-19" y="-266" type="curve"/>
    </contour>
    <contour>
      <point x="858.842" y="-81.9829" type="move"/>
      <point x="858.842" y="418.15" type="line"/>
    </contour>
  </outline>
</glyph>
<glyph name="H_O_F" format="2">
  <advance width="1480"/>
  <unicode hex="F2410"/>
  <outline>
    <component base="O" xOffset="444.495" yOffset="-0.0463"/>
    <contour>
      <point x="47" y="44" type="move"/>
      <point x="34" y="24"/>
      <point x="51" y="-2"/>
      <point x="75" y="2" type="curve"/>
      <point x="93" y="6"/>
      <point x="100" y="25"/>
      <point x="103" y="44" type="curve" smooth="yes"/>
      <point x="117" y="147"/>
      <point x="75" y="248"/>
      <point x="75" y="351" type="curve" smooth="yes"/>
      <point x="75" y="455"/>
      <point x="117" y="555"/>
      <point x="103" y="658" type="curve" smooth="yes"/>
      <point x="100" y="677"/>
      <point x="93" y="697"/>
      <point x="75" y="700" type="curve" smooth="yes"/>
      <point x="51" y="704"/>
      <point x="34" y="678"/>
      <point x="47" y="658" type="curve"/>
    </contour>
    <contour>
      <point x="75" y="351" type="move"/>
      <point x="474" y="351" type="line"/>
    </contour>
    <contour>
      <point x="966" y="351" type="move"/>
      <point x="1339" y="351" type="line"/>
    </contour>
    <contour>
      <point x="995" y="460" type="move"/>
      <point x="990" y="476"/>
      <point x="981" y="514"/>
      <point x="987" y="571" type="curve" smooth="yes"/>
      <point x="996" y="655"/>
      <point x="1054" y="729"/>
      <point x="1129" y="713" type="curve" smooth="yes"/>
      <point x="1177" y="704"/>
      <point x="1204" y="656"/>
      <point x="1243" y="627" type="curve"/>
      <point x="1336" y="562"/>
      <point x="1465" y="605"/>
      <point x="1499" y="713" type="curve"/>
    </contour>
  </outline>
</glyph>
<glyph name="h_o_f" format="2">
  <advance width="1164"/>
  <unicode hex="F2510"/>
  <outline>
    <component base="h"/>
    <component base="o" xOffset="450"/>
    <contour>
      <point x="914" y="2" type="move"/>
      <point x="914" y="250" type="line"/>
    </contour>
    <contour>
      <point x="844" y="493" type="move"/>
      <point x="1053" y="493" type="line"/>
    </contour>
    <contour>
      <point x="914" y="493" type="move"/>
      <point x="914" y="525" type="line"/>
      <point x="897" y="614"/>
      <point x="963" y="697"/>
      <point x="1053" y="700" type="curve" smooth="yes"/>
      <point x="1119" y="702"/>
      <point x="1177" y="659"/>
      <point x="1193" y="595" type="curve"/>
    </contour>
  </outline>
</glyph>
<glyph name="i_e" format="2">
  <advance width="558"/>
  <unicode hex="F2710"/>
  <outline>
    <component base="i"/>
    <contour>
      <point x="146" y="376" type="curve" smooth="yes"/>
      <point x="113" y="312"/>
      <point x="123" y="238"/>
      <point x="121" y="171" type="curve"/>
      <point x="121" y="172"/>
      <point x="121" y="173"/>
      <point x="121" y="174" type="curve" smooth="yes"/>
      <point x="121" y="215.311"/>
      <point x="228.153" y="218.754"/>
      <point x="330.889" y="239.891" type="curve" smooth="yes"/>
      <point x="422.129" y="258.663"/>
      <point x="509.885" y="291.392"/>
      <point x="516" y="377" type="curve" smooth="yes"/>
      <point x="522" y="466"/>
      <point x="436" y="531"/>
      <point x="335" y="514" type="curve" smooth="yes"/>
      <point x="257" y="500"/>
      <point x="193" y="467"/>
    </contour>
  </outline>
</glyph>
<glyph name="I_e_l" format="2">
  <advance width="662"/>
  <unicode hex="F2720"/>
  <outline>
    <component base="I"/>
    <component base="l" xOffset="494"/>
    <contour>
      <point x="587" y="228.835" type="move"/>
      <point x="587" y="128.459"/>
      <point x="492.634" y="-10"/>
      <point x="373" y="-10" type="curve" smooth="yes"/>
      <point x="247.4" y="-10"/>
      <point x="171" y="59"/>
      <point x="159" y="174" type="curve" smooth="yes"/>
      <point x="157.016" y="193.345"/>
      <point x="178.528" y="204.755"/>
      <point x="212.447" y="213.661" type="curve" smooth="yes"/>
      <point x="315.291" y="240.666"/>
      <point x="532.192" y="244.65"/>
      <point x="554" y="377" type="curve" smooth="yes"/>
      <point x="568" y="465"/>
      <point x="474" y="531"/>
      <point x="373" y="514" type="curve" smooth="yes"/>
      <point x="295" y="500"/>
      <point x="231" y="467"/>
      <point x="184" y="376" type="curve" smooth="yes"/>
      <point x="132" y="275"/>
      <point x="153" y="139"/>
      <point x="188" y="79" type="curve"/>
    </contour>
  </outline>
</glyph>
<glyph name="i_l" format="2">
  <advance width="295"/>
  <unicode hex="F2740"/>
  <outline>
    <contour>
      <point x="53" y="374" type="move"/>
      <point x="47.8083" y="386.46"/>
      <point x="50.1636" y="399.729"/>
      <point x="57.2672" y="409.608" type="curve" smooth="yes"/>
      <point x="63.8463" y="418.758"/>
      <point x="74.4983" y="425"/>
      <point x="87" y="425" type="curve" smooth="yes"/>
      <point x="99.1041" y="425"/>
      <point x="109.474" y="419.148"/>
      <point x="116.093" y="410.472" type="curve" smooth="yes"/>
      <point x="123.691" y="400.511"/>
      <point x="126.345" y="386.827"/>
      <point x="121" y="374" type="curve"/>
      <point x="121" y="47" type="line"/>
      <point x="114.874" y="32.2988"/>
      <point x="117.806" y="16.8471"/>
      <point x="131.309" y="7.08052" type="curve" smooth="yes"/>
      <point x="139.849" y="0.903"/>
      <point x="152.619" y="-3"/>
      <point x="170" y="-3" type="curve" smooth="yes"/>
      <point x="188.208" y="-3"/>
      <point x="201.314" y="0.9032"/>
      <point x="209.956" y="7.08093" type="curve" smooth="yes"/>
      <point x="223.619" y="16.8475"/>
      <point x="226.125" y="32.299"/>
      <point x="220" y="47" type="curve"/>
    </contour>
    <contour>
      <point x="87" y="600" type="curve" smooth="yes"/>
      <point x="65" y="600"/>
      <point x="53" y="575"/>
      <point x="53" y="549" type="curve" smooth="yes"/>
      <point x="53" y="524"/>
      <point x="65" y="498"/>
      <point x="87" y="498" type="curve" smooth="yes"/>
      <point x="110" y="498"/>
      <point x="121" y="524"/>
      <point x="121" y="549" type="curve" smooth="yes"/>
      <point x="121" y="575"/>
      <point x="110" y="600"/>
    </contour>
    <contour>
      <point x="150" y="648" type="move"/>
      <point x="145.268" y="659.829"/>
      <point x="146.805" y="672.106"/>
      <point x="152.598" y="681.758" type="curve" smooth="yes"/>
      <point x="159.049" y="692.506"/>
      <point x="170.775" y="700"/>
      <point x="185" y="700" type="curve" smooth="yes"/>
      <point x="200.121" y="700"/>
      <point x="212.732" y="691.532"/>
      <point x="218.971" y="679.69" type="curve" smooth="yes"/>
      <point x="223.872" y="670.386"/>
      <point x="224.84" y="659"/>
      <point x="220" y="648" type="curve"/>
      <point x="220" y="47" type="line"/>
    </contour>
  </outline>
</glyph>
<glyph name="L_E" format="2">
  <advance width="1000"/>
  <unicode hex="F3210"/>
  <outline>
    <component base="E" xOffset="396"/>
    <contour>
      <point x="229" y="661" type="move"/>
      <point x="224" y="688"/>
      <point x="196" y="716"/>
      <point x="167" y="716" type="curve" smooth="yes"/>
      <point x="104" y="716"/>
      <point x="84" y="659"/>
      <point x="88" y="589" type="curve" smooth="yes"/>
      <point x="97" y="419"/>
      <point x="186" y="254"/>
      <point x="145" y="89" type="curve"/>
      <point x="138" y="55"/>
      <point x="122" y="22"/>
      <point x="89" y="17" type="curve" smooth="yes"/>
      <point x="62" y="13"/>
      <point x="35" y="31"/>
      <point x="32" y="60" type="curve" smooth="yes"/>
      <point x="17" y="176"/>
      <point x="170" y="120"/>
      <point x="311" y="25" type="curve" smooth="yes"/>
      <point x="371" y="-14"/>
      <point x="446" y="-11"/>
      <point x="503" y="24" type="curve"/>
    </contour>
  </outline>
</glyph>
<glyph name="L_L" format="2">
  <advance width="1022"/>
  <unicode hex="F3220"/>
  <outline>
    <component base="L" xOffset="396"/>
    <contour>
      <point x="228.667" y="660.964" type="move"/>
      <point x="223.572" y="688.474"/>
      <point x="196.062" y="715.984"/>
      <point x="166.514" y="715.984" type="curve" smooth="yes"/>
      <point x="104.361" y="715.984"/>
      <point x="83.9828" y="658.926"/>
      <point x="88.0584" y="588.622" type="curve" smooth="yes"/>
      <point x="97.2285" y="419.484"/>
      <point x="185.873" y="254.423"/>
      <point x="145.117" y="89.3608" type="curve"/>
      <point x="137.985" y="54.7182"/>
      <point x="121.682" y="22.1134"/>
      <point x="89.0773" y="17.0189" type="curve" smooth="yes"/>
      <point x="61.567" y="12.9433"/>
      <point x="35.0756" y="31.2835"/>
      <point x="32.0189" y="59.8127" type="curve" smooth="yes"/>
      <point x="16.7354" y="175.967"/>
      <point x="169.57" y="119.928"/>
      <point x="311.198" y="25.1701" type="curve" smooth="yes"/>
      <point x="369.763" y="-13.4446"/>
      <point x="444.182" y="-11.0018"/>
      <point x="500.306" y="22.4846" type="curve"/>
    </contour>
  </outline>
</glyph>
<glyph name="L_L_E" format="2">
  <advance width="1395"/>
  <unicode hex="F3230"/>
  <outline>
    <component base="E" xOffset="791"/>
    <contour>
      <point x="624" y="661" type="move"/>
      <point x="619" y="688"/>
      <point x="591" y="716"/>
      <point x="562" y="716" type="curve" smooth="yes"/>
      <point x="499" y="716"/>
      <point x="479" y="659"/>
      <point x="483" y="589" type="curve" smooth="yes"/>
      <point x="492" y="419"/>
      <point x="581" y="254"/>
      <point x="540" y="89" type="curve"/>
      <point x="533" y="55"/>
      <point x="517" y="22"/>
      <point x="484" y="17" type="curve" smooth="yes"/>
      <point x="457" y="13"/>
      <point x="430" y="31"/>
      <point x="427" y="60" type="curve" smooth="yes"/>
      <point x="412" y="176"/>
      <point x="565" y="120"/>
      <point x="706" y="25" type="curve" smooth="yes"/>
      <point x="766" y="-14"/>
      <point x="841" y="-11"/>
      <point x="898" y="24" type="curve"/>
    </contour>
    <contour>
      <point x="229" y="661" type="move"/>
      <point x="224" y="688"/>
      <point x="196" y="716"/>
      <point x="167" y="716" type="curve" smooth="yes"/>
      <point x="104" y="716"/>
      <point x="84" y="659"/>
      <point x="88" y="589" type="curve" smooth="yes"/>
      <point x="97" y="419"/>
      <point x="186" y="254"/>
      <point x="145" y="89" type="curve"/>
      <point x="138" y="55"/>
      <point x="122" y="22"/>
      <point x="89" y="17" type="curve" smooth="yes"/>
      <point x="62" y="13"/>
      <point x="35" y="31"/>
      <point x="32" y="60" type="curve" smooth="yes"/>
      <point x="17" y="176"/>
      <point x="170" y="120"/>
      <point x="311" y="25" type="curve" smooth="yes"/>
      <point x="371" y="-14"/>
      <point x="446" y="-11"/>
      <point x="503" y="24" type="curve"/>
    </contour>
  </outline>
</glyph>
<glyph name="l_e" format="2">
  <advance width="542"/>
  <unicode hex="F3310"/>
  <outline>
    <component base="e" xOffset="54"/>
    <contour>
      <point x="23" y="648" type="move"/>
      <point x="17.6305" y="661.424"/>
      <point x="20.3339" y="675.424"/>
      <point x="28.1687" y="685.512" type="curve" smooth="yes"/>
      <point x="34.9252" y="694.211"/>
      <point x="45.4977" y="700"/>
      <point x="58" y="700" type="curve" smooth="yes"/>
      <point x="69.6797" y="700"/>
      <point x="79.8624" y="694.948"/>
      <point x="86.7672" y="687.19" type="curve" smooth="yes"/>
      <point x="95.8243" y="677.015"/>
      <point x="99.2416" y="662.185"/>
      <point x="93" y="648" type="curve"/>
      <point x="93" y="249" type="line"/>
    </contour>
  </outline>
</glyph>
<glyph name="l_l_e" format="2">
  <advance width="682"/>
  <unicode hex="F3330"/>
  <outline>
    <component base="l"/>
    <component base="e" xOffset="194"/>
    <contour>
      <point x="163" y="648" type="move"/>
      <point x="157.443" y="661.892"/>
      <point x="160.532" y="676.401"/>
      <point x="169.006" y="686.552" type="curve" smooth="yes"/>
      <point x="175.783" y="694.669"/>
      <point x="186.003" y="700"/>
      <point x="198" y="700" type="curve" smooth="yes"/>
      <point x="210.459" y="700"/>
      <point x="221.214" y="694.251"/>
      <point x="228.104" y="685.603" type="curve" smooth="yes"/>
      <point x="236.147" y="675.509"/>
      <point x="238.924" y="661.464"/>
      <point x="233" y="648" type="curve"/>
      <point x="233" y="249" type="line"/>
    </contour>
  </outline>
</glyph>
<glyph name="l_u" format="2">
  <advance width="599"/>
  <unicode hex="F3350"/>
  <outline>
    <component base="l"/>
    <contour>
      <point x="93" y="474" type="move"/>
      <point x="93" y="494"/>
      <point x="110" y="511"/>
      <point x="132" y="507" type="curve" smooth="yes"/>
      <point x="154" y="503"/>
      <point x="164" y="479"/>
      <point x="166" y="456" type="curve" smooth="yes"/>
      <point x="173" y="388"/>
      <point x="140" y="322"/>
      <point x="132" y="254" type="curve" smooth="yes"/>
      <point x="115" y="106"/>
      <point x="217" y="-28"/>
      <point x="352" y="-14" type="curve" smooth="yes"/>
      <point x="472" y="-1"/>
      <point x="537.472" y="124.001"/>
      <point x="538" y="254" type="curve" smooth="yes"/>
      <point x="539" y="500" type="line"/>
      <point x="538" y="0" type="line"/>
    </contour>
  </outline>
</glyph>
<glyph name="M_P" format="2">
  <advance width="1105"/>
  <unicode hex="F3410"/>
  <outline>
    <component base="M"/>
    <contour>
      <point x="569" y="373" type="move"/>
      <point x="500" y="565"/>
      <point x="653" y="719"/>
      <point x="812" y="721" type="curve" smooth="yes"/>
      <point x="887" y="722"/>
      <point x="964" y="690"/>
      <point x="1021" y="612" type="curve" smooth="yes"/>
      <point x="1059" y="558"/>
      <point x="1074" y="504"/>
      <point x="1073" y="451" type="curve" smooth="yes"/>
      <point x="1071" y="313"/>
      <point x="948" y="195"/>
      <point x="812" y="190" type="curve" smooth="yes"/>
      <point x="748" y="188"/>
      <point x="682" y="211"/>
      <point x="623" y="267" type="curve"/>
    </contour>
  </outline>
</glyph>
<glyph name="m_p" format="2">
  <advance width="1275"/>
  <unicode hex="F3510"/>
  <outline>
    <contour>
      <point x="90" y="2" type="move"/>
      <point x="90" y="144"/>
      <point x="115" y="288"/>
      <point x="191" y="408" type="curve" smooth="yes"/>
      <point x="223" y="458"/>
      <point x="267" y="504"/>
      <point x="326" y="509" type="curve" smooth="yes"/>
      <point x="403" y="515"/>
      <point x="467" y="451"/>
      <point x="461" y="374" type="curve"/>
      <point x="461" y="2" type="line"/>
    </contour>
    <contour>
      <point x="22" y="458" type="move"/>
      <point x="18.8871" y="469.414"/>
      <point x="21.965" y="480.828"/>
      <point x="28.8597" y="489.169" type="curve" smooth="yes"/>
      <point x="35.2545" y="496.906"/>
      <point x="44.9326" y="502"/>
      <point x="56" y="502" type="curve" smooth="yes"/>
      <point x="67.9008" y="502"/>
      <point x="77.9276" y="496.11"/>
      <point x="84.1407" y="487.377" type="curve" smooth="yes"/>
      <point x="89.9353" y="479.233"/>
      <point x="92.4128" y="468.617"/>
      <point x="90" y="458" type="curve"/>
      <point x="90" y="2" type="line"/>
    </contour>
    <contour>
      <point x="461" y="2" type="move"/>
      <point x="461" y="144"/>
      <point x="486" y="288"/>
      <point x="563" y="408" type="curve" smooth="yes"/>
      <point x="595" y="458"/>
      <point x="639" y="504"/>
      <point x="698" y="509" type="curve" smooth="yes"/>
      <point x="775" y="515"/>
      <point x="839" y="451"/>
      <point x="833" y="374" type="curve"/>
      <point x="833" y="-188" type="line"/>
    </contour>
    <contour>
      <point x="836" y="218" type="curve" smooth="yes"/>
      <point x="853" y="96"/>
      <point x="939" y="-9"/>
      <point x="1053" y="1" type="curve" smooth="yes"/>
      <point x="1168" y="11"/>
      <point x="1234" y="128"/>
      <point x="1236" y="250" type="curve" smooth="yes"/>
      <point x="1239" y="378"/>
      <point x="1171" y="504"/>
      <point x="1053" y="514" type="curve" smooth="yes"/>
      <point x="911" y="526"/>
      <point x="814" y="376"/>
    </contour>
  </outline>
</glyph>
<glyph name="N_A" format="2">
  <advance width="947"/>
  <unicode hex="F3610"/>
  <outline>
    <contour>
      <point x="35" y="42" type="move"/>
      <point x="31" y="17"/>
      <point x="54" y="-5"/>
      <point x="84" y="-1" type="curve" smooth="yes"/>
      <point x="108" y="2"/>
      <point x="122" y="22"/>
      <point x="133" y="42" type="curve"/>
      <point x="225" y="241"/>
      <point x="18" y="433"/>
      <point x="84" y="637" type="curve" smooth="yes"/>
      <point x="96" y="675"/>
      <point x="123" y="711"/>
      <point x="165" y="710" type="curve" smooth="yes"/>
      <point x="206" y="709"/>
      <point x="229" y="673"/>
      <point x="246" y="637" type="curve"/>
      <point x="327" y="450"/>
      <point x="327" y="250"/>
      <point x="409" y="63" type="curve" smooth="yes"/>
      <point x="425" y="27"/>
      <point x="449" y="-9"/>
      <point x="491" y="-10" type="curve" smooth="yes"/>
      <point x="532" y="-11"/>
      <point x="559" y="25"/>
      <point x="572" y="63" type="curve" smooth="yes"/>
      <point x="633" y="255"/>
      <point x="445" y="441"/>
      <point x="510" y="624" type="curve" smooth="yes"/>
      <point x="530" y="682"/>
      <point x="587" y="714"/>
      <point x="652" y="714" type="curve" smooth="yes"/>
      <point x="761" y="714"/>
      <point x="819" y="611"/>
      <point x="837" y="502" type="curve" smooth="yes"/>
      <point x="864" y="352"/>
      <point x="833" y="193"/>
      <point x="890" y="52" type="curve"/>
      <point x="898" y="34"/>
      <point x="907" y="16"/>
      <point x="917" y="-1" type="curve"/>
    </contour>
    <contour>
      <point x="563" y="284" type="move"/>
      <point x="890" y="284" type="line"/>
    </contour>
  </outline>
</glyph>
<glyph name="N_E" format="2">
  <advance width="1012"/>
  <unicode hex="F3620"/>
  <outline>
    <contour>
      <point x="35" y="42" type="move"/>
      <point x="31" y="17"/>
      <point x="54" y="-5"/>
      <point x="84" y="-1" type="curve" smooth="yes"/>
      <point x="108" y="2"/>
      <point x="122" y="22"/>
      <point x="133" y="42" type="curve"/>
      <point x="225" y="241"/>
      <point x="18" y="433"/>
      <point x="84" y="637" type="curve" smooth="yes"/>
      <point x="96" y="675"/>
      <point x="123" y="711"/>
      <point x="165" y="710" type="curve" smooth="yes"/>
      <point x="206" y="709"/>
      <point x="229" y="673"/>
      <point x="246" y="637" type="curve"/>
      <point x="327" y="450"/>
      <point x="327" y="250"/>
      <point x="409" y="63" type="curve" smooth="yes"/>
      <point x="425" y="27"/>
      <point x="449" y="-9"/>
      <point x="491" y="-10" type="curve" smooth="yes"/>
      <point x="532" y="-11"/>
      <point x="559" y="25"/>
      <point x="572" y="63" type="curve" smooth="yes"/>
      <point x="606" y="168"/>
      <point x="564" y="269"/>
      <point x="535" y="372" type="curve" smooth="yes"/>
      <point x="517" y="434"/>
      <point x="501" y="505"/>
      <point x="498" y="570" type="curve" smooth="yes"/>
      <point x="494" y="639"/>
      <point x="521" y="710"/>
      <point x="581" y="710" type="curve" smooth="yes"/>
      <point x="631" y="710"/>
      <point x="656" y="657"/>
      <point x="693" y="625" type="curve" smooth="yes"/>
      <point x="781" y="551"/>
      <point x="917" y="596"/>
      <point x="944" y="710" type="curve"/>
    </contour>
    <contour>
      <point x="487" y="371" type="move"/>
      <point x="855" y="371" type="line"/>
    </contour>
    <contour>
      <point x="580" y="94" type="move"/>
      <point x="621" y="76"/>
      <point x="671" y="50"/>
      <point x="715" y="20" type="curve" smooth="yes"/>
      <point x="805" y="-40"/>
      <point x="935" y="2"/>
      <point x="971" y="104" type="curve"/>
    </contour>
  </outline>
</glyph>
<glyph name="N_N" format="2">
  <advance width="1083"/>
  <unicode hex="F3650"/>
  <outline>
    <contour>
      <point x="35" y="42" type="move"/>
      <point x="31" y="17"/>
      <point x="54" y="-5"/>
      <point x="84" y="-1" type="curve" smooth="yes"/>
      <point x="108" y="2"/>
      <point x="122" y="22"/>
      <point x="133" y="42" type="curve"/>
      <point x="225" y="241"/>
      <point x="18" y="433"/>
      <point x="84" y="637" type="curve" smooth="yes"/>
      <point x="96" y="675"/>
      <point x="123" y="711"/>
      <point x="165" y="710" type="curve" smooth="yes"/>
      <point x="206" y="709"/>
      <point x="229" y="673"/>
      <point x="246" y="637" type="curve"/>
      <point x="327" y="450"/>
      <point x="327" y="250"/>
      <point x="409" y="63" type="curve" smooth="yes"/>
      <point x="425" y="27"/>
      <point x="449" y="-9"/>
      <point x="491" y="-10" type="curve" smooth="yes"/>
      <point x="532" y="-11"/>
      <point x="559" y="25"/>
      <point x="572" y="63" type="curve" smooth="yes"/>
      <point x="636" y="265"/>
      <point x="433" y="460"/>
      <point x="520" y="656" type="curve" smooth="yes"/>
      <point x="533" y="686"/>
      <point x="559" y="711"/>
      <point x="594" y="710" type="curve" smooth="yes"/>
      <point x="635" y="709"/>
      <point x="658" y="673"/>
      <point x="675" y="637" type="curve"/>
      <point x="756" y="450"/>
      <point x="756" y="250"/>
      <point x="838" y="63" type="curve" smooth="yes"/>
      <point x="854" y="27"/>
      <point x="878" y="-9"/>
      <point x="920" y="-10" type="curve" smooth="yes"/>
      <point x="961" y="-11"/>
      <point x="988" y="25"/>
      <point x="1001" y="63" type="curve" smooth="yes"/>
      <point x="1066" y="267"/>
      <point x="860" y="462"/>
      <point x="952" y="660" type="curve"/>
      <point x="961" y="681"/>
      <point x="977" y="700"/>
      <point x="1001" y="704" type="curve"/>
      <point x="1029" y="707"/>
      <point x="1054" y="685"/>
      <point x="1049" y="660" type="curve"/>
    </contour>
  </outline>
</glyph>
<glyph name="N_X" format="2">
  <advance width="1091"/>
  <unicode hex="F3670"/>
  <outline>
    <contour>
      <point x="35" y="43" type="move"/>
      <point x="31" y="18"/>
      <point x="54" y="-4"/>
      <point x="84" y="0" type="curve" smooth="yes"/>
      <point x="108" y="3"/>
      <point x="122" y="23"/>
      <point x="133" y="43" type="curve"/>
      <point x="225" y="242"/>
      <point x="18" y="433"/>
      <point x="84" y="637" type="curve" smooth="yes"/>
      <point x="96" y="675"/>
      <point x="123" y="711"/>
      <point x="165" y="710" type="curve" smooth="yes"/>
      <point x="206" y="709"/>
      <point x="229" y="673"/>
      <point x="246" y="637" type="curve"/>
      <point x="327" y="450"/>
      <point x="327" y="250"/>
      <point x="409" y="63" type="curve" smooth="yes"/>
      <point x="425" y="27"/>
      <point x="449" y="-9"/>
      <point x="491" y="-10" type="curve" smooth="yes"/>
      <point x="532" y="-11"/>
      <point x="559" y="25"/>
      <point x="572" y="63" type="curve" smooth="yes"/>
      <point x="637" y="267"/>
      <point x="431" y="458"/>
      <point x="523" y="656" type="curve"/>
      <point x="532" y="677"/>
      <point x="548" y="700"/>
      <point x="572" y="700" type="curve" smooth="yes"/>
      <point x="598" y="700"/>
      <point x="614" y="683"/>
      <point x="618" y="657" type="curve" smooth="yes"/>
      <point x="644" y="513"/>
      <point x="680" y="350"/>
      <point x="814" y="350" type="curve" smooth="yes"/>
      <point x="947" y="350"/>
      <point x="983" y="513"/>
      <point x="1009" y="657" type="curve" smooth="yes"/>
      <point x="1012" y="676"/>
      <point x="1019" y="696"/>
      <point x="1037" y="699" type="curve"/>
      <point x="1061" y="704"/>
      <point x="1078" y="677"/>
      <point x="1065" y="657" type="curve"/>
    </contour>
    <contour>
      <point x="563" y="42" type="move"/>
      <point x="553.326" y="22.3867"/>
      <point x="564.902" y="0.3242"/>
      <point x="585.52" y="0" type="curve" smooth="yes"/>
      <point x="607.552" y="-0.3465"/>
      <point x="615.228" y="24.4451"/>
      <point x="618" y="42" type="curve" smooth="yes"/>
      <point x="647" y="216"/>
      <point x="652" y="428"/>
      <point x="814" y="428" type="curve" smooth="yes"/>
      <point x="975" y="428"/>
      <point x="981" y="216"/>
      <point x="1009" y="42" type="curve" smooth="yes"/>
      <point x="1011.78" y="24.3721"/>
      <point x="1019.63" y="0"/>
      <point x="1041.48" y="0" type="curve" smooth="yes"/>
      <point x="1063.21" y="0"/>
      <point x="1077.19" y="23.2524"/>
      <point x="1065" y="42" type="curve"/>
    </contour>
  </outline>
</glyph>
<glyph name="n_a" format="2">
  <advance width="992"/>
  <unicode hex="F3710"/>
  <outline>
    <component base="a" xOffset="468.533"/>
    <contour>
      <point x="91" y="2" type="move"/>
      <point x="91" y="146"/>
      <point x="110" y="293"/>
      <point x="193" y="410" type="curve" smooth="yes"/>
      <point x="234" y="468"/>
      <point x="293" y="515"/>
      <point x="363" y="512" type="curve" smooth="yes"/>
      <point x="437" y="509"/>
      <point x="496" y="450"/>
      <point x="499" y="376" type="curve"/>
      <point x="499" y="122" type="line"/>
    </contour>
    <contour>
      <point x="23" y="452" type="move"/>
      <point x="13" y="476"/>
      <point x="31" y="503"/>
      <point x="57" y="503" type="curve" smooth="yes"/>
      <point x="70.1582" y="503"/>
      <point x="80.9414" y="496.587"/>
      <point x="87.3819" y="487.235" type="curve" smooth="yes"/>
      <point x="94.1571" y="477.396"/>
      <point x="96.1266" y="464.304"/>
      <point x="91" y="452" type="curve"/>
      <point x="91" y="2" type="line"/>
    </contour>
  </outline>
</glyph>
<glyph name="n_e" format="2">
  <advance width="936"/>
  <unicode hex="F3720"/>
  <outline>
    <component base="n"/>
    <contour>
      <point x="524" y="376" type="curve" smooth="yes"/>
      <point x="491" y="312"/>
      <point x="501" y="238"/>
      <point x="499" y="171" type="curve"/>
      <point x="499" y="172"/>
      <point x="499" y="173"/>
      <point x="499" y="174" type="curve" smooth="yes"/>
      <point x="499" y="200.663"/>
      <point x="543.871" y="212.369"/>
      <point x="603.375" y="223.219" type="curve" smooth="yes"/>
      <point x="717.944" y="244.108"/>
      <point x="886.76" y="261.821"/>
      <point x="894" y="377" type="curve" smooth="yes"/>
      <point x="900" y="466"/>
      <point x="814" y="531"/>
      <point x="713" y="514" type="curve" smooth="yes"/>
      <point x="635" y="500"/>
      <point x="571" y="467"/>
    </contour>
  </outline>
</glyph>
<glyph name="n_x" format="2">
  <advance width="764"/>
  <unicode hex="F3770"/>
  <outline>
    <component base="n"/>
    <contour>
      <point x="705" y="456" type="move"/>
      <point x="723" y="481"/>
      <point x="700" y="515"/>
      <point x="671" y="508" type="curve" smooth="yes"/>
      <point x="649" y="503"/>
      <point x="642" y="478"/>
      <point x="636" y="456" type="curve" smooth="yes"/>
      <point x="614" y="375"/>
      <point x="556" y="317"/>
      <point x="499" y="254" type="curve"/>
    </contour>
    <contour>
      <point x="705" y="52" type="move"/>
      <point x="721.234" y="29.4533"/>
      <point x="704.156" y="0.1672"/>
      <point x="679.341" y="0.0895001" type="curve" smooth="yes"/>
      <point x="650.755" y="0"/>
      <point x="642.007" y="29.6898"/>
      <point x="636" y="52" type="curve" smooth="yes"/>
      <point x="613.928" y="133.981"/>
      <point x="556" y="192"/>
      <point x="499" y="254" type="curve"/>
    </contour>
  </outline>
</glyph>
<glyph name="O_F" format="2">
  <advance width="1036"/>
  <unicode hex="F3810"/>
  <outline>
    <component base="O"/>
    <contour>
      <point x="522" y="390" type="move"/>
      <point x="895" y="390" type="line"/>
    </contour>
    <contour>
      <point x="551" y="460" type="move"/>
      <point x="546" y="476"/>
      <point x="537" y="514"/>
      <point x="543" y="571" type="curve" smooth="yes"/>
      <point x="552" y="655"/>
      <point x="610" y="729"/>
      <point x="685" y="713" type="curve" smooth="yes"/>
      <point x="733" y="704"/>
      <point x="760" y="656"/>
      <point x="799" y="627" type="curve"/>
      <point x="892" y="562"/>
      <point x="1021" y="605"/>
      <point x="1055" y="713" type="curve"/>
    </contour>
  </outline>
</glyph>
<glyph name="O_N_A" format="2">
  <advance width="1434"/>
  <unicode hex="F3830"/>
  <outline>
    <component base="O"/>
    <contour>
      <point x="438" y="42" type="move"/>
      <point x="434" y="17"/>
      <point x="457" y="-5"/>
      <point x="487" y="-1" type="curve" smooth="yes"/>
      <point x="511" y="2"/>
      <point x="525" y="22"/>
      <point x="536" y="42" type="curve"/>
      <point x="566" y="107"/>
      <point x="572" y="172"/>
      <point x="551" y="234" type="curve" smooth="yes"/>
      <point x="550" y="237" type="line"/>
    </contour>
    <contour>
      <point x="965" y="284" type="move"/>
      <point x="1377" y="284" type="line"/>
    </contour>
    <contour>
      <point x="941" y="361" type="move"/>
      <point x="942" y="409"/>
      <point x="946" y="456"/>
      <point x="954" y="502" type="curve" smooth="yes"/>
      <point x="973" y="611"/>
      <point x="1031" y="714"/>
      <point x="1139" y="714" type="curve" smooth="yes"/>
      <point x="1248" y="714"/>
      <point x="1306" y="611"/>
      <point x="1324" y="502" type="curve" smooth="yes"/>
      <point x="1351" y="352"/>
      <point x="1320" y="193"/>
      <point x="1377" y="52" type="curve"/>
      <point x="1385" y="34"/>
      <point x="1394" y="16"/>
      <point x="1404" y="-1" type="curve"/>
    </contour>
    <contour>
      <point x="481" y="617" type="move"/>
      <point x="482" y="624"/>
      <point x="485" y="630"/>
      <point x="487" y="637" type="curve"/>
      <point x="499" y="675"/>
      <point x="526" y="711"/>
      <point x="568" y="710" type="curve" smooth="yes"/>
      <point x="609" y="709"/>
      <point x="632" y="673"/>
      <point x="649" y="637" type="curve"/>
      <point x="730" y="450"/>
      <point x="730" y="250"/>
      <point x="812" y="63" type="curve" smooth="yes"/>
      <point x="828" y="27"/>
      <point x="852" y="-9"/>
      <point x="894" y="-10" type="curve" smooth="yes"/>
      <point x="935" y="-11"/>
      <point x="962" y="25"/>
      <point x="975" y="63" type="curve" smooth="yes"/>
      <point x="1040" y="267"/>
      <point x="834" y="462"/>
      <point x="926" y="660" type="curve"/>
      <point x="935" y="681"/>
      <point x="951" y="700"/>
      <point x="975" y="704" type="curve"/>
      <point x="1003" y="707"/>
      <point x="1028" y="685"/>
      <point x="1023" y="660" type="curve"/>
    </contour>
  </outline>
</glyph>
<glyph name="O_T" format="2">
  <advance width="917"/>
  <unicode hex="F3840"/>
  <outline>
    <component base="O"/>
    <contour>
      <point x="563" y="636" type="move"/>
      <point x="563" y="0" type="line"/>
    </contour>
    <contour>
      <point x="405" y="686" type="move"/>
      <point x="451" y="656"/>
      <point x="513" y="637"/>
      <point x="563" y="637" type="curve" smooth="yes"/>
      <point x="670" y="637"/>
      <point x="781" y="753"/>
      <point x="870" y="675" type="curve" smooth="yes"/>
      <point x="882" y="665"/>
      <point x="891" y="652"/>
      <point x="896" y="637" type="curve"/>
    </contour>
  </outline>
</glyph>
